<svg xmlns="http://www.w3.org/2000/svg" width="750.62" height="460.226" viewBox="0 0 750.62 460.226"><defs><style>.a{fill:#ebf3fa;}.b{fill:#afcdfb;}.c,.y{fill:#fff;}.c{opacity:0.6;}.d{fill:#699dee;}.e{fill:#dde7fe;}.f{fill:#cde0fb;}.f,.g{opacity:0.5;}.g{fill:#7c9af2;}.h{opacity:0.3;}.i{fill:#bdd1f9;}.j{fill:#f99746;}.k{fill:#ed7d2b;}.l{fill:#474fea;}.m{fill:#b5453c;}.n{fill:#233862;}.o{fill:#2b478b;}.p{fill:#fcecdb;}.q{fill:#548ee2;}.r{fill:#f4d2b8;}.s{fill:#568cdb;}.t{fill:#a4c4f4;}.u{fill:#ed985f;}.v{fill:#ffb27d;}.w{fill:#f9ddbf;}.x{fill:#dd6d22;}.z{fill:#163560;}.aa{fill:#1c468a;}.ab{fill:#efdece;}.ac{fill:#91b5f8;}.ad{fill:#ed975d;}.ae{fill:#f2ccaa;}.af{fill:#c65447;}.ag{fill:#2c3a64;}</style></defs><g transform="translate(-178.445 -107.921)"><path class="a" d="M321.27,568.147,560.63,566.9l63.8-.019,21.137-.008,63.924-.019,292.047-.08s66.8-85.658-4.554-167.014c-73.981-84.351-109.953-15.655-132.694-134.389C807.053-33.5,241.116,140.455,389.557,394.782,443.006,486.357,284.348,437.684,321.27,568.147Z" transform="translate(-100.861)"/><g transform="translate(430.539 488.842)"><g transform="translate(7.295)"><path class="b" d="M1160.754,1563.317l-1.294-.709a2.86,2.86,0,0,1-1.134-3.878l5.946-10.86a2.86,2.86,0,0,1,3.878-1.134l1.854,1.015a.559.559,0,1,1-.537.981l-1.854-1.015a1.74,1.74,0,0,0-2.36.69l-5.947,10.86a1.741,1.741,0,0,0,.69,2.36l1.294.709a1.741,1.741,0,0,0,2.36-.69l3.948-7.209a.559.559,0,0,1,.981.537l-3.947,7.209A2.86,2.86,0,0,1,1160.754,1563.317Z" transform="translate(-1157.975 -1546.386)"/></g><g transform="translate(0 1.297)"><path class="b" d="M1134.983,1578.321l-2.32-1.271a4.627,4.627,0,0,1-1.615-6.325l8.94-16.327a.559.559,0,1,1,.981.537l-8.94,16.327a3.51,3.51,0,0,0,1.171,4.807l2.32,1.271a3.51,3.51,0,0,0,4.681-1.6l10.183-18.6a3.509,3.509,0,0,0-1.171-4.807.559.559,0,0,1,.537-.981,4.626,4.626,0,0,1,1.615,6.325l-10.183,18.6A4.627,4.627,0,0,1,1134.983,1578.321Z" transform="translate(-1130.426 -1551.283)"/></g></g><g transform="translate(361.13 180.981)"><path class="c" d="M47.874,0H262.283a47.875,47.875,0,0,1,47.875,47.875V216.519a47.874,47.874,0,0,1-47.874,47.874H47.874A47.874,47.874,0,0,1,0,216.519V47.874A47.874,47.874,0,0,1,47.874,0Z"/><path class="d" d="M29.338,0H280.819a29.338,29.338,0,0,1,29.338,29.338v0a0,0,0,0,1,0,0H0a0,0,0,0,1,0,0v0A29.338,29.338,0,0,1,29.338,0Z"/><g transform="translate(12.543 10.985)"><path class="e" d="M915.682,428.807a3.507,3.507,0,1,1,3.507,3.508A3.507,3.507,0,0,1,915.682,428.807Z" transform="translate(-915.682 -425.3)"/><path class="e" d="M971.275,428.807a3.508,3.508,0,1,1,3.508,3.508A3.508,3.508,0,0,1,971.275,428.807Z" transform="translate(-956.553 -425.3)"/><path class="e" d="M1026.869,428.807a3.508,3.508,0,1,1,3.508,3.508A3.507,3.507,0,0,1,1026.869,428.807Z" transform="translate(-997.425 -425.3)"/></g><rect class="f" width="87.919" height="87.919" transform="translate(24.58 52.617)"/><path class="g" d="M1444.128,588.813H1374.2a3.323,3.323,0,0,1-3.323-3.323h0a3.323,3.323,0,0,1,3.323-3.323h69.932a3.323,3.323,0,0,1,3.323,3.323h0A3.323,3.323,0,0,1,1444.128,588.813Z" transform="translate(-1237.791 -529.643)"/><path class="g" d="M1759.927,571.984h-69.932a3.323,3.323,0,0,1-3.323-3.323h0a3.323,3.323,0,0,1,3.323-3.323h69.932a3.323,3.323,0,0,1,3.322,3.323h0A3.323,3.323,0,0,1,1759.927,571.984Z" transform="translate(-1469.963 -517.27)"/><g class="h" transform="translate(133.082 80.442)"><path class="i" d="M1457.971,691.9h-84.945a2.154,2.154,0,0,1-2.154-2.154h0a2.154,2.154,0,0,1,2.154-2.154h84.945a2.154,2.154,0,0,1,2.154,2.154h0A2.154,2.154,0,0,1,1457.971,691.9Z" transform="translate(-1370.873 -687.589)"/><path class="i" d="M1753.494,691.9h-22.423a2.154,2.154,0,0,1-2.154-2.154h0a2.154,2.154,0,0,1,2.154-2.154h22.423a2.153,2.153,0,0,1,2.153,2.154h0A2.153,2.153,0,0,1,1753.494,691.9Z" transform="translate(-1634.103 -687.589)"/><path class="i" d="M1405.077,742.334h-32.051a2.154,2.154,0,0,1-2.154-2.154h0a2.154,2.154,0,0,1,2.154-2.154h32.051a2.154,2.154,0,0,1,2.154,2.154h0A2.154,2.154,0,0,1,1405.077,742.334Z" transform="translate(-1370.873 -724.67)"/><path class="i" d="M1568.168,742.334h-43.917a2.154,2.154,0,0,1-2.154-2.154h0a2.154,2.154,0,0,1,2.154-2.154h43.917a2.153,2.153,0,0,1,2.153,2.154h0A2.154,2.154,0,0,1,1568.168,742.334Z" transform="translate(-1482.051 -724.67)"/><path class="i" d="M1753.494,742.334h-22.423a2.154,2.154,0,0,1-2.154-2.154h0a2.154,2.154,0,0,1,2.154-2.154h22.423a2.153,2.153,0,0,1,2.153,2.154h0A2.153,2.153,0,0,1,1753.494,742.334Z" transform="translate(-1634.103 -724.67)"/><path class="i" d="M1416.516,785.946h-43.489a2.154,2.154,0,0,1-2.154-2.154h0a2.154,2.154,0,0,1,2.154-2.154h43.489a2.153,2.153,0,0,1,2.154,2.154h0A2.153,2.153,0,0,1,1416.516,785.946Z" transform="translate(-1370.873 -756.733)"/><path class="i" d="M1653.393,785.946h-71.127a2.154,2.154,0,0,1-2.154-2.154h0a2.154,2.154,0,0,1,2.154-2.154h71.127a2.154,2.154,0,0,1,2.154,2.154h0A2.154,2.154,0,0,1,1653.393,785.946Z" transform="translate(-1524.703 -756.733)"/></g><g class="h" transform="translate(133.082 122.873)"><path class="i" d="M1457.971,852.127h-84.945a2.154,2.154,0,0,1-2.154-2.154h0a2.154,2.154,0,0,1,2.154-2.154h84.945a2.154,2.154,0,0,1,2.154,2.154h0A2.154,2.154,0,0,1,1457.971,852.127Z" transform="translate(-1370.873 -847.82)"/><path class="i" d="M1753.494,852.127h-22.423a2.154,2.154,0,0,1-2.154-2.154h0a2.154,2.154,0,0,1,2.154-2.154h22.423a2.153,2.153,0,0,1,2.153,2.154h0A2.153,2.153,0,0,1,1753.494,852.127Z" transform="translate(-1634.103 -847.82)"/><path class="i" d="M1405.077,902.565h-32.051a2.154,2.154,0,0,1-2.154-2.153h0a2.154,2.154,0,0,1,2.154-2.154h32.051a2.154,2.154,0,0,1,2.154,2.154h0A2.154,2.154,0,0,1,1405.077,902.565Z" transform="translate(-1370.873 -884.902)"/><path class="i" d="M1568.168,902.565h-43.917a2.154,2.154,0,0,1-2.154-2.153h0a2.154,2.154,0,0,1,2.154-2.154h43.917a2.153,2.153,0,0,1,2.153,2.154h0A2.153,2.153,0,0,1,1568.168,902.565Z" transform="translate(-1482.051 -884.902)"/></g><g transform="translate(39.468 65.723)"><path class="i" d="M1041.892,632.006h9.08l24.531,56.151h-10.354l-5.655-13.46h-26.363l-5.735,13.46h-10.036Zm14.018,34.009-9.637-22.3-9.557,22.3Z" transform="translate(-1017.361 -632.006)"/></g><g transform="translate(24.58 158.246)"><rect class="j" width="49.113" height="9.481"/><rect class="k" width="49.113" height="9.481" transform="translate(0 9.481)"/><rect class="l" width="49.113" height="9.481" transform="translate(0 18.963)"/></g><g transform="translate(80.809 159.519)"><path class="i" d="M1202.544,990.3h-27.022a2.047,2.047,0,0,1-2.048-2.047h0a2.047,2.047,0,0,1,2.048-2.047h27.022a2.047,2.047,0,0,1,2.047,2.047h0A2.047,2.047,0,0,1,1202.544,990.3Z" transform="translate(-1173.474 -986.208)"/><path class="i" d="M1193.44,1017.557h-17.919a2.048,2.048,0,0,1-2.048-2.048h0a2.047,2.047,0,0,1,2.048-2.047h17.919a2.047,2.047,0,0,1,2.047,2.047h0A2.048,2.048,0,0,1,1193.44,1017.557Z" transform="translate(-1173.474 -1006.245)"/></g><g transform="translate(24.58 207.269)"><rect class="j" width="49.113" height="19.373"/><rect class="m" width="49.113" height="13.855" transform="translate(0 14.589)"/><path class="l" d="M961.137,1166.523l17.619,14.8-17.619,13.645Z" transform="translate(-961.137 -1166.523)"/></g><g transform="translate(80.809 208.542)"><path class="i" d="M1202.544,1175.426h-27.022a2.047,2.047,0,0,1-2.048-2.047h0a2.047,2.047,0,0,1,2.048-2.047h27.022a2.047,2.047,0,0,1,2.047,2.047h0A2.047,2.047,0,0,1,1202.544,1175.426Z" transform="translate(-1173.474 -1171.331)"/><path class="i" d="M1193.44,1202.68h-17.919a2.047,2.047,0,0,1-2.048-2.048h0a2.047,2.047,0,0,1,2.048-2.047h17.919a2.047,2.047,0,0,1,2.047,2.047h0A2.047,2.047,0,0,1,1193.44,1202.68Z" transform="translate(-1173.474 -1191.368)"/></g></g><g transform="translate(580.502 149.204)"><path class="n" d="M1857.14,396.072s1.278,15.245-2.2,15.014-10.331-6.942-24.169-5.851-30.77,4.119-41.006-13.992,13.09-23.325,13.09-23.325l54.28,28.154Z" transform="translate(-1763.222 -340.35)"/><path class="o" d="M1761.225,318.42l69.731,5.734,1.45-3.1L1765.553,271.7l-67.53-7.889-1.3,2.776,64.5,51.829Z" transform="translate(-1696.726 -263.815)"/><g transform="translate(104.789 105.16)"><path class="j" d="M2104.774,662.888a2.7,2.7,0,1,0-1.855,3.343,2.7,2.7,0,0,0,1.855-3.343Z" transform="translate(-2097.609 -660.928)"/><path class="j" d="M2097.279,671.161c2.8-.218,3.451,25.231,3.451,25.231a6.2,6.2,0,0,1-2.72.656c-.9-.2-1.354-3.638-1.354-3.638l-.086,3.6s-3.068.107-4.131-.64c0,0,.417-24.867,4.841-25.212Z" transform="translate(-2092.438 -668.45)"/></g><path class="j" d="M2007,443.419l-.505-55.6-.361-.27-36.423-26.944-1.308,1.771,36.061,26.675.814,54.271Z" transform="translate(-1896.462 -334.975)"/></g><g transform="translate(538.2 395.361)"><g transform="translate(38.473 66.391)"><path class="p" d="M0,0H147.418a28.775,28.775,0,0,1,28.775,28.775v0A29.428,29.428,0,0,1,146.765,58.2H0a0,0,0,0,1,0,0V0A0,0,0,0,1,0,0Z" transform="translate(8.174 0)"/><path class="d" d="M1998.045,1468.033v8.756a26.709,26.709,0,0,1-3.231,12.827,23.574,23.574,0,0,1-20.594,12.672h-288.5a3.582,3.582,0,0,1-3.456-3.7v-1.311a3.582,3.582,0,0,1,3.456-3.7h175.865a24.087,24.087,0,0,0,2.468-3.97,25,25,0,0,0,2.578-11.128v-11.13a24.747,24.747,0,0,0-.712-5.923,23.883,23.883,0,0,0-4.078-8.642H1685.723a3.583,3.583,0,0,1-3.456-3.7v-1.308a3.583,3.583,0,0,1,3.456-3.7h289.949c10.218,0,18.835,7.332,21.51,17.348A25.46,25.46,0,0,1,1998.045,1468.033Z" transform="translate(-1682.268 -1444.086)"/><path class="q" d="M1997.182,1461.434h-131.26a23.883,23.883,0,0,0-4.078-8.642H1685.723a3.583,3.583,0,0,1-3.456-3.7v-1.308a3.583,3.583,0,0,1,3.456-3.7h289.949C1985.89,1444.086,1994.508,1451.418,1997.182,1461.434Z" transform="translate(-1682.268 -1444.086)"/><path class="r" d="M1713.136,1553.983l21.361.978-21.361.589Z" transform="translate(-1704.962 -1524.881)"/><path class="r" d="M1713.136,1588.469l50.82.978-50.82.589Z" transform="translate(-1704.962 -1550.235)"/></g><g transform="translate(2.538 124.472)"><g transform="translate(0 0)"><path class="j" d="M0,0H148.756A23.347,23.347,0,0,1,172.1,23.347v0a21.924,21.924,0,0,1-21.924,21.924H0a0,0,0,0,1,0,0V0A0,0,0,0,1,0,0Z" transform="translate(172.104 45.271) rotate(180)"/><path class="p" d="M0,0H169.711A22.89,22.89,0,0,1,192.6,22.89v0a22.382,22.382,0,0,1-22.382,22.382H0a0,0,0,0,1,0,0V0A0,0,0,0,1,0,0Z" transform="translate(336.247 45.271) rotate(180)"/><rect class="j" width="216.008" height="6.771" rx="3.385" transform="translate(345.181 45.271) rotate(180)"/><rect class="j" width="216.008" height="6.771" rx="3.385" transform="translate(345.181 6.771) rotate(180)"/><path class="r" d="M2751.505,1748.9l-23.351.761,23.351.458Z" transform="translate(-2415.258 -1726.26)"/><path class="r" d="M2662.1,1709.552l-55.553.761,55.553.458Z" transform="translate(-2325.856 -1697.334)"/></g><g transform="translate(281.267 12.827)"><path class="d" d="M2608.711,1711.853a10.512,10.512,0,0,1,3.169,5.142,8.467,8.467,0,0,1,.247,1.789c.131,4.248,0,13.862,0,13.862l7.028-4.807,7.01,4.807v-13.031a11.474,11.474,0,0,0-1.718-6.43,2.618,2.618,0,0,0-1.942-1.333Z" transform="translate(-2608.711 -1711.853)"/><path class="s" d="M2608.711,1711.853a10.512,10.512,0,0,1,3.169,5.142l14.085.19s-.553-4.578-3.459-5.333Z" transform="translate(-2608.711 -1711.853)"/></g></g><g transform="translate(0)"><path class="p" d="M0,0H139.444a32.884,32.884,0,0,1,32.884,32.884v0a33.63,33.63,0,0,1-33.63,33.63H0a0,0,0,0,1,0,0V0A0,0,0,0,1,0,0Z" transform="translate(7.994)"/><path class="b" d="M1717.39,1219.188V1233.5c-.036,6.114-2.87,11.418-7.034,14.254a12.293,12.293,0,0,1-6.937,2.187H1540.441c-1.91,0-3.458,1.85-3.458,4.131v1.689c0,2.281,1.549,4.131,3.458,4.131h281.546c8.079,0,15.218-4.8,19.53-12.138a32.257,32.257,0,0,0,4.315-16.342V1220.12a30.965,30.965,0,0,0-2.223-11.629c-3.621-8.943-11.288-15.111-20.166-15.111h-283c-1.91,0-3.458,1.846-3.458,4.127v1.689c0,2.281,1.549,4.131,3.458,4.131h163.476a12.614,12.614,0,0,1,9.914,5.164A17.6,17.6,0,0,1,1717.39,1219.188Z" transform="translate(-1536.983 -1193.379)"/><path class="t" d="M1536.983,1405.037v1.689c0,2.281,1.549,4.131,3.458,4.131h281.546c8.079,0,15.218-4.8,19.53-12.138H1710.355a12.292,12.292,0,0,1-6.937,2.188H1540.441C1538.532,1400.906,1536.983,1402.756,1536.983,1405.037Z" transform="translate(-1536.983 -1344.342)"/><path class="r" d="M1567.17,1318.963l20.893,1.118-20.893.674Z" transform="translate(-1559.176 -1285.706)"/><path class="r" d="M1567.17,1261.158l49.705,1.118-49.705.673Z" transform="translate(-1559.176 -1243.208)"/><g transform="translate(33.136 18.846)"><path class="j" d="M1686.165,1264.541a11.661,11.661,0,0,0-4.367,5.576,7.324,7.324,0,0,0-.34,1.939c-.181,4.606,0,15.031,0,15.031l-9.685-5.212-9.66,5.212v-14.129a10.531,10.531,0,0,1,2.368-6.973,3.751,3.751,0,0,1,2.676-1.445Z" transform="translate(-1662.113 -1264.541)"/><path class="k" d="M1686.933,1264.541a11.661,11.661,0,0,0-4.367,5.576l-19.408.206s.761-4.964,4.767-5.782Z" transform="translate(-1662.881 -1264.541)"/></g></g></g><g transform="translate(294.972 406.811)"><path class="u" d="M801.325,1422.333s30.339,13.218,35.846,12.977,39.442-10.336,39.442-10.336l-.864,5.838s-26.188,15.062-35.344,15.916c-9.014.841-39.836-8.09-42.811-9.976S792.677,1424.241,801.325,1422.333Z" transform="translate(-748.311 -1373.153)"/><path class="n" d="M666.94,1237.17s-11.192-2.125-16.766,1.945c-10.1,7.374-10.64,32.8-14.424,36.583s-12.907,2.171-13.719,21.766,3.632,21.233-1.661,29.98,2.239,17.5,2.239,17.5-3.085-4.829-1.763-8.314c0,0,1.284,7.692,6.171,9.495s5.609,3.125,6.39,5.769c0,0,41.688-21.361,41.733-36.513s8.2-30.16,4.2-36.726a14.526,14.526,0,0,1,2,5.934,7.812,7.812,0,0,0-1.763-8.893c-4.167-4.288,4.888-13.161,3.547-23.437C682.2,1245.206,677.255,1237.477,666.94,1237.17Z" transform="translate(-618.485 -1236.615)"/><path class="v" d="M737.628,1388.5a29.186,29.186,0,0,1-10.2,4.341c-15.722,3.632-21.747-9.656-24.01-18.777a13.511,13.511,0,0,1,5.327-1.636c1.136-.134,2.331-.223,3.321-.272,1.765-1.352,4.4-6.886,4.978-15.479l.739.2,12.391,3.391s-.568,3.939-.846,7.662c-.215,2.913-.249,5.7.3,6.378.967.21,1.547.347,1.547.347a.037.037,0,0,0,.006.012A79.736,79.736,0,0,1,737.628,1388.5Z" transform="translate(-680.928 -1324.881)"/><path class="u" d="M770.056,1360.825s-.57,3.936-.846,7.662c-7.02-.7-10.278-7.386-11.546-11.052Z" transform="translate(-720.809 -1325.44)"/><path class="v" d="M768.082,1304.773s-16.662-.919-15.93-11.287-.925-17.469,9.744-17.32,12.455,4.25,13.052,7.771S772.435,1304.745,768.082,1304.773Z" transform="translate(-716.738 -1265.691)"/><path class="n" d="M760.413,1272.206c-2.349-3.3-4.342-2.758-5.5-1.9a11.663,11.663,0,0,0-15.13,1.32,19.853,19.853,0,0,1-7.316,11.235s2.9,2.091,10.021.795a11.914,11.914,0,0,0,5.945-3.5,38.943,38.943,0,0,1-7.268,7.682c8.63-3.262,12.818-14.639,13.24-15.844.951.985,2.811,3.111,3.282,5.1.64,2.7,3.4,6.92,5,6.848C762.688,1283.939,763.935,1277.159,760.413,1272.206Z" transform="translate(-702.284 -1259.76)"/><path class="w" d="M659.919,1460.5c-1.5-7.692-6.411-38.424-1.5-48.313,1.762-3.553,8.676-3.873,16.262-3.561,2.361,1.524,11.355,7.282,15.049,6.564.04-.008.112-.025.207-.049,1.74-.435,2.4-1.657.945-2.711a33.144,33.144,0,0,1,8.423.516c2.635.5,9.743,4.174,9.743,4.174s-3.58,6.467-8.857,8.7c.9,8.028-.437,11.57-8.766,30.114-7.038,15.675.949,29.787.949,29.787s-41.431,33.311-41.662,16.35C650.535,1489.3,661.842,1470.334,659.919,1460.5Z" transform="translate(-642.173 -1363.01)"/><path class="x" d="M745.244,1583.8a7.7,7.7,0,0,0,5.541-3.373q.3-.449.641-.965c4.716-7.139,6.551-29,17.159-52.3,2.584-5.67,11.859-6.69,14.388-13.1,0,0,6.225-20.777-11.914-21.39S722.48,1550.483,722,1556.61C721.533,1562.545,710.007,1587.771,745.244,1583.8Z" transform="translate(-692.994 -1424.861)"/><path class="n" d="M1015.608,1797.806H989.79s-.965-4.118.73-6.92c1.5-2.479.925-3.892-.186-5.943a10.028,10.028,0,0,0,4.348.819,9.094,9.094,0,0,0,3.839-1.351c1.111,1.267,5.869,6.659,7.356,7.728C1007.565,1793.352,1015.088,1792.92,1015.608,1797.806Z" transform="translate(-891.264 -1639.349)"/><path class="k" d="M898.393,1496.4c1.555,11.655,7.625,48.44,18.334,66.387,3.453,5.786-8.7,9.03-8.764,9.012-1.63-.426-4.345-3.025-5.6-4.152-8.694-7.835-26.343-30.022-26.343-47.81,0-8.673-.152-25.237,6.155-29.448C886.063,1487.8,897.776,1491.77,898.393,1496.4Z" transform="translate(-807.825 -1422.583)"/><path class="j" d="M675.19,1579.639s.957-1.332,2.625-3.861c1.986-3.007,4.182-8.925,6.848-16.511,2.8-7.964,6.122-17.761,10.274-27.956,1.281-3.147,2.642-6.332,4.089-9.511,2.584-5.67,9.692-4.887,12.221-11.3,0,0,9.867-22.223-8.271-22.836s-52.606,59.447-54.587,65.265C646.22,1559.3,635.641,1585.739,675.19,1579.639Z" transform="translate(-638.335 -1421.182)"/><path class="o" d="M944.041,1797.806H918.224s-.965-4.118.73-6.92c1.5-2.479.925-3.892-.186-5.943a10.028,10.028,0,0,0,4.348.819,9.094,9.094,0,0,0,3.839-1.351c1.111,1.267,5.869,6.659,7.356,7.728C936,1793.352,943.521,1792.92,944.041,1797.806Z" transform="translate(-838.648 -1639.349)"/><path class="k" d="M786.94,1632.688c2.8-7.964,6.122-17.762,10.274-27.956-1.084-7.724-3.423-14.48-7.355-17.2C789.858,1587.529,780.317,1617.085,786.94,1632.688Z" transform="translate(-740.611 -1494.603)"/><path class="j" d="M830.708,1496.855c1.555,11.655,3.744,49.266,14.453,67.213,3.453,5.786-8.7,9.029-8.764,9.012-1.63-.427-4.345-3.025-5.6-4.153-8.694-7.835-26.343-30.022-26.343-47.81,0-8.673,10.178-24.542,16.485-28.752A6.344,6.344,0,0,1,830.708,1496.855Z" transform="translate(-755.21 -1423.866)"/><path class="y" d="M807.474,1360.643s-1.575-.623-6.008-.264c0,0,.235,1.729,3.5,1.9A2.607,2.607,0,0,0,807.474,1360.643Z" transform="translate(-753.011 -1327.523)"/><g transform="translate(92.828 29.953)"><path class="z" d="M1068.208,1359.382l-5.353-9.657-11.579,32.31,6.831,7.333Z" transform="translate(-1029.497 -1349.724)"/><path class="aa" d="M979.794,1391.848,969.031,1422.6l28.611-6.418,10.1-29.986Z" transform="translate(-969.031 -1376.535)"/><path class="ab" d="M969.793,1434.589l-.5-.877,10.185-29.1.51.778Z" transform="translate(-969.222 -1390.079)"/><path class="p" d="M1007.752,1389.959l27.125-5.279,1.332.4-27.948,5.656Z" transform="translate(-997.498 -1375.424)"/><path class="ab" d="M1088.9,1360.685l-5.787-9.188-3.69,10.372,8.145-1.585Z" transform="translate(-1050.191 -1351.028)"/></g><path class="v" d="M775.425,1412.149c-.93-.179-2.927-.931-4.947-1.487a4.145,4.145,0,0,0,1.462-1.635c.361-1.139.6-1.505-.6-1.145s-5.407,2.289-5.407,2.289l.011.005c-2.389.7-4.591,4.075-4.591,4.075s-29.58,10.4-33.139,10.577c-5.505.276-42.149-13.218-42.149-13.218-8.648,1.908-6.708,12.534-3.732,14.42s29.343,11.478,44.97,11.658c7.915.092,36.705-18.413,36.705-18.413s3.366-1.538,6.01-1.057,8.774,0,10.1-2.163S776.987,1412.45,775.425,1412.149Z" transform="translate(-663.572 -1362.431)"/><path class="w" d="M701.283,1426.626s-3.277,10.375-14.533,12.736c0,0-18.587-5.726-9.332-18.389C677.418,1420.973,686.568,1414.174,701.283,1426.626Z" transform="translate(-659.913 -1370.791)"/><path class="v" d="M1096.732,1412.714l0,0a2.849,2.849,0,0,0-.1-.843s-2.651-4.194-3.52-4.365c-2.645-.522-2.645,2.96-2.084,5.206a9.125,9.125,0,0,0,2.189,3.878h0l-.105,3.282A7.019,7.019,0,0,0,1096.732,1412.714Z" transform="translate(-965.675 -1362.215)"/></g><g transform="translate(178.445 364.778)"><path class="a" d="M270.735,1115.656c1.057-26.151-20.862-37.769-43.273-37.769s-46.8,5.807-48.914,40.58c-1.359,22.37,10.566,36.136,44.905,36.136,11.581,0,20.582-1.827,27.476-5.084l17.166,15.253-8.435-21.083C267.131,1136.74,270.28,1126.94,270.735,1115.656Z" transform="translate(-178.445 -1077.887)"/><g transform="translate(30.362 28.645)"><path class="ac" d="M294.728,1187.495v6.109h4v-6.109h1.628v14.248h-1.628v-6.659h-4v6.659H293.1v-14.248Z" transform="translate(-293.1 -1187.115)"/><path class="ac" d="M329.115,1207.515c0,3.15,1.247,3.805,2.41,3.805a3.638,3.638,0,0,0,1.691-.38l.275,1.183a5.249,5.249,0,0,1-2.262.486c-2.452,0-3.721-2.008-3.721-5.136,0-3.3,1.416-5.37,3.467-5.37,2.071,0,2.917,2.2,2.917,4.481,0,.4-.021.676-.042.93Zm3.213-1.2c.021-2.029-.74-2.938-1.522-2.938-1.078,0-1.606,1.543-1.67,2.938Z" transform="translate(-318.396 -1197.854)"/><path class="ac" d="M358.242,1186.059h1.628v14.628h-1.628Z" transform="translate(-340.992 -1186.059)"/><path class="ac" d="M373.489,1186.059h1.628v14.628h-1.628Z" transform="translate(-352.201 -1186.059)"/><path class="ac" d="M393.782,1207.366c0,3.953-1.818,5.285-3.4,5.285-1.839,0-3.319-1.67-3.319-5.263,0-3.72,1.67-5.285,3.425-5.285C392.324,1202.1,393.782,1203.815,393.782,1207.366Zm-5.094,0c0,1.691.3,4,1.776,4,1.4,0,1.691-2.389,1.691-4,0-1.564-.3-3.974-1.733-3.974C388.963,1203.393,388.688,1205.8,388.688,1207.366Z" transform="translate(-362.178 -1197.854)"/></g></g><g transform="translate(635.28 289.536)"><path class="ac" d="M1987.957,828.28c.967-23.907-19.072-34.529-39.561-34.529s-42.786,5.309-44.718,37.1c-1.243,20.451,9.659,33.035,41.053,33.035,10.587,0,18.816-1.67,25.119-4.648l15.693,13.944-7.712-19.274C1984.662,847.555,1987.54,838.6,1987.957,828.28Z" transform="translate(-1903.584 -793.751)"/><g transform="translate(21.084 30.148)"><path class="y" d="M1983.2,907.833a8.218,8.218,0,0,1,2-.233,3.76,3.76,0,0,1,2.664.841,2.719,2.719,0,0,1,.787,2.057,2.764,2.764,0,0,1-1.86,2.664v.053a2.971,2.971,0,0,1,2.235,3.076,3.465,3.465,0,0,1-.858,2.4,4.107,4.107,0,0,1-3.183,1.091,9.662,9.662,0,0,1-1.788-.125Zm1.359,4.935h.626a2.069,2.069,0,0,0,2.093-2.128,1.767,1.767,0,0,0-1.985-1.967,2.462,2.462,0,0,0-.733.089Zm0,5.847a3.191,3.191,0,0,0,.7.072,2.176,2.176,0,0,0,2.342-2.4,2.315,2.315,0,0,0-2.431-2.467h-.608Z" transform="translate(-1983.204 -907.6)"/><path class="y" d="M2015.632,924.613c0,3.344-1.538,4.47-2.879,4.47-1.556,0-2.808-1.412-2.808-4.453,0-3.147,1.413-4.47,2.9-4.47C2014.4,920.16,2015.632,921.608,2015.632,924.613Zm-4.31,0c0,1.431.25,3.38,1.5,3.38,1.18,0,1.431-2.021,1.431-3.38,0-1.323-.25-3.362-1.466-3.362C2011.554,921.251,2011.322,923.289,2011.322,924.613Z" transform="translate(-2002.864 -916.834)"/><path class="y" d="M2037.029,922.52c0-1.019-.054-1.538-.072-2.235h1.2l.072,1.055h.036a2.2,2.2,0,0,1,1.985-1.18c1.2,0,2.092.876,2.092,2.968v5.812h-1.377v-5.561c0-1.037-.2-2.057-1.2-2.057-.573,0-1.127.483-1.288,1.395a3.37,3.37,0,0,0-.072.787v5.436h-1.377Z" transform="translate(-2022.722 -916.834)"/><path class="y" d="M2059.04,923.085a1.881,1.881,0,0,0,1.163-.679c.3-.465.411-1.109.411-2.754v-7.707h1.377v8.1c0,1.824-.269,2.664-.876,3.308a3.023,3.023,0,0,1-1.9.823Zm3.076-13.375a.817.817,0,1,1-1.627,0,.829.829,0,0,1,.822-.894A.806.806,0,0,1,2062.116,909.709Z" transform="translate(-2038.958 -908.493)"/><path class="y" d="M2081.54,924.613c0,3.344-1.538,4.47-2.878,4.47-1.556,0-2.808-1.412-2.808-4.453,0-3.147,1.413-4.47,2.9-4.47C2080.306,920.16,2081.54,921.608,2081.54,924.613Zm-4.309,0c0,1.431.25,3.38,1.5,3.38,1.18,0,1.43-2.021,1.43-3.38,0-1.323-.25-3.362-1.466-3.362C2077.464,921.251,2077.231,923.289,2077.231,924.613Z" transform="translate(-2051.319 -916.834)"/><path class="y" d="M2108.222,926.926c0,.948.053,1.717.071,2.36h-1.2l-.107-.912h-.036a2.216,2.216,0,0,1-1.842,1.055c-1.5,0-2.11-1.18-2.11-3.326v-5.472h1.377v5.275c0,1.359.215,2.36,1.163,2.36a1.334,1.334,0,0,0,1.234-1.144,3.557,3.557,0,0,0,.072-.787v-5.7h1.377Z" transform="translate(-2071.277 -917.181)"/><path class="y" d="M2129.747,922.52c0-.733-.053-1.591-.071-2.235h1.234l.072,1.377h.036a2.108,2.108,0,0,1,1.824-1.5,1.453,1.453,0,0,1,.286.018v1.4h-.286a1.867,1.867,0,0,0-1.663,1.788,5.184,5.184,0,0,0-.054.787v4.792h-1.377Z" transform="translate(-2090.888 -916.834)"/></g></g><g transform="translate(637.16 329.639)"><path class="n" d="M2197.454,1396.6c4.862,8.6,11.03,11.953,11.03,11.953l25.756.182S2193.745,1390.042,2197.454,1396.6Z" transform="translate(-2121.338 -1276.038)"/><g transform="translate(0 0)"><path class="v" d="M2211.82,1591.757a2.382,2.382,0,0,1,.407,2.55.022.022,0,0,1-.007.013c-.626,1.693-2.669,3.574-5.04,5.451-.3.241-.573.46-.808.664-.062.053-.123.107-.181.16s-.094.085-.14.124c-2.213,2.011-1.389,2.481-5.367,6.565-4.537,4.654-7.638,4.717-8.517,4.283-.743-.369.79-2.844,2.49-5.625.083-.134.163-.27.248-.406.226-.37.451-.745.676-1.117,1.992-3.348,1.5-4.929,1.067-9.935-.351-4.068-6.165-22.757-6.165-22.757l8.641-1.426s2.494,14.866,5.341,17.174c1.523,1.23,3.237,1.257,4.7,2.171q.155.1.3.2A11.324,11.324,0,0,1,2211.82,1591.757Z" transform="translate(-2116.39 -1404.766)"/><path class="n" d="M2215.962,1645.463a2.381,2.381,0,0,1,.406,2.549.02.02,0,0,1-.007.013c-.764,1.691-2.756,3.563-5.048,5.434-.3.245-.564.47-.8.681-.062.053-.123.107-.181.16s-.094.085-.139.124c-2.212,2.011-1.389,2.481-5.367,6.565-4.537,4.654-7.638,4.717-8.517,4.283-.743-.369.79-2.844,2.49-5.625a19.2,19.2,0,0,0,8.069-5.859c2.736-3.441,4.576-7.874,6.441-10.437q.155.1.3.2A11.337,11.337,0,0,1,2215.962,1645.463Z" transform="translate(-2120.532 -1458.472)"/><path class="v" d="M1936.566,1577.446c-.552,2.66-4.346,2.189-8.581,1.123s-3.236.173-9.269-.539-7.846-2.975-8.024-3.874c-.159-.8,2.826-1.058,6.029-1.4.4-.042.807-.089,1.212-.136,3.616-.428,6.279-2.741,9.573-4.632,3.121-1.792,7.812-9.148,7.812-9.148l8.276.714s-4.392,6.569-6.093,9.427c-1,1.681-.964,3.913-.853,5.637A10.639,10.639,0,0,1,1936.566,1577.446Z" transform="translate(-1910.686 -1396.336)"/><path class="n" d="M1927.985,1617.2c-4.235-1.067-3.236.173-9.269-.538s-7.846-2.975-8.024-3.874c-.159-.8,2.826-1.058,6.029-1.4l.029.062a17.023,17.023,0,0,0,8.628,2.749c4.1.128,8.443-1.014,11.271-.949a10.64,10.64,0,0,1-.083,2.832C1936.014,1618.742,1932.22,1618.271,1927.985,1617.2Z" transform="translate(-1910.686 -1434.972)"/><path class="n" d="M2129.656,1393.388l7.593,20.884,9.914,27.268a16.368,16.368,0,0,0,5.372-.453,23.274,23.274,0,0,0,5.21-2.491s-2.6-29.221-7.716-46.021c-1.311-4.312-2.79-7.8-4.435-9.774C2137.547,1373.154,2129.656,1393.388,2129.656,1393.388Z" transform="translate(-2071.671 -1265)"/><path class="o" d="M2031.767,1295.1c5.082-1.6,19.532.6,34.041,3.549l3.077-5,31.4-2.229s10.194,23.038,4.421,37.631c-.848,2.145-2.917,3.037-5.74,3.063l0,0s-18.73.325-24.795.283c-15.607-.11-32.954-10.961-35.2-11.428-3.684-.764-5.212,6.6-8.956,14.325s-34.919,34.064-34.919,34.064-4.763.014-6.725-.738a6.633,6.633,0,0,1-2.877-1.844S2020.305,1298.712,2031.767,1295.1Z" transform="translate(-1965.678 -1199.74)"/><path class="n" d="M2279.91,995.889c11.132,6.232,33.713,19.148,33.831,19.066,0,0,8.311,3.2,13.06.093,7.916-5.177,12.24-19.23-2.083-31.451-7.144-6.095-12.239-7.6-12.946-17.259-.384-5.239-7.42-22.57-19.323-21.056a18.088,18.088,0,0,1-3,.176,11.131,11.131,0,0,0-6.045,1.516C2276.646,950.934,2263.174,993.389,2279.91,995.889Z" transform="translate(-2176.214 -945.189)"/><path class="v" d="M2334.088,1068.541c-.05.031,5.485,1.965,9.206.348,3.5-1.518,6.185-7.241,6.133-7.244-1.587-.084-3.32-1.484-4.6-10.6l-.678.238-11.394,4.01s.8,3.653,1.306,7.129C2334.491,1065.338,2334.712,1068.133,2334.088,1068.541Z" transform="translate(-2220.988 -1023.013)"/><path class="ad" d="M2332.757,1055.952s.486,2.56,1.16,6.218c6.536-1.129,9.291-6.7,10.235-10.228Z" transform="translate(-2220.988 -1023.673)"/><path class="v" d="M2304.469,1004.871s15.565-1.977,14.184-11.652-.3-16.445-10.3-15.591-11.4,4.82-11.721,8.161S2300.384,1005.137,2304.469,1004.871Z" transform="translate(-2194.417 -968.985)"/><path class="n" d="M2298.966,978.091s9.894,8.649,16.66,9.388,9.345-1.416,9.345-1.416a26.437,26.437,0,0,1-6.332-8.707,4.761,4.761,0,0,0-3.906-2.834C2309.9,974.071,2300.738,973.816,2298.966,978.091Z" transform="translate(-2196.145 -966.58)"/><path class="n" d="M2300.075,980.688s-3.353,3.2-4.419,5.577c-1.028,2.3-1.371,7.808-.581,10,0,0-5.117-10.126-2.145-15.007C2296.082,976.086,2300.075,980.688,2300.075,980.688Z" transform="translate(-2191.026 -969.901)"/><path class="w" d="M2287.724,1119.748c.248,31.481-.047,24.9,3.375,27.913.824.725,3.154,1.17,6.222,1.394,9.648.709,26.626-.762,27.284-2.541,2.269-6.156.711-8.085,2.636-17.521.2-1,.448-2.09.737-3.272,1.595-6.479,3.118-8.676-2.3-19.142-4.917-9.48-10.039-17.182-10.506-16.908-13.2,7.711-14.215,1.144-14.215,1.144S2287.6,1104.393,2287.724,1119.748Z" transform="translate(-2187.879 -1051.405)"/><path class="o" d="M2158.332,1448.644l9.914,27.268a16.368,16.368,0,0,0,5.372-.453,23.288,23.288,0,0,0,5.21-2.491s-2.6-29.221-7.717-46.021Z" transform="translate(-2092.752 -1299.372)"/><path class="w" d="M2264.418,1094s-13.543,2.2-15.172,8.011S2238.027,1142,2238.027,1142s6.868,1.284,10.067-1.87,11.262-29.4,11.262-29.4Z" transform="translate(-2151.344 -1054.596)"/><path class="ae" d="M2323.971,1221.759c9.648.709,26.627-.762,27.284-2.541,2.27-6.156.711-8.085,2.636-17.521l-4.563-13.142s.667,14.6-3.666,18.413-17.679,7.287-19.794,10.481A11.737,11.737,0,0,0,2323.971,1221.759Z" transform="translate(-2214.529 -1124.109)"/><path class="v" d="M2319.013,1286.769s-9.508-2.188-11.05-1.354-5.319,3.885-5.8,4.953,3.427-.789,4.694-1.119c.821-.214,2.973.551,4.039.914,4.484,1.53,7.243.779,7.243.779Z" transform="translate(-2198.468 -1195.181)"/><path class="w" d="M2368.33,1089.663s12.78.878,17.164,7.083c6.169,8.734,18.268,45.858,11.149,50.747-8.017,5.506-36.317,1.2-36.317,1.2s-.912-4.413.415-6.535,22.667-5.416,23.658-6.392-12.163-19.271-12.142-22.222S2368.33,1089.663,2368.33,1089.663Z" transform="translate(-2241.031 -1051.405)"/><path class="v" d="M2311.952,1295.939a18.411,18.411,0,0,1-2.67,2.862,1.948,1.948,0,0,1-1.078.223l1.362-2.411Z" transform="translate(-2202.937 -1203.057)"/><path class="v" d="M2308.008,1285.942l-5.821,2.776a1.033,1.033,0,0,0,.958.378,13.833,13.833,0,0,0,2.521-.674Z" transform="translate(-2198.514 -1195.707)"/></g><g transform="translate(48.138 65.151)"><path class="j" d="M2151.916,1225.966l-45.888-.324-13.562-34.423,45.817.323Z" transform="translate(-2092.467 -1191.219)"/><path class="k" d="M2141.684,1316.146l60.594.428-.01,1.337-60.057-.423Z" transform="translate(-2128.65 -1283.064)"/><path class="y" d="M2187.644,1250.672a1.59,1.59,0,0,1,1.574-2.174,3.13,3.13,0,0,1,2.8,2.2,1.59,1.59,0,0,1-1.573,2.174A3.131,3.131,0,0,1,2187.644,1250.672Z" transform="translate(-2162.378 -1233.33)"/></g></g><g transform="translate(433.46 537.856)"><rect class="af" width="27.716" height="139.422" transform="translate(32.41 27.717) rotate(-89.989)"/><path class="p" d="M1173.865,1759.2l-20.491-8.765-11.918-5.1,12.2-5.214,20.218-8.64a41.9,41.9,0,0,1,2.738,13.1C1176.673,1754.534,1173.865,1759.2,1173.865,1759.2Z" transform="translate(-1141.455 -1731.478)"/><path class="p" d="M1806.555,1740.779l0,8.762a9.759,9.759,0,0,1-9.761,9.758h-6.449l.005-27.716h7.014A9.2,9.2,0,0,1,1806.555,1740.779Z" transform="translate(-1618.51 -1731.554)"/><path class="o" d="M1153.654,1764.1c.507,2.8.949,7.092-.281,10.312l-11.918-5.1Z" transform="translate(-1141.455 -1755.465)"/></g><g transform="translate(484.584 303.611)"><path class="j" d="M1377.042,1177.444s2.5,10.836,9.777,10.836c6.24,0,14.8-14.1,14.8-14.1Z" transform="translate(-1365.78 -1087.51)"/><path class="o" d="M1535.865,1409.1l-4.677,3.216s-22.494-23.975-27.924-46.957a35.746,35.746,0,0,1-.945-11.99s-.328-1.041-.9-2.881l-.077-.246c-.251-.808-.553-1.757-.888-2.833-1.09-3.473-2.589-8.225-4.3-13.635-3.931-12.451-12.923-40.531-16.765-52.211l27.614-9.991s3.137,7.153,7.644,26.593c.694,2.538,1.39,5.344,2.039,8.4.737,3.463,1.424,7.249,2,11.34a174.05,174.05,0,0,1,1.655,23.277c.016,3.478-.07,7.085-.276,10.807a47.7,47.7,0,0,0,1.015,10.5C1524.558,1381.4,1535.865,1409.1,1535.865,1409.1Z" transform="translate(-1441.026 -1159.112)"/><path class="n" d="M1685.57,1802.387h-22.326s-.834-3.561.631-5.984c1.3-2.144.8-3.365-.16-5.139a8.682,8.682,0,0,0,3.76.708,7.867,7.867,0,0,0,3.32-1.168,80.334,80.334,0,0,0,6.361,6.682C1678.615,1798.536,1685.121,1798.162,1685.57,1802.387Z" transform="translate(-1576.019 -1540.85)"/><path class="n" d="M1518.684,1317.9l-17.345,32.337c-.251-.808-.553-1.757-.888-2.833-1.09-3.473-2.589-8.225-4.3-13.635-3.931-12.451-12.923-40.531-16.765-52.211l27.614-9.991s3.137,7.153,7.644,26.593c.694,2.538,1.39,5.344,2.039,8.4C1517.425,1310.025,1518.112,1313.811,1518.684,1317.9Z" transform="translate(-1441.026 -1159.112)"/><path class="n" d="M1475.71,1806.484s-1.545,3.791-.09,6.988h12.144s.252-2.883-4.155-6.226C1480.271,1804.714,1475.71,1806.484,1475.71,1806.484Z" transform="translate(-1437.795 -1551.935)"/><path class="ag" d="M1483.873,854.6c.007-.6.318-7.123,10.221-7.7,0,0-4.86.7-5.651,2.862,0,0,3.255-2.727,5.979-1.941s4.425,5.483,4.478,7.04-1.327,6.614-3.032,7.082a5.243,5.243,0,0,1-2.077.053,23.307,23.307,0,0,1,1.388,2.344c4.151,8.023.57,17.474-2.8,16.678-2.161-.51-3.474,3.235-3.474,3.235l-20.782-17.871S1475.4,850.344,1483.873,854.6Z" transform="translate(-1432.742 -846.903)"/><path class="v" d="M1478.267,1004.653a25.229,25.229,0,0,0,8.82,3.753c13.6,3.142,18.806-8.349,20.763-16.237a11.685,11.685,0,0,0-4.606-1.415c-.982-.116-2.016-.193-2.872-.235-1.527-1.169-3.8-5.955-4.3-13.386l-.64.172-10.715,2.932s.491,3.406.732,6.625c.186,2.519.215,4.927-.262,5.516-.836.181-1.338.3-1.338.3a.028.028,0,0,1-.005.01A68.97,68.97,0,0,0,1478.267,1004.653Z" transform="translate(-1440.199 -942.647)"/><path class="u" d="M1502.6,980.723s.493,3.4.731,6.625c6.07-.608,8.887-6.387,9.984-9.558Z" transform="translate(-1458.092 -943.13)"/><path class="v" d="M1476.19,936.943s13.976-3.592,11.606-12.261-2.163-14.972-11.187-13.045-9.846,5.707-9.759,8.793S1472.493,937.654,1476.19,936.943Z" transform="translate(-1431.802 -894.239)"/><path class="ag" d="M1461.883,911.213c1.435-3.2,3.217-3.072,4.343-2.538a10.085,10.085,0,0,1,13.055-1.434,17.168,17.168,0,0,0,8.1,8.294s-2.106,2.263-8.365,2.365a10.3,10.3,0,0,1-5.633-1.968,33.669,33.669,0,0,0,7.46,5.289c-7.87-1.31-13.342-10.253-13.9-11.2a11.309,11.309,0,0,0-1.923,4.877c-.088,2.4.848,7.026-.519,7.236C1464.5,922.131,1459.731,916.008,1461.883,911.213Z" transform="translate(-1427.744 -889.954)"/><path class="v" d="M1438.848,1027.879s23.473-5.7,33.68,2.719l-5.1,71.137-45.907-11.09s1.291-4.5,10.094-16.471S1436.588,1044.647,1438.848,1027.879Z" transform="translate(-1398.48 -978.569)"/><path class="o" d="M1445.542,1265.933s-.027.241-.075.7c-.021.2-.048.436-.077.715-.2,1.844-.572,5.381-1.054,9.981-1.26,12.065-3.236,31.442-4.583,46.737-1.054,11.958-1.723,21.423-1.362,22.942,1.087,4.573,0,59.242,0,59.242-3.9,1.871-9.817,0-9.817,0s-10.393-49.264-8.938-56.111a23.583,23.583,0,0,0-.973-12.692c-8.069-37.58-7.186-58.409-5.584-68.38a42.1,42.1,0,0,1,1.38-6.088,12.683,12.683,0,0,1,.553-1.5A37.978,37.978,0,0,1,1445.542,1265.933Z" transform="translate(-1391.49 -1150.685)"/><path class="j" d="M1463.327,1052.395c-1.133,8.558-5.667,19.03-7.286,24.667,0,0,2.707,19.571.123,24.944a2.38,2.38,0,0,1-1.1,1.235c-9.572,4.17-46.851.12-48.424-11.9-.572-4.37,14.2-19.739,15.06-21.6.357-.771.738-3.272-.994-8.454-2.455,7.568-16,5.392-16,5.392,1.59-2.721,5.552-21.545,9.975-30.043,3.326-6.388,12.206-7.313,12.206-7.313s3.7,5.862,12.634,5.03,10.573-6.3,10.573-6.3,7.927,1.054,10.37,3.025C1460.881,1031.409,1464.813,1041.182,1463.327,1052.395Z" transform="translate(-1386.114 -980.075)"/><path class="k" d="M1567.312,1170.214s2.707,19.571.123,24.944c-6.974-3.5-12.47-12.97-11.2-23.519.938-7.8,2.332-9.576,6.5-14.039,3.066-3.279,10.152-3.464,9.6-1.9C1570.681,1160.342,1568.167,1167.236,1567.312,1170.214Z" transform="translate(-1497.385 -1073.227)"/><g transform="translate(0 66.619)"><path class="aa" d="M1415.232,1125.757l15.984,25.643h-27.2l-15.229-25.088Z" transform="translate(-1374.417 -1118.532)"/><path class="ab" d="M1503.794,1147.871l.276-.9-15.125-24.267-.3.807Z" transform="translate(-1447.827 -1116.29)"/><path class="p" d="M1415.535,1122.708l-25.62.73-1.125.633,26.442-.555Z" transform="translate(-1374.417 -1116.29)"/><path class="z" d="M1348.886,1106.253l-14.373-7.78,16.754,26.31,12.848,6.558Z" transform="translate(-1334.513 -1098.474)"/></g><path class="v" d="M1564.316,1174.154c-1.539.7-5.491,5.358-6.9,5.831-6.342,2.122-33.332-3.525-33.332-3.525l.835-4.727s26.491.7,29.4-.075c.549-.148,3.411-4.625,4.512-5.268Z" transform="translate(-1473.883 -1081.786)"/><path class="v" d="M1485.387,1180.739s-3.195-2.6-5.353-2.012-5.335,3.318-6.514,3.964-4.384,2.958-2.76,4.356,6.68.2,8.683-.874a10.358,10.358,0,0,1,5.109-.706Z" transform="translate(-1434.35 -1090.792)"/><path class="v" d="M1493.642,1177.418s-3.883-.463-4.943-.442-.772.254-.187,1.077,2.607,1.137,2.7,1.425S1493.642,1177.418,1493.642,1177.418Z" transform="translate(-1447.346 -1089.569)"/><path class="j" d="M1566.669,1028.043s11.513,1.366,14.683,6.3c4.008,6.242,13.467,31.1,13.162,37.369,0,0-6.916,11.77-30.632,9.886,0,0-2.468-8.715,2.521-11.592,0,0,12.181-2.166,13.584-3.4l-9.932-18.049Z" transform="translate(-1502.695 -980.075)"/><path class="v" d="M1383.132,1161.123c-.357-1.45-3.52-.544-4.586.29a4.333,4.333,0,0,0-.811.953c-.033-.243-.062-.475-.078-.656-.06-.681-.854-1.9-1.051-.989s-.521,4.754-.521,4.754c-.038,3.093,1.95,4.368,3.226,3.362S1383.489,1162.574,1383.132,1161.123Z" transform="translate(-1365.076 -1077.351)"/></g></g></svg>