<svg xmlns="http://www.w3.org/2000/svg" xmlns:xlink="http://www.w3.org/1999/xlink" width="753.701" height="478.728" viewBox="0 0 753.701 478.728"><defs><style>.a{fill:none;}.b{fill:#ebf3fa;}.c{fill:#ed985f;}.d{fill:#233862;}.e{fill:#ffb27d;}.f{fill:#b5453c;}.g{fill:#dd6d22;}.h{fill:#9e332e;}.i{fill:#ed7d2b;}.j{fill:#f99746;}.k{fill:#fff;}.l{fill:#adcbf9;}.m{fill:#fcecdb;}.n{fill:#f4d2b8;}.o{fill:#86d1cd;}.p{fill:#d86713;}.q{fill:#ee9849;}.r{fill:#f1a34f;}.s{fill:#e78b37;}.t{fill:#699dee;}.u{fill:#e9f3fe;}.v,.w{fill:#afcdfb;}.w{opacity:0.6;}.x{fill:#9e3732;}.y{fill:#e49963;}.z{fill:#163560;}.aa{fill:#599dad;}.ab{fill:#6bb7bf;}.ac{fill:#5aa9ad;}.ad{fill:#d68d5d;}.ae{fill:#4a75cb;}.af{fill:#2b478b;}.ag{fill:#f4a269;}.ah{fill:#c65447;}.ai{fill:#1c468a;}.aj{clip-path:url(#a);}.ak{fill:#2c3a64;}.al{fill:#bc3f3f;}.am{fill:#a02e2e;}.an{fill:#e8945b;}.ao{fill:#d35c2b;}.ap{fill:#e58638;}</style><clipPath id="a"><path class="a" d="M1191.894,947.735H1018.956L999.369,876.95l-1.5-5.426-1.279-4.629-3.006-10.856h170.448l3.3,10.856,1.408,4.629,1.651,5.426Z" transform="translate(-993.582 -856.039)"/></clipPath></defs><g transform="translate(-1038.652 -1349.715)"><path class="b" d="M321.5,586.649l248.983-1.293,66.368-.02,21.987-.008,66.494-.02,303.788-.083s69.485-89.1-4.737-173.728c-76.955-87.742-114.374-16.284-138.029-139.792C826.809-39.18,238.121,141.762,392.529,406.315,448.127,501.571,283.09,450.941,321.5,586.649Z" transform="translate(723.016 1241.793)"/><g transform="translate(1045.608 1490.985)"><g transform="translate(2.744 143.146)"><path class="c" d="M529.63,1159.611s-25.491,11.106-30.118,10.9-33.14-8.685-33.14-8.685l.726,4.905s22,12.655,29.7,13.373c7.574.707,33.471-6.8,35.971-8.381S536.9,1161.214,529.63,1159.611Z" transform="translate(-460.568 -1118.288)"/><path class="d" d="M655.115,1024.57s9.4-1.787,14.088,1.634c8.484,6.2,8.94,27.556,12.119,30.738s10.845,1.824,11.527,18.289-3.052,17.841,1.4,25.19-1.881,14.706-1.881,14.706,2.592-4.057,1.481-6.986c0,0-1.079,6.463-5.185,7.978s-4.713,2.625-5.369,4.847c0,0-35.027-17.948-35.065-30.679s-6.893-25.342-3.527-30.858a12.2,12.2,0,0,0-1.683,4.986,6.564,6.564,0,0,1,1.481-7.472c3.5-3.6-4.107-11.058-2.98-19.692C642.289,1031.322,646.448,1024.828,655.115,1024.57Z" transform="translate(-582.223 -1024.104)"/><path class="e" d="M663.653,1138.443a24.525,24.525,0,0,0,8.57,3.647c13.21,3.052,18.272-8.113,20.173-15.777a11.347,11.347,0,0,0-4.475-1.375c-.955-.113-1.959-.187-2.791-.229-1.483-1.136-3.693-5.786-4.182-13.005l-.621.166-10.411,2.85s.477,3.309.71,6.437c.181,2.448.209,4.787-.255,5.359-.812.176-1.3.291-1.3.291a.024.024,0,0,1-.005.01A67.065,67.065,0,0,0,663.653,1138.443Z" transform="translate(-597.689 -1084.991)"/><path class="c" d="M684.189,1115.107s.479,3.307.711,6.437c5.9-.591,8.635-6.206,9.7-9.286Z" transform="translate(-611.963 -1085.376)"/><path class="e" d="M665.124,1077s14-.773,13.385-9.484.777-14.678-8.188-14.553-10.465,3.571-10.966,6.529S661.467,1076.975,665.124,1077Z" transform="translate(-594.659 -1044.161)"/><path class="d" d="M654.952,1050.527c1.974-2.775,3.648-2.317,4.62-1.6a9.8,9.8,0,0,1,12.712,1.109,16.685,16.685,0,0,0,6.147,9.44s-2.436,1.757-8.42.667a10.012,10.012,0,0,1-4.995-2.943,32.711,32.711,0,0,0,6.106,6.455c-7.251-2.741-10.77-12.3-11.125-13.312a10.986,10.986,0,0,0-2.758,4.283c-.538,2.268-2.859,5.814-4.2,5.754C653.04,1060.385,651.992,1054.689,654.952,1050.527Z" transform="translate(-590.187 -1040.069)"/><path class="f" d="M676.909,1193.208c1.264-6.463,5.386-32.285,1.264-40.594-1.481-2.985-7.29-3.254-13.663-2.993-1.983,1.281-9.541,6.119-12.645,5.516-.033-.007-.094-.021-.174-.041-1.462-.366-2.013-1.392-.794-2.278a27.82,27.82,0,0,0-7.077.434c-2.214.417-8.187,3.507-8.187,3.507s3.008,5.433,7.443,7.309c-.754,6.746.367,9.722,7.365,25.3,5.914,13.17-.8,25.028-.8,25.028s34.811,27.989,35.005,13.738C684.794,1217.408,675.293,1201.468,676.909,1193.208Z" transform="translate(-578.214 -1111.292)"/><path class="g" d="M601.688,1287.5a6.474,6.474,0,0,1-4.656-2.834q-.251-.378-.538-.811c-3.963-6-5.5-24.369-14.418-43.94-2.171-4.765-9.964-5.622-12.089-11.008,0,0-5.23-17.457,10.01-17.973s40.817,48.575,41.221,53.724C621.611,1269.643,631.3,1290.838,601.688,1287.5Z" transform="translate(-531.985 -1153.956)"/><path class="h" d="M477.275,1435.052h21.692s.811-3.46-.613-5.814c-1.261-2.083-.778-3.27.156-4.993a8.434,8.434,0,0,1-3.654.688,7.642,7.642,0,0,1-3.226-1.135,78.05,78.05,0,0,1-6.18,6.493C484.033,1431.309,477.711,1430.946,477.275,1435.052Z" transform="translate(-468.147 -1301.912)"/><path class="h" d="M688.729,1181.806s2.823,25.686-15.487,31.069-23.507-23.635-8.724-25.721A142.33,142.33,0,0,0,688.729,1181.806Z" transform="translate(-592.321 -1133.715)"/><path class="i" d="M534.043,1214.407c-1.306,9.793-6.407,40.7-15.4,55.78-2.9,4.862,7.309,7.587,7.364,7.573,1.37-.358,3.651-2.541,4.7-3.489,7.3-6.584,22.134-25.226,22.134-40.172,0-7.287.128-21.205-5.171-24.742C544.4,1207.179,534.562,1210.518,534.043,1214.407Z" transform="translate(-496.536 -1152.386)"/><path class="j" d="M644.152,1284.559s-.8-1.119-2.205-3.244c-1.668-2.526-3.515-7.5-5.754-13.873-2.353-6.691-5.144-14.923-8.632-23.489-1.076-2.644-2.22-5.32-3.436-7.992-2.171-4.764-8.143-4.106-10.268-9.493,0,0-8.291-18.672,6.95-19.187s44.2,49.949,45.866,54.837C668.493,1267.468,677.382,1289.685,644.152,1284.559Z" transform="translate(-561.513 -1151.419)"/><path class="f" d="M529.493,1435.052h21.692s.811-3.46-.613-5.814c-1.261-2.083-.778-3.27.156-4.993a8.431,8.431,0,0,1-3.654.688,7.639,7.639,0,0,1-3.226-1.135,78.076,78.076,0,0,1-6.18,6.493C536.251,1431.309,529.929,1430.946,529.493,1435.052Z" transform="translate(-504.441 -1301.912)"/><path class="i" d="M672.557,1318.089c-2.353-6.691-5.144-14.923-8.632-23.489.911-6.489,2.876-12.167,6.18-14.455C670.105,1280.145,678.121,1304.979,672.557,1318.089Z" transform="translate(-597.879 -1202.066)"/><path class="j" d="M583,1214.6c-1.306,9.793-3.146,41.395-12.144,56.474-2.9,4.862,7.309,7.587,7.364,7.573,1.37-.358,3.651-2.542,4.7-3.489,7.305-6.584,22.134-25.226,22.134-40.172,0-7.287-8.552-20.621-13.851-24.158A5.33,5.33,0,0,0,583,1214.6Z" transform="translate(-532.83 -1153.27)"/><g transform="translate(0 28.555)"><path class="h" d="M454.953,1120.111l22.215-2.359a1.433,1.433,0,0,1,1.492.916l7.948,20.885a1.434,1.434,0,0,1-1.282,1.943l-22.043.89a1.434,1.434,0,0,1-1.381-.88l-8.12-19.415A1.434,1.434,0,0,1,454.953,1120.111Z" transform="translate(-451.74 -1117.743)"/><path class="f" d="M448.625,1120.773l22.215-2.359a1.434,1.434,0,0,1,1.492.916l7.948,20.886a1.434,1.434,0,0,1-1.282,1.943l-22.043.889a1.434,1.434,0,0,1-1.381-.88l-8.12-19.415A1.434,1.434,0,0,1,448.625,1120.773Z" transform="translate(-447.341 -1118.203)"/><path class="h" d="M491.732,1155.07a.913.913,0,0,1,.858-1.35,2.136,2.136,0,0,1,1.841,1.35.914.914,0,0,1-.859,1.35A2.135,2.135,0,0,1,491.732,1155.07Z" transform="translate(-478.134 -1142.75)"/><path class="h" d="M453.633,1131.13a.449.449,0,0,1,.422-.663,1.049,1.049,0,0,1,.9.663.449.449,0,0,1-.422.663A1.049,1.049,0,0,1,453.633,1131.13Z" transform="translate(-451.684 -1126.587)"/></g><path class="e" d="M577.336,1152.215s-30.789,11.339-35.415,11.106c-2.99-.15-27.844-8.887-27.844-8.887s-1.844-2.837-3.848-3.428c0,0-3.533-1.621-4.543-1.924s-.808,0-.5.962a3.483,3.483,0,0,0,1.228,1.374c-1.7.467-3.375,1.1-4.157,1.25-1.313.252-5.049,1.464-3.938,3.282s6.261,2.222,8.483,1.818a10.3,10.3,0,0,1,5.049.888s24.191,15.548,30.841,15.471c13.13-.152,35.284-8.211,37.784-9.8S584.6,1153.819,577.336,1152.215Z" transform="translate(-482.628 -1110.893)"/><path class="e" d="M458.862,1152.467s2.228-3.524,2.957-3.668c2.222-.439,2.222,2.488,1.751,4.375-.506,2.025-2.217,3.936-2.691,3.769S458.338,1154.329,458.862,1152.467Z" transform="translate(-455.29 -1110.743)"/><path class="e" d="M458.654,1163.246a5.9,5.9,0,0,0,3.042,6.016Z" transform="translate(-455.167 -1120.815)"/><path class="k" d="M669.819,1114.641s1.323-.523,5.048-.221c0,0-.2,1.453-2.945,1.6A2.19,2.19,0,0,1,669.819,1114.641Z" transform="translate(-601.975 -1086.813)"/><path class="f" d="M705.894,1163.573a16.915,16.915,0,0,0,12.211,10.7s15.617-4.811,7.841-15.451C725.946,1158.823,718.258,1153.111,705.894,1163.573Z" transform="translate(-627.049 -1116.659)"/></g><g transform="translate(44.793)"><g transform="translate(24.856)"><path class="l" d="M671.221,631.792c0-.881.02-1.781.039-2.662a73.445,73.445,0,0,1,3.328-19.26c-1.644.059-3.23.156-4.756.254a74.969,74.969,0,0,0-2.9,16.285c-.117,1.644-.176,3.288-.2,4.952v.431c0,1.664.059,3.328.157,4.971,1.507.7,3.053,1.37,4.678,2.036-.156-1.566-.274-3.152-.313-4.737C671.241,633.3,671.221,632.555,671.221,631.792Zm143.67-30.007A77.219,77.219,0,0,0,713.833,560.74c-1.135.489-2.271,1-3.367,1.527-1.82.881-3.621,1.82-5.344,2.838a75.808,75.808,0,0,0-15.8,12.175c-1,.978-1.957,2-2.9,3.053-1.174,1.292-2.29,2.642-3.366,4.013a77.691,77.691,0,0,0-4.776,6.831c-.822,1.312-1.585,2.662-2.329,4.013-1.155,2.133-2.192,4.326-3.151,6.6-.724,1.7-1.37,3.406-1.958,5.148-.372,1.057-.7,2.114-1.017,3.191a74.969,74.969,0,0,0-2.9,16.285c-.117,1.644-.176,3.288-.2,4.952v.431c0,1.664.059,3.328.157,4.971.078,1.351.215,2.7.372,4.052a75.4,75.4,0,0,0,5.539,20.983,77.123,77.123,0,0,0,141.771.724c.1-.235.215-.489.313-.724.431-1.018.842-2.036,1.214-3.054a77.239,77.239,0,0,0-1.214-56.959Zm-4.071,58.173c-.02.039-.02.059-.039.1-.489,1.135-1,2.27-1.546,3.386a72.682,72.682,0,0,1-132.317-3.386,71.394,71.394,0,0,1-4.854-17.3c-.215-1.311-.372-2.623-.489-3.954-.156-1.566-.274-3.152-.313-4.737-.019-.763-.039-1.507-.039-2.27,0-.881.02-1.781.039-2.662a73.445,73.445,0,0,1,3.328-19.26c.333-1.057.685-2.094,1.076-3.132.392-1.077.8-2.153,1.253-3.21.646-1.487,1.311-2.955,2.036-4.384.685-1.37,1.409-2.7,2.173-4.013a72.932,72.932,0,0,1,7.32-10.315c1.135-1.331,2.31-2.623,3.543-3.875l.509-.509a72.656,72.656,0,0,1,18.712-13.545c1.429-.724,2.877-1.39,4.365-2.016.391-.176.8-.333,1.194-.489a72.679,72.679,0,0,1,94.051,95.577Z" transform="translate(-666.739 -554.692)"/></g><g transform="translate(0 52.046)"><path class="l" d="M772.585,765.959l-5.97-.137c1.918,2.486,2.349,4.776,1.155,6.714-1.194,1.977-4.052,3.6-8.319,4.835a48.424,48.424,0,0,1-5.285,1.214,118.874,118.874,0,0,1-19.358,1.566c-19.26.235-43.179-2.388-67.333-7.34a324.431,324.431,0,0,1-43.884-12.018c-1.918-.685-3.778-1.39-5.559-2.095-1.057-.411-2.094-.841-3.112-1.272-1.624-.666-3.171-1.331-4.678-2.036-1.057-.47-2.075-.959-3.073-1.448-13.878-6.773-20.219-13.31-17.381-17.949,2.29-3.758,10.628-6.3,23.39-7.242,1.527-.1,3.112-.2,4.756-.254.333-1.057.685-2.094,1.077-3.132-1.664.039-3.269.117-4.815.2-16.089.96-24.7,3.791-27.833,8.919-3.641,5.97,1.331,13.982,17.244,21.772,2.192,1.076,4.541,2.133,7.007,3.19,1.546.646,3.151,1.292,4.8,1.938l2.29.881c1.879.7,3.8,1.41,5.774,2.095a342.309,342.309,0,0,0,42.24,11.353c21.629,4.424,43.12,7.046,61.5,7.477,2.7.078,5.324.078,7.869.059a139.963,139.963,0,0,0,17.5-1.174c1.9-.254,3.68-.567,5.344-.92,7.849-1.625,13.016-4.169,15.071-7.536C774.424,771.283,774.249,768.7,772.585,765.959Z" transform="translate(-585.229 -725.364)"/></g><g transform="translate(25.37 3.681)"><path class="l" d="M797.462,653.814c-.076.14-.156.277-.241.411-2.361,3.748-7.638,5.684-15.046,5.682a61.116,61.116,0,0,1-12.01-1.342c-14.576-2.957-31.808-10.384-48.519-20.914C705.22,627.3,691.282,615.2,682.3,603.519c-.157-.2-.31-.406-.463-.607q-1.278-1.693-2.384-3.337c-6.548-9.722-8.517-17.965-5.38-22.942,2.361-3.748,7.638-5.683,15.046-5.683a61.124,61.124,0,0,1,12.01,1.342q2.524.511,5.151,1.2,2.989.779,6.089,1.786,2.148-1.084,4.378-2.026c.394-.167.788-.33,1.186-.489q-3.2-1.159-6.309-2.107c-3.316-1.012-6.547-1.841-9.663-2.473-15.731-3.193-26.895-.986-31.43,6.212-4.316,6.848-1.965,17.156,6.6,29.179q.656.922,1.36,1.855.787,1.045,1.628,2.093c9.288,11.61,23.133,23.487,39.289,33.667,17.129,10.792,34.858,18.419,49.92,21.476a65.1,65.1,0,0,0,12.831,1.427c8.983,0,15.42-2.594,18.6-7.639a13.2,13.2,0,0,0,1.279-2.644Z" transform="translate(-668.424 -566.762)"/></g><g transform="translate(64.716 5.024)"><path class="l" d="M807.485,713.922a7.64,7.64,0,0,1-2.616-.451c-13.227-4.8-7.111-43.93,5.359-78.313,11.533-31.8,30.169-63.992,43.473-63.992a7.65,7.65,0,0,1,2.616.451c7.533,2.732,7.992,16.212,7.05,27.039-1.258,14.47-5.665,32.679-12.41,51.275C839.425,681.73,820.788,713.922,807.485,713.922ZM853.7,575.25c-8.369,0-25.9,23.437-39.633,61.3-6.626,18.27-10.952,36.111-12.18,50.236-1.321,15.195,1.393,21.764,4.374,22.845a3.516,3.516,0,0,0,1.223.206c8.368,0,25.9-23.437,39.633-61.3,6.626-18.27,10.952-36.111,12.18-50.236,1.321-15.195-1.393-21.764-4.373-22.845A3.528,3.528,0,0,0,853.7,575.25Z" transform="translate(-797.448 -571.166)"/></g><g transform="translate(55.093 15.573)"><path class="l" d="M864.454,653.273a178.49,178.49,0,0,1-40.216-4.19c-14.375-3.337-26.734-8.663-36.734-15.827-17.211-12.331-21.44-25.738-21.612-26.3l3.906-1.193c.039.127,4.128,12.855,20.368,24.377,15.093,10.708,44.044,22.537,96.263,18.076l.348,4.07Q875.189,653.273,864.454,653.273Z" transform="translate(-765.893 -605.761)"/></g><g transform="translate(29.825 100.03)"><path class="l" d="M792.372,926a202.621,202.621,0,0,0-75.424-35.031c-20.145-4.585-33.633-4.154-33.767-4.148l-.149-4.082c.568-.022,14.161-.456,34.823,4.247a206.74,206.74,0,0,1,76.956,35.737Z" transform="translate(-683.032 -882.717)"/></g></g><g transform="translate(430.832 279.857)"><path class="j" d="M2484.952,1487.554a16.123,16.123,0,0,1-16.123,16.123H2337.485v-31.265h132.329a15.116,15.116,0,0,1,15.137,15.142Z" transform="translate(-2189.178 -1472.413)"/><path class="m" d="M2041.289,1487.87a15.756,15.756,0,0,1-4.58,11.13l-.049.048a15.757,15.757,0,0,1-11.175,4.629H1876.256v-31.265h149.579a15.458,15.458,0,0,1,15.454,15.458Z" transform="translate(-1868.6 -1472.413)"/><path class="i" d="M2036.241,1561.936a2.338,2.338,0,0,1-2.337,2.341H1853.49a2.339,2.339,0,1,1,0-4.677H2033.9A2.338,2.338,0,0,1,2036.241,1561.936Z" transform="translate(-1851.15 -1533.012)"/><path class="i" d="M2036.241,1474.75a2.339,2.339,0,0,1-2.337,2.341H1853.49a2.339,2.339,0,1,1,0-4.678H2033.9A2.338,2.338,0,0,1,2036.241,1474.75Z" transform="translate(-1851.15 -1472.413)"/><path class="n" d="M1876.261,1523.675l20.008.525-20.008.317Z" transform="translate(-1868.603 -1508.042)"/><path class="n" d="M1876.261,1539.76l47.6.526-47.6.317Z" transform="translate(-1868.603 -1519.222)"/><path class="i" d="M2472.251,1472.607l-43.185,31.07h-91.581v-31.265h132.329A15.255,15.255,0,0,1,2472.251,1472.607Z" transform="translate(-2189.178 -1472.413)"/></g><g transform="translate(0 274.359)"><g transform="translate(0)"><path class="o" d="M0,0H88.637a17.8,17.8,0,0,1,17.8,17.8v0A18.959,18.959,0,0,1,87.481,36.761H0a0,0,0,0,1,0,0V0A0,0,0,0,1,0,0Z" transform="translate(107.042)"/><path class="m" d="M0,0H100.942a18.175,18.175,0,0,1,18.175,18.175v0A18.587,18.587,0,0,1,100.53,36.761H0a0,0,0,0,1,0,0V0A0,0,0,0,1,0,0Z" transform="translate(5.526)"/><rect class="o" width="133.593" height="5.498" rx="2.749" transform="translate(0 31.263)"/><path class="o" d="M2.749,0h128.1a2.749,2.749,0,0,1,2.749,2.749v0A2.749,2.749,0,0,1,130.844,5.5H2.749A2.749,2.749,0,0,1,0,2.749v0A2.749,2.749,0,0,1,2.749,0Z"/></g><path class="n" d="M456.462,1514.66l14.441.618-14.441.372Z" transform="translate(-450.936 -1496.279)"/><path class="n" d="M456.462,1533.574l34.357.618-34.357.372Z" transform="translate(-450.936 -1509.425)"/></g><g transform="translate(102.666 55.215)"><g transform="translate(0 0)"><path class="p" d="M1221.7,1016.841l-13.41,159.445s-1.4,9.665,5.784,9.682c11.821.028,58.836,0,58.836,0s-8.9-2.012-8.789-6.539c.127-5.336,15.673-164.1,15.673-164.1Z" transform="translate(-1076.082 -930.076)"/><path class="q" d="M1285.528,1176.482c-2.325.007-47.23.148-58.741,0-5.017-.062-5.9-4.461-5.938-7.307a14.249,14.249,0,0,1,.152-2.373l.349-4.144.889-10.562.785-9.332,1.009-11.991.85-10.122,9.528-113.3,58.1-1.508s-6.548,66.441-11.179,114.8c-.517,5.389-1.009,10.556-1.464,15.379q-.221,2.31-.427,4.511c-.43,4.576-.822,8.778-1.164,12.488-.18,1.955-.346,3.772-.5,5.437-.591,6.522-.937,10.687-.942,11.479a6.721,6.721,0,0,0,.113,1.291C1277.9,1176.316,1284.656,1176.482,1285.528,1176.482Z" transform="translate(-1084.89 -923.482)"/><path class="r" d="M789.856,735.758l32.664,131.2,4.472,17.969,15.213,61.111h282.638l-56.073-210.284Z" transform="translate(-785.329 -735.758)"/><path class="q" d="M779.537,735.757l-4.527,1.509,50.859,213.34,6.019-4.564Z" transform="translate(-775.01 -735.757)"/><path class="p" d="M941.787,1429.9h280.9l7.757-4.564H947.806Z" transform="translate(-890.929 -1215.049)"/><rect class="r" width="60.819" height="2.89" transform="translate(210.32 255.954) rotate(180)"/><path class="r" d="M1110.12,907.293l-45.862-168.756H788.373v-2.78h279.365l45.708,171.161Z" transform="translate(-784.298 -735.757)"/><path class="p" d="M1282.921,1440.3l-.314,2.209-57.2,11.555.785-9.332.374-4.433Z" transform="translate(-1088.062 -1225.449)"/><path class="s" d="M1285.532,1524.34c-2.325.007-47.23.148-58.741,0-5.017-.062-5.9-4.461-5.938-7.307l56.927-10.71c-.591,6.522-.937,10.687-.942,11.479a6.708,6.708,0,0,0,.113,1.291C1277.9,1524.174,1284.66,1524.34,1285.532,1524.34Z" transform="translate(-1084.894 -1271.341)"/><path class="s" d="M1051.006,1243.475l-124.158,42.57-15.214-61.111Z" transform="translate(-869.971 -1075.76)"/><path class="t" d="M789.854,735.757h278.913l45.254,169H830.491Z" transform="translate(-785.328 -735.757)"/></g><path class="p" d="M1414.98,1342.911a9.558,9.558,0,0,0-8.963-7.5,6.006,6.006,0,0,0-6.046,7.5,9.557,9.557,0,0,0,8.963,7.5A6.006,6.006,0,0,0,1414.98,1342.911Z" transform="translate(-1209.292 -1152.545)"/><path class="u" d="M1127.2,918.069H866.054L836.479,800.255l-2.267-9.035-1.935-7.706-4.535-18.07h257.384l4.981,18.07,2.125,7.706,2.49,9.035Z" transform="translate(-811.661 -756.391)"/><path class="v" d="M1090.106,783.513H832.277l-4.535-18.07h257.384Z" transform="translate(-811.661 -756.391)"/><g transform="translate(26.658 14.96)"><path class="u" d="M862.5,787.074a1.707,1.707,0,0,1,1.7-2.259,3.086,3.086,0,0,1,2.822,2.259,1.707,1.707,0,0,1-1.7,2.259A3.085,3.085,0,0,1,862.5,787.074Z" transform="translate(-862.429 -784.815)"/><path class="u" d="M887.111,787.074a1.707,1.707,0,0,1,1.7-2.259,3.086,3.086,0,0,1,2.822,2.259,1.706,1.706,0,0,1-1.7,2.259A3.086,3.086,0,0,1,887.111,787.074Z" transform="translate(-879.536 -784.815)"/><path class="u" d="M913.614,787.074a1.707,1.707,0,0,1,1.7-2.259,3.086,3.086,0,0,1,2.822,2.259,1.706,1.706,0,0,1-1.7,2.259A3.086,3.086,0,0,1,913.614,787.074Z" transform="translate(-897.957 -784.815)"/></g></g><g transform="translate(162.67 189.459)"><path class="t" d="M971.78,1185.416a9.753,9.753,0,1,1,9.748,9.439A9.6,9.6,0,0,1,971.78,1185.416Z" transform="translate(-971.78 -1175.977)"/><path class="u" d="M997.005,1188.067l5.6,4.843a1.042,1.042,0,0,1-.01,1.6l-5.505,4.645a1.1,1.1,0,0,1-1.82-.792l-.1-9.487A1.1,1.1,0,0,1,997.005,1188.067Z" transform="translate(-988.041 -1184.191)"/><path class="v" d="M1262.957,1206.454a1.788,1.788,0,0,1-1.779,1.779H1062.246a1.779,1.779,0,0,1,0-3.558h198.932A1.785,1.785,0,0,1,1262.957,1206.454Z" transform="translate(-1033.422 -1195.923)"/><path class="t" d="M1084.391,1204.675v3.558h-22.146a1.779,1.779,0,0,1,0-3.558Z" transform="translate(-1033.422 -1195.923)"/></g><path class="v" d="M1191.894,947.735H1018.956L999.369,876.95l-1.5-5.426-1.279-4.629-3.006-10.856h170.448l3.3,10.856,1.408,4.629,1.651,5.426Z" transform="translate(-824.263 -764.144)"/><g transform="translate(275.987 101.019)"><path class="u" d="M1408.577,916.106h-56.86l-6.44-23.273-.494-1.784-.421-1.522-.988-3.569h56.041l1.084,3.569.463,1.522.542,1.784Z" transform="translate(-1343.375 -885.957)"/><g transform="translate(6.167 3.404)"><path class="w" d="M1395.93,942.08h-19.715l-2.233-8.07-.171-.619-.146-.528-.343-1.238h19.431l.376,1.238.161.528.188.619Z" transform="translate(-1370.357 -921.104)"/><path class="w" d="M1478.237,942.08h-19.715l-2.233-8.07-.171-.619-.146-.528-.343-1.238h19.431l.376,1.238.16.528.188.619Z" transform="translate(-1427.565 -921.104)"/><path class="v" d="M1400.144,898.147h-36.032a.515.515,0,0,1-.513-.513h0a.515.515,0,0,1,.513-.514h36.032a.515.515,0,0,1,.513.514h0A.515.515,0,0,1,1400.144,898.147Z" transform="translate(-1363.599 -897.12)"/><path class="v" d="M1404.521,907.236h-36.032a.515.515,0,0,1-.513-.513h0a.515.515,0,0,1,.513-.514h36.032a.515.515,0,0,1,.513.514h0A.515.515,0,0,1,1404.521,907.236Z" transform="translate(-1366.641 -903.437)"/></g></g><path class="v" d="M1414.468,920.148H1373.9a.58.58,0,0,1-.578-.578h0a.579.579,0,0,1,.578-.578h40.567a.58.58,0,0,1,.578.578h0A.58.58,0,0,1,1414.468,920.148Z" transform="translate(-1088.203 -807.9)"/><g transform="translate(286.612 137.411)"><path class="u" d="M1443.418,1035.446h-56.86l-6.44-23.273-.493-1.784-.421-1.522-.989-3.57h56.041l1.084,3.57.463,1.522.542,1.784Z" transform="translate(-1378.216 -1005.298)"/><g transform="translate(6.167 3.404)"><path class="w" d="M1430.772,1061.42h-19.715l-2.233-8.07-.171-.619-.146-.528-.343-1.238H1427.6l.376,1.238.16.528.188.619Z" transform="translate(-1405.198 -1040.444)"/><path class="w" d="M1513.079,1061.42h-19.715l-2.233-8.07-.171-.619-.146-.528-.343-1.238H1509.9l.376,1.238.161.528.188.619Z" transform="translate(-1462.406 -1040.444)"/><path class="v" d="M1434.985,1017.487h-36.032a.515.515,0,0,1-.514-.513h0a.515.515,0,0,1,.514-.513h36.032a.515.515,0,0,1,.513.513h0A.515.515,0,0,1,1434.985,1017.487Z" transform="translate(-1398.44 -1016.461)"/><path class="v" d="M1439.362,1026.576H1403.33a.515.515,0,0,1-.513-.513h0a.514.514,0,0,1,.513-.513h36.032a.515.515,0,0,1,.513.513h0A.515.515,0,0,1,1439.362,1026.576Z" transform="translate(-1401.482 -1022.778)"/><path class="v" d="M1442.56,1035.665h-36.032a.515.515,0,0,1-.513-.513h0a.515.515,0,0,1,.513-.513h36.032a.515.515,0,0,1,.513.513h0A.515.515,0,0,1,1442.56,1035.665Z" transform="translate(-1403.705 -1029.096)"/></g></g><g transform="translate(27.795 291.42)"><path class="j" d="M552.521,1510.333s-3.141,1.508-4.181,3.987a4.048,4.048,0,0,0-.326,1.387c-.174,3.294,0,10.748,0,10.748l-9.275-3.727-9.251,3.727v-10.1a6.447,6.447,0,0,1,2.268-4.986,4.057,4.057,0,0,1,2.563-1.033Z" transform="translate(-529.488 -1510.333)"/><path class="i" d="M553.125,1510.333s-3.141,1.508-4.181,3.987l-18.587.148a5.525,5.525,0,0,1,4.565-4.135Z" transform="translate(-530.091 -1510.333)"/></g><g transform="translate(482.97 232.569)"><g transform="translate(0 0)"><path class="f" d="M0,0H106.986a24.53,24.53,0,0,1,24.53,24.53v0a23.034,23.034,0,0,1-23.034,23.034H0a0,0,0,0,1,0,0V0A0,0,0,0,1,0,0Z" transform="translate(131.515 47.564) rotate(180)"/><path class="m" d="M0,0H123.13a24.049,24.049,0,0,1,24.049,24.049v0a23.515,23.515,0,0,1-23.515,23.515H0a0,0,0,0,1,0,0V0A0,0,0,0,1,0,0Z" transform="translate(256.948 47.564) rotate(-180)"/><rect class="f" width="165.066" height="7.114" rx="3.557" transform="translate(263.775 47.564) rotate(-180)"/><rect class="f" width="165.066" height="7.114" rx="3.557" transform="translate(263.775 7.114) rotate(-180)"/><path class="n" d="M2824.05,1395.331l-17.844.8,17.844.481Z" transform="translate(-2567.102 -1371.549)"/><path class="n" d="M2767.963,1359.435l-42.451.8,42.451.481Z" transform="translate(-2511.015 -1346.6)"/></g><g transform="translate(214.934 13.476)"><path class="f" d="M2726.945,1361.536a8.915,8.915,0,0,1,3.729,3.987,4.471,4.471,0,0,1,.291,1.387c.155,3.294,0,10.748,0,10.748l8.272-3.727,8.25,3.727v-10.1a6.8,6.8,0,0,0-2.022-4.985,3.419,3.419,0,0,0-2.285-1.034Z" transform="translate(-2726.945 -1361.536)"/><path class="x" d="M2726.945,1361.536a8.915,8.915,0,0,1,3.729,3.987l16.576.148s-.651-3.55-4.071-4.135Z" transform="translate(-2726.945 -1361.536)"/></g></g><g transform="translate(429.39 91.894)"><path class="y" d="M1922.989,1143.028s-5.908,3.359-7.561,3.359-8.146-1.255-9.956-.33-5.085,4.645-5.7,5.861c-1.1,2.185,4.449,1.22,7.075-.642a1.656,1.656,0,0,1,1.312-.271c1.359.3,4.184.81,5.548.3,1.834-.679,11.495-1.433,11.495-1.433Z" transform="translate(-1883.404 -1055.51)"/><path class="z" d="M1896.89,1533.38s-.636,10.26-2.621,10.407c-.264.02-10.066.02-10.066.02l-12.514-.073s.082-3.015,3.74-3.653,9.78-3.208,12-8.043C1889.755,1526.952,1896.89,1533.38,1896.89,1533.38Z" transform="translate(-1863.983 -1324.531)"/><path class="i" d="M2006.936,979.14s-6.124,43.528-16.265,47.427c-5,1.924-27.118,6.284-33.66,6.723,0,0-1.6-1.3-1.212-6.592,0,0,23.169-8.505,26.461-13.132,4.9-6.885-3.041-28.125,3.106-34.591S2001.865,969.729,2006.936,979.14Z" transform="translate(-1922.402 -937.375)"/><path class="aa" d="M1976.442,1235.46a76.262,76.262,0,0,1-5.982,8.559c-6.582,8.31-13.747,15.161-15,21.637a29.278,29.278,0,0,1-1.157,4.145c-.521,1.484-1.166,3.044-1.909,4.656a143.407,143.407,0,0,1-11.141,19.046c-7.209,10.683-13.989,19.6-13.989,19.6l-12.433-.53c.5-1.246,5.921-16,13.175-34.023,2.945-7.318,6.078-15.1,9.1-22.608q.6-1.5,1.2-2.99c.924-2.3,1.833-4.558,2.721-6.76,6.811-16.926,12.236-30.4,12.236-30.4s27.223-10.312,30.051-3.63C1985.652,1217.664,1983.754,1223.062,1976.442,1235.46Z" transform="translate(-1893.973 -1101.991)"/><path class="z" d="M2033.9,1444.792s8.648,5.557,7.809,7.361c-.112.24-4.891,8.8-4.891,8.8l-6.164,10.891s-2.592-1.542-1.366-5.046,1.967-10.1-1.174-14.4C2024.81,1447.887,2033.9,1444.792,2033.9,1444.792Z" transform="translate(-1972.206 -1265.252)"/><path class="ab" d="M1930.78,1294.247s5.4-4.766,6.358-8.263c0,0-22.27-26.682-27.1-32.663-.222-.274-.165-.576.127-.906,3.647-4.112,44.166-12.472,49.462-20.711a25.541,25.541,0,0,0,3.422-7.889,18.647,18.647,0,0,0,.251-8.5l-40.466-1.17s-33.693,20.979-37.509,35.283S1930.78,1294.247,1930.78,1294.247Z" transform="translate(-1873.315 -1104.94)"/><path class="ac" d="M1967.261,1256.618c3.647-4.112,44.166-12.472,49.462-20.711a25.543,25.543,0,0,0,3.422-7.889V1222.9l-17.2-2.705s-4.878,15.008-19.323,20.636C1970.094,1246.1,1967.531,1255.453,1967.261,1256.618Z" transform="translate(-1930.411 -1109.143)"/><path class="y" d="M2045.115,940.946c8.187,2.116,21.758-5.469,21.758-5.469a20.091,20.091,0,0,1-7.222-11.321c-.1-.392-.188-.794-.269-1.206l-4.2-.891-6.252,5.6a53.653,53.653,0,0,0,.925,6.324q.2,1.047.47,2.244A19.293,19.293,0,0,0,2045.115,940.946Z" transform="translate(-1984.524 -901.924)"/><path class="j" d="M2048.93,998.078c-1.172,15.771.37,39.757-.96,43.911-1.148,3.584-14.229,1.453-19.45.256-1.932-.442-4.273-1.075-6.691-1.823-6.743-2.088-14.09-5.07-14.88-7.283a1.868,1.868,0,0,1-.073-.255,2.026,2.026,0,0,1,.014-.928c.263-1.128,1.276-2.349,1.394-5.142.134-3.119.113-6.792.231-10.742.006-.445.012-.93.061-1.373l0-.162c0-.085,0-.168.007-.253.113-4.4.343-9.036.61-13.628.17-2.884.366-5.741.592-8.477a113.474,113.474,0,0,1,2.43-17.32,27.811,27.811,0,0,1,8.935-13.792l2.488-2.135a14.389,14.389,0,0,0,9.03-1.2c3.214-1.526,4.324-2.62,4.884-2.207C2044.976,961.25,2050.315,978.8,2048.93,998.078Z" transform="translate(-1957.914 -925.123)"/><path class="i" d="M2021.937,1095.392c-6.744-2.088-14.091-5.07-14.88-7.283a1.911,1.911,0,0,1-.073-.255c0-.309.008-.619.014-.928.263-1.128,1.276-2.349,1.395-5.142.133-3.119.114-6.792.231-10.742.006-.445.012-.93.061-1.372l0-.162c0-.085,0-.168.006-.253l27.261-34.731S2054.279,1072.683,2021.937,1095.392Z" transform="translate(-1958.022 -980.094)"/><path class="ad" d="M2057.61,927.66a53.677,53.677,0,0,0,.925,6.324c6.106-1.973,8.875-7.489,9.8-9.828-.1-.392-.188-.794-.268-1.206l-4.2-.891Z" transform="translate(-1993.209 -901.924)"/><path class="y" d="M2038.094,898.018s13.316-2.222,11.8-10.493-.811-14.128-9.377-13.059-9.636,4.526-9.8,7.41S2034.591,898.383,2038.094,898.018Z" transform="translate(-1974.514 -868.758)"/><g transform="translate(0 69.283)"><rect class="ae" width="1.234" height="32.33" transform="translate(0 0.381) rotate(-18.001)"/><rect class="ae" width="33.927" height="2.03" transform="translate(9.948 29.1) rotate(-1.224)"/></g><path class="y" d="M1934.33,1174.188s-10.9,2.874-14.985,2.572-7.486-2.246-8-3.26-1.595-2.814,1.188-2.482,6.581.924,6.7.389-2.269-.484-2.269-.484-.721-1.049.187-1.087,3.557-.757,4.541-.265,1.892,2.308,2.611,2.233,9.12-3.784,9.12-3.784Z" transform="translate(-1891.1 -1072.881)"/><path class="j" d="M2010.873,987.3s-1.288,43.938-10.938,48.931c-4.761,2.463-26.26,9.236-32.713,10.392,0,0-1.736-1.115-1.931-6.418,0,0,22.09-11.009,24.851-15.969,4.11-7.383-6.123-27.619-.727-34.723S2004.8,978.5,2010.873,987.3Z" transform="translate(-1929.042 -943.745)"/><path class="af" d="M2038.254,878.265a6.3,6.3,0,0,0-1.6-4.464s.61-2.845-.516-3.314-1.36,1.923-1.876,1.548a11.5,11.5,0,0,1-3.8-4.784c-.985-2.627-10,.554-11.049,1.028s-4.428-1.262-5.084-2.67a19.734,19.734,0,0,0,2.72-2.626c.844-1.126,6.753-8.723,15.008-6.566s9.38,6.1,8.911,9.474S2041.635,877.132,2038.254,878.265Z" transform="translate(-1963.129 -856.034)"/></g><g transform="translate(547.008 107.096)"><g transform="translate(0 0)"><path class="ag" d="M2368.128,1048.513s4.226,6.255,6.637,19.4c2.111,11.516,3.963,15.767,7.012,18.129s20.037,9.334,20.037,9.334l-1.27,2.976s-24.9-3.391-27.7-7.553-13.46-28.749-12.632-34.411S2368.128,1048.513,2368.128,1048.513Z" transform="translate(-2321.122 -1005.02)"/><g transform="translate(106.639 163.645)"><path class="e" d="M2583.158,1459.728c-.224,2.428,3.156,3.019,7.072,3.214s2.732,1,8.1,1.969,7.516-.5,7.9-1.222c.346-.643-2.149-1.649-4.807-2.786-.335-.142-.67-.288-1.005-.435-2.992-1.316-4.671-4-7-6.488-2.21-2.357-4.308-9.9-4.308-9.9l-7.292-1.557s2.047,6.791,2.758,9.69a8.98,8.98,0,0,1-.747,5.063A9.54,9.54,0,0,0,2583.158,1459.728Z" transform="translate(-2581.817 -1442.521)"/><path class="ah" d="M2593.263,1496.569c3.915.2,2.732,1,8.1,1.969s7.516-.5,7.9-1.222c.346-.643-2.149-1.649-4.808-2.786l-.041.045a15.283,15.283,0,0,1-8.128.1c-3.55-.964-6.982-3.085-9.427-3.771a9.555,9.555,0,0,0-.671,2.454C2585.967,1495.784,2589.347,1496.374,2593.263,1496.569Z" transform="translate(-2584.85 -1476.148)"/></g><path class="z" d="M2326.419,1202.934s48.456-3.647,57.578,2.11,23.753,72.818,23.753,72.818a5.953,5.953,0,0,1-2.92.942c-1.876.2-6.007-.9-6.007-.9s-21.026-30.005-22.507-37.564-1.12-14.3-4.492-14.485-45.413,5.111-51.771-6.092-1.1-22.292-1.1-22.292Z" transform="translate(-2291.054 -1108.554)"/><g transform="translate(88.097 171.427)"><path class="e" d="M2522.355,1485.249c-.224,2.429,3.157,3.019,7.072,3.214s2.733,1,8.1,1.969,7.517-.5,7.905-1.222c.346-.643-2.148-1.649-4.808-2.786-.334-.142-.669-.289-1-.435-2.992-1.316-4.671-4-7-6.488-2.21-2.356-4.308-9.9-4.308-9.9l-7.292-1.557s2.048,6.792,2.759,9.691a8.979,8.979,0,0,1-.747,5.063A9.571,9.571,0,0,0,2522.355,1485.249Z" transform="translate(-2521.014 -1468.042)"/><path class="ah" d="M2532.46,1522.091c3.916.195,2.732,1,8.1,1.969s7.517-.5,7.9-1.222c.346-.643-2.148-1.649-4.808-2.786l-.041.045a15.283,15.283,0,0,1-8.128.1c-3.55-.964-6.982-3.085-9.427-3.771a9.563,9.563,0,0,0-.671,2.453C2525.164,1521.306,2528.545,1521.9,2532.46,1522.091Z" transform="translate(-2524.047 -1501.67)"/></g><path class="ai" d="M2285.739,1225.232s43.045,2.037,51.937,8.146,20.9,73.687,20.9,73.687a5.948,5.948,0,0,1-2.954.828c-1.882.13-5.967-1.133-5.967-1.133s-19.842-30.8-21.028-38.412-.562-14.337-3.925-14.648-45.577,3.339-51.5-8.1S2285.739,1225.232,2285.739,1225.232Z" transform="translate(-2259.865 -1127.849)"/><path class="f" d="M2273.334,908.548a11.164,11.164,0,0,0-5.952-1.555,2.823,2.823,0,0,1,1.311-.519,9.362,9.362,0,0,0-3.393.648c-13.986-6.488-17.651,14.5-17.677,19.428s-.368,10.585-7.828,14.511c-14.677,7.725-3.789,23.646-3.789,23.646.106.073,9.781,12.884,9.781,12.884-.1-3.992,15.652-25.155,25.623-30.789,2.553-3.268,3.783-9.261,3.876-9.733-.721,4.768-1.721,7.4-2.554,8.869C2281.317,939.032,2278.4,911.889,2273.334,908.548Z" transform="translate(-2232.121 -905.888)"/><path class="e" d="M2310.889,1024.5a48.457,48.457,0,0,1,8.017,0,25.771,25.771,0,0,1,6.958,1.745c3.793,1.586,3.4,8.3-4.565,7.059S2310.331,1026.493,2310.889,1024.5Z" transform="translate(-2286.823 -988.213)"/><path class="e" d="M2326.521,1006.929c.047.025,1.135,5.778-4.077,5.548-3.422-.151-10.8-4.292-10.149-7.221.309-1.393,2.895-5.006,3.415-13.253l.623.167,10.473,2.809s-.465,3.324-.682,6.47C2325.941,1004.09,2325.935,1006.607,2326.521,1006.929Z" transform="translate(-2287.818 -965.743)"/><path class="ag" d="M2336.1,995.358s-.464,3.324-.681,6.47c-5.928-.563-8.706-6.191-9.792-9.279Z" transform="translate(-2297.115 -966.122)"/><path class="f" d="M2314.808,939.7s-2.784-5.125-3.251-9.38c-.333-3.038,1.938-14.063,13.013-11.715a15.229,15.229,0,0,1,6.142,2.8c2.318,1.8,5.586,5.576,1.021,15.025l-1.237,3.212Z" transform="translate(-2287.312 -914.498)"/><path class="e" d="M2335.033,956.991s-14.067-.705-13.493-9.459-.856-14.74,8.151-14.66,10.53,3.535,11.049,6.5S2338.707,956.949,2335.033,956.991Z" transform="translate(-2294.26 -924.643)"/><path class="f" d="M2326.037,928.952s-4.531,10.012-10.537,11.137-8.461-.628-8.461-.628a16.755,16.755,0,0,0,6.127-9.514S2323.46,923.871,2326.037,928.952Z" transform="translate(-2284.192 -920.51)"/><path class="f" d="M2366.031,932.645s2.72,2.485,3.272,4.76.561,6.885,1.909,6.818c0,0,3.364-6.787.37-10.952C2368.406,928.854,2366.031,932.645,2366.031,932.645Z" transform="translate(-2325.195 -923.433)"/><path class="ai" d="M2310.15,1083.713c-1.138,1.361-4.692,1.779-8.491,2.4-2.989.493-6.13,1.112-8.363,2.424-5.071,2.977-21.639,13.04-26.495,12.582-1.883-.177-1.53-3.771-.39-8.54,1.8-7.531,5.553-17.989,5.553-22.536a132,132,0,0,1,1.928-15.069q.134-.812.272-1.638c2.181-13.055,5.2-28.449,5.2-28.449s3.369,7.351,9.935,7.351,5.039-5.606,5.039-5.606,5.99.7,7.405,2.229,5,8.113,5.718,9.911c0,0,.145,2.287-5.517,3.375a74.306,74.306,0,0,1,1.542,10.345c.121,3.057-2.086,12.624-2.721,18.574a10.99,10.99,0,0,0,.088,4.512c.437.961,1.854,1.918,3.467,2.858C2307.524,1080.3,2311.5,1082.095,2310.15,1083.713Z" transform="translate(-2255.302 -988.602)"/><path class="z" d="M2304.323,1134.222c3.634,6.2-9.855,8.058-12.088,9.37-5.071,2.977-20.578,13.772-25.433,13.314-1.883-.177-1.53-3.771-.39-8.54,1.8-7.531,5.553-17.989,5.553-22.536a132,132,0,0,1,1.928-15.069l5.845-5.613s6.263,16.188,12.233,18.841a50.24,50.24,0,0,0,8.8,2.864,10.989,10.989,0,0,0,.088,4.512C2301.294,1132.325,2302.711,1133.283,2304.323,1134.222Z" transform="translate(-2255.302 -1044.384)"/><g transform="translate(56.359 75.923)"><rect class="h" width="13.556" height="1.602" transform="translate(0 18.508)"/><path class="h" d="M2451.951,1174.75c.133-.53,12.462-19.891,12.462-19.891h27.433l-13.76,19.371Z" transform="translate(-2441.274 -1154.859)"/><path class="f" d="M2455.736,1174.969c.132-.53,12.5-20.11,12.5-20.11h26.24l-13.091,20.11Z" transform="translate(-2443.904 -1154.859)"/><path class="h" d="M2524.927,1184.808a2.192,2.192,0,0,1-1.91,1.42.979.979,0,0,1-.932-1.42,2.192,2.192,0,0,1,1.91-1.421A.979.979,0,0,1,2524.927,1184.808Z" transform="translate(-2489.964 -1174.688)"/></g><path class="e" d="M2317.569,1085.37c-.77-.33-6.711.751-8.408,1.07-5.381-1.054-23.072-4.589-23.932-5.7-1.016-1.307-3.234-41.123-5.775-41.787,0,0-5-3.034-9.83,2.723s3.434,46.913,10.594,49.027c7.953,2.349,30.927-.376,30.927-.376h0c1.887.644,5.186,1.007,6.938,1.591,2.312.77,4.367.128,4.881-.771S2318.468,1085.755,2317.569,1085.37Z" transform="translate(-2257.185 -997.822)"/><path class="ai" d="M2272.071,1024.887s-10.263.926-13.244,4.3-3.852,12.523-3.852,12.523,9.039,7.3,19.928,4.465Z" transform="translate(-2248.005 -988.598)"/></g></g><g transform="translate(169.319 91.895)"><g class="aj" transform="translate(0 0)"><g transform="translate(47.25 5.468)"><path class="e" d="M1344.31,956.31s.958-3.8,2.558-4,4-1.213,4.509.063-3.821,7.873-5.543,6.244S1344.31,956.31,1344.31,956.31Z" transform="translate(-1284.602 -928.026)"/><path class="z" d="M1270.961,1378.823a12.924,12.924,0,0,1,2.463,4.4.7.7,0,0,1-.693.953h-7.841a1.6,1.6,0,0,1-1.521-1.45c-.019-1.436.181-3.605,1.394-4.922C1266.7,1375.7,1270.961,1378.823,1270.961,1378.823Z" transform="translate(-1228.348 -1223.653)"/><path class="z" d="M1327.119,1370.65s2.4,7.27,3.833,7.374c.191.014,7.137.014,7.137.014h8.96a4.357,4.357,0,0,0-3.45-2.639c-2.713-.452-7.54-2.273-10.027-5.7C1330.954,1366.094,1327.119,1370.65,1327.119,1370.65Z" transform="translate(-1272.658 -1217.563)"/><g transform="translate(22.963 69.861)"><path class="ak" d="M1239.541,1141.378c1.4,4.038,2.29,7.226,2.281,8.738-.038,6.761,13.324,37.29,13.324,37.29,4.31,1.828,9.24-.019,9.24-.019-1.463-4.229-9.6-42.087-13.913-65.182-1.815-9.7-3.045-16.48-3.045-16.48l-23.6-2.665S1234.7,1127.352,1239.541,1141.378Z" transform="translate(-1223.83 -1103.06)"/><path class="ak" d="M1223.83,1103.06s10.869,24.292,15.711,38.318l10.932-19.173c-1.815-9.7-3.045-16.48-3.045-16.48Z" transform="translate(-1223.83 -1103.06)"/></g><path class="ak" d="M1218.3,1113s6.49,67.451,8,80.512a15.033,15.033,0,0,1-8.947-.665s-8.971-31.344-9.985-40.785-11.159-38.631-9.442-41.346S1218.3,1113,1218.3,1113Z" transform="translate(-1182.726 -1037.959)"/><path class="e" d="M1189.187,930.359s2.495,5.994,2.586,7.785-5.6,2.764-8.492,1.285-2.43-2.8-2.43-2.8-1.314-6.093-1.1-6.583S1189.187,930.359,1189.187,930.359Z" transform="translate(-1170.215 -912.837)"/><path class="al" d="M1218.844,955.763s-10.2,12.676-10.618,14.309c-5.854-6.822-14.859-15.378-15.269-15.711a12.219,12.219,0,0,0-5.317-1.852,45.959,45.959,0,0,0-6.453-.537c-.1-.011-.147-.012-.145,0,.271,1.011-.829,2.883-3.245,3.052-2.867.186-6.907-1.366-7.359-3.052-.023-.085-6.721.337-5.544,12.847a5.119,5.119,0,0,0,.06.54,71.744,71.744,0,0,0,4.468,16.926c.966,2.6,4.156,21.866,5.105,21.883a16.217,16.217,0,0,0,2.647.944c.949.27,2.194.574,3.72.86a76.269,76.269,0,0,0,13.979,1.146c11.245,0,14.1-3.2,14.1-3.2.6,0-6.254-15.5-9.845-28.815,3.732,2.176,7.7,4.251,8.119,4.507a9.876,9.876,0,0,0,4.125,1.676l.006,0a.953.953,0,0,0,.125,0,1.782,1.782,0,0,0,1.213-.363,8.278,8.278,0,0,0,3.176-3.585c1.546-2.846,3.381-8.6,4.959-12.445.873-2.125,1.546-4.449,2.437-6.367C1223.285,958.523,1221.111,956.2,1218.844,955.763Z" transform="translate(-1159.807 -928.177)"/><path class="am" d="M1182.736,1016.512c2.245,9.323-2.027,15.274-5.108,18.123a16.2,16.2,0,0,1-2.647-.944c-.949-.017-4.139-19.286-5.105-21.883a71.733,71.733,0,0,1-4.468-16.926c.244-.287.388-.439.388-.439S1179.4,1002.687,1182.736,1016.512Z" transform="translate(-1160.261 -957.705)"/><path class="an" d="M1189.592,933.645s-1.438,3.256-3.872,3.285-5.8-3.234-5.8-3.234Z" transform="translate(-1170.345 -915.447)"/><path class="e" d="M1180.675,903.526a11.158,11.158,0,0,1-2.793,1.658,3.929,3.929,0,0,1-2.753.059c-1.472-.465-3.708-1.191-4.308-1.5-1.422-.742-1.745-2.243-2.367-4.329a36.259,36.259,0,0,1-1.612-5.834c-.128-1.7.692-2.672,3.645-2.935,5.421-.482,8.106.908,8.7,2.769.159.5.31.976.447,1.427C1181.412,900.641,1181.5,902.7,1180.675,903.526Z" transform="translate(-1161.248 -885.49)"/><path class="ak" d="M1174.619,882.575a2.942,2.942,0,0,0-2.835-.815c-1.567.526-1.351,1.985-4.333,1.752s-4.053-1.615-4.393-.924.449,4.772.449,4.772-9.456-13.384,2.441-13.384c0,0,12.062-.74,9.814,12.863Z" transform="translate(-1156.463 -873.97)"/><path class="e" d="M1290.06,943.756l-.013.009C1290.062,943.772,1290.06,943.756,1290.06,943.756Z" transform="translate(-1246.891 -922.475)"/><path class="ao" d="M1294.314,880.211c.04-.223.072-.367.072-.367A.935.935,0,0,0,1294.314,880.211Z" transform="translate(-1249.857 -878.052)"/><g transform="translate(61.434 11.753)"><path class="ak" d="M1351.935,943.8l-1.948-.294,5.469-31h0Z" transform="translate(-1349.986 -912.51)"/></g><path class="e" d="M1347.383,957.485s1.8,1.785,2.1.808,2.583-2.1,2.751-2.559-2.627-.658-3.035-.67S1347.092,956.858,1347.383,957.485Z" transform="translate(-1286.719 -930.335)"/><path class="ai" d="M1196.823,960.06a18.65,18.65,0,0,1,5.121-.185s.213,2.59-.527,2.8a9.244,9.244,0,0,1-2.624,0C1198.467,962.639,1196.823,960.06,1196.823,960.06Z" transform="translate(-1182.095 -933.601)"/><path class="ai" d="M1203.282,969.308s8.671,36.423,10.978,38.741a13.889,13.889,0,0,0,4.12,3.044s1.821-2.2,1.789-3.254-14.263-38.53-14.263-38.53Z" transform="translate(-1186.584 -940.235)"/><path class="e" d="M1242.149,1078.553s5.9,1.91,7.671,1.98,3.861-2.961,3.167-3.854c-.2-.258-2.774.928-3.508.526-1.113-.609-2.539-.144-3.433-.039s-4.322-1.822-4.322-1.822Z" transform="translate(-1213.304 -1013.935)"/><path class="al" d="M1179.439,989.576a132.356,132.356,0,0,0-18.417-11.185c.585-5.006.323-12.966-1.862-26.425,0,0-9.3,1.031-10.292,4.282-1.433,4.685,1.939,17.725,4.735,28.157,0,0,.039.024.107.064a3.554,3.554,0,0,0,.895,1.025c3.957,3.18,24.917,9.285,24.917,9.285C1181.042,992.572,1179.439,989.576,1179.439,989.576Z" transform="translate(-1148.527 -928.181)"/><g transform="translate(18.051 56.262)"><path class="m" d="M1226.961,1067.694l-15.725-4.678-.5,2.252,16.842,4.74Z" transform="translate(-1209.819 -1061.629)"/><path class="n" d="M1271.886,1058.467l-7.952,6.065.62,2.315,9.153-6.244Z" transform="translate(-1246.792 -1058.467)"/><g transform="translate(0 3.108)"><path class="ak" d="M1225.661,1074.6l-17.941-5.473.059-.465,17.7,5.272Z" transform="translate(-1207.719 -1068.659)"/></g><g transform="translate(17.763 1.57)"><path class="ak" d="M1266.146,1071.091l10.157-7.056-.413-.42-9.923,6.81Z" transform="translate(-1265.968 -1063.615)"/></g></g><path class="ai" d="M1185.294,951.612s-4.112-4.269-4.447-3.988-.759,1.224-.56,1.49,5.507,3.261,5.507,3.261Z" transform="translate(-1170.566 -925.154)"/><path class="ai" d="M1212.848,950.794a34.6,34.6,0,0,1,.96-4.089c.136.163,1.462,1.338,1.51,1.633s-1.654,2.694-2.448,2.878S1212.848,950.794,1212.848,950.794Z" transform="translate(-1193 -924.521)"/></g><g transform="translate(886.37 6.807)"><path class="e" d="M4134.938,973.295s2.277-4.376,4.184-4.607,4.992-1.4,5.179.072-6.838,9.077-8.32,7.2S4134.938,973.295,4134.938,973.295Z" transform="translate(-4063.318 -940.684)"/><path class="al" d="M3994.185,968.32s3.037,12.26,7.518,21.424c1.256,2.57,13.416,9.9,14.15,10.434,7.657,5.562,7.5-2.608,7.5-2.608.432-5.392-15.643-25.937-16.179-26.494-1.038-1.081-3.248-1.737-5.557-2.135A50.025,50.025,0,0,0,3994.185,968.32Z" transform="translate(-3965.529 -940.887)"/><path class="z" d="M3919.109,1460.431a11.082,11.082,0,0,1,1.482,5.068,1.091,1.091,0,0,1-1.093,1.1h-9.04a1.345,1.345,0,0,1-1.306-1.672,11.149,11.149,0,0,1,3.127-5.674C3915.161,1456.83,3919.109,1460.431,3919.109,1460.431Z" transform="translate(-3906.398 -1281.529)"/><path class="z" d="M3988.8,1451.009s.52,8.382,2.141,8.5c.215.016,8.224.016,8.224.016H4009.5a3.532,3.532,0,0,0-3.162-3.043c-2.989-.521-7.99-2.621-9.8-6.571C3994.632,1445.757,3988.8,1451.009,3988.8,1451.009Z" transform="translate(-3961.789 -1274.507)"/><g transform="translate(16.411 80.546)"><path class="ap" d="M3960.306,1186.668c.361,4.656.408,8.332-.069,10.074-2.132,7.8,3.842,42.994,3.842,42.994,4.4,2.107,10.66-.022,10.66-.022-.38-4.876,1.938-48.524,4.095-75.152.9-11.179,1.581-19,1.581-19l-26.385-3.072S3959.057,1170.5,3960.306,1186.668Z" transform="translate(-3954.03 -1142.49)"/><path class="ap" d="M3954.03,1142.49s5.027,28.007,6.276,44.178l18.528-22.106c.9-11.179,1.581-19,1.581-19Z" transform="translate(-3954.03 -1142.49)"/></g><path class="q" d="M3937.473,1153.951s-13.356,77.768-15.654,92.827a16.87,16.87,0,0,1-10.11-.767s-.661-36.138,1.088-47.024-.932-44.539,1.886-47.67S3937.473,1153.951,3937.473,1153.951Z" transform="translate(-3908.119 -1067.432)"/><path class="e" d="M3965.308,943.373s1.025,6.912.576,8.976-7.316,3.186-10.188,1.481-1.936-3.226-1.936-3.226.366-7.025.77-7.59S3965.308,943.373,3965.308,943.373Z" transform="translate(-3937.33 -923.171)"/><path class="al" d="M3955.773,1028.175s-4.277,3.693-17.241,3.693a81.96,81.96,0,0,1-15.764-1.322,40.626,40.626,0,0,1-4.024-.991,14.214,14.214,0,0,1-2.76-1.089c-1.089-.019,1.186-22.237.875-25.23a75.161,75.161,0,0,1,.078-19.515,5.718,5.718,0,0,1,.1-.622c2.507-14.423,10.36-14.909,10.36-14.812,0,1.944,4.179,3.733,7.542,3.518,2.838-.195,4.684-2.352,4.684-3.518,0-.039.953.117,2.353.35,7.172,1.245,11.351,11.9,11.351,26.125C3953.323,1010.156,3956.472,1028.175,3955.773,1028.175Z" transform="translate(-3910.969 -940.858)"/><path class="am" d="M3930.231,1042.7c-.292,10.749-7.056,17.611-11.488,20.9a14.234,14.234,0,0,1-2.76-1.089c-1.089-.019,1.186-22.237.875-25.23a75.161,75.161,0,0,1,.078-19.515c.369-.331.583-.506.583-.506S3930.659,1026.766,3930.231,1042.7Z" transform="translate(-3910.969 -974.903)"/><path class="an" d="M3966.859,947.162s-2.664,3.754-5.479,3.788-5.69-3.729-5.69-3.729Z" transform="translate(-3938.772 -926.181)"/><path class="e" d="M3963.483,912.437a18.069,18.069,0,0,1-3.733,1.911,4.612,4.612,0,0,1-3.192.068,42.161,42.161,0,0,1-4.5-1.733c-1.41-.855-1.32-2.585-1.393-4.991-.086-2.848-.373-5.084-.056-6.725.378-1.964,1.623-3.081,5.109-3.385,6.4-.556,9.065,1.047,9.176,3.192.029.576.056,1.125.075,1.646C3965.224,909.111,3964.694,911.483,3963.483,912.437Z" transform="translate(-3935.139 -891.643)"/><path class="ak" d="M3961.538,888.282a2.688,2.688,0,0,0-3.017-.939c-1.97.606-2.172,2.289-5.538,2.02s-4.173-1.862-4.778-1.066-.957,5.5-.957,5.5-6.767-15.43,6.949-15.43c0,0,14.135-.854,7.341,14.831Z" transform="translate(-3931.745 -878.36)"/><path class="al" d="M3916.645,968.286s-11.039,1.189-13.189,4.936c-3.1,5.4-3.24,20.436-3.24,32.463,0,0,4.689,3.56,7.9-1.7C3911.15,999,3914.388,989.65,3916.645,968.286Z" transform="translate(-3900.216 -940.863)"/><path class="e" d="M4079.6,958.82l-.019.01C4079.6,958.838,4079.6,958.82,4079.6,958.82Z" transform="translate(-4024.883 -934.284)"/><path class="ao" d="M4103.881,885.554c.115-.257.2-.424.2-.424A1.387,1.387,0,0,0,4103.881,885.554Z" transform="translate(-4041.773 -883.065)"/><g transform="translate(73.159 10.564)"><path class="ak" d="M4142.041,949.166l-1.917-.323L4146.755,913l.662.111Z" transform="translate(-4140.124 -913.001)"/></g><path class="e" d="M4138.808,975.511s2.607.781,2.668-.371,2.37-3.57,2.429-4.124-3.231.818-3.707,1.037S4138.287,975.043,4138.808,975.511Z" transform="translate(-4065.971 -942.669)"/><path class="al" d="M4094.991,985.839s-1.787-2.682-4.268-3.183a121.8,121.8,0,0,1-11.8,10.756,17.386,17.386,0,0,0-6.562,10.611c-1.246,6.244,1.868,8.055,1.868,8.055s2.48.311,6.424-4.549c2.661-3.281,6.556-9.921,9.562-14.349C4091.877,990.73,4093.371,988.05,4094.991,985.839Z" transform="translate(-4019.661 -950.851)"/><path class="ai" d="M3966.862,977.618a22.453,22.453,0,0,1,5.962-.214s-.554,2.986-1.473,3.229a10.622,10.622,0,0,1-3.025,0C3967.961,980.592,3966.862,977.618,3966.862,977.618Z" transform="translate(-3946.539 -947.113)"/><path class="ai" d="M3970.75,988.28s-1.254,41.994.689,44.666a10.932,10.932,0,0,0,3.809,3.509s2.779-2.537,3.069-3.752-4.542-44.423-4.542-44.423Z" transform="translate(-3948.964 -954.76)"/><path class="e" d="M3981.579,1114.235s6.209,2.2,8.233,2.283,5.366-3.413,4.843-4.443c-.152-.3-3.485,1.07-4.207.606-1.095-.7-2.883-.167-3.946-.045s-4.421-2.1-4.421-2.1Z" transform="translate(-3956.767 -1039.734)"/><path class="al" d="M3909.916,1066.821s7.577,3.761,18.49,13.273a6.745,6.745,0,0,1-1.512,6s-22.279-7.039-25.859-10.705S3906.574,1066.114,3909.916,1066.821Z" transform="translate(-3900.215 -1009.308)"/><g transform="translate(13.844 64.867)"><path class="m" d="M3966.982,1101.715l-16.685-5.394-1.268,2.6,17.953,5.466Z" transform="translate(-3947.987 -1094.722)"/><path class="n" d="M4018.942,1091.076l-11.042,6.993v2.668l12.482-7.2Z" transform="translate(-3988.906 -1091.076)"/><g transform="translate(0 3.584)"><path class="ak" d="M3964.608,1109.675l-18.995-6.311.212-.536,18.783,6.078Z" transform="translate(-3945.613 -1102.828)"/></g><g transform="translate(18.994 1.81)"><path class="ak" d="M4007.9,1105.632l13.891-8.135-.346-.485-13.545,7.852Z" transform="translate(-4007.9 -1097.012)"/></g></g><path class="ai" d="M3955.422,967.878s-3.422-4.923-3.9-4.6-1.253,1.411-1.106,1.717,5.343,3.76,5.343,3.76Z" transform="translate(-3935.098 -937.373)"/><path class="ai" d="M3985.246,966.934a51.424,51.424,0,0,1,2.371-4.715c.106.189,1.271,1.542,1.236,1.883s-2.74,3.107-3.711,3.318S3985.246,966.934,3985.246,966.934Z" transform="translate(-3958.961 -936.643)"/></g></g></g></g><g transform="translate(1348.413 1480.921)"><path class="d" d="M1859.952,397.2s1.329,15.858-2.283,15.617-10.746-7.221-25.141-6.086-32.007,4.285-42.654-14.555,13.616-24.262,13.616-24.262l56.462,29.286Z" transform="translate(-1762.259 -339.242)"/><path class="af" d="M1763.818,320.615l72.535,5.965,1.508-3.227-69.54-51.332-70.245-8.206-1.349,2.887,67.093,53.913Z" transform="translate(-1696.725 -263.815)"/><g transform="translate(109.002 109.387)"><path class="j" d="M2104.987,662.967a2.812,2.812,0,1,0-1.93,3.478,2.814,2.814,0,0,0,1.93-3.478Z" transform="translate(-2097.533 -660.928)"/><path class="j" d="M2097.473,671.161c2.91-.226,3.589,26.245,3.589,26.245a6.446,6.446,0,0,1-2.829.682c-.932-.21-1.409-3.785-1.409-3.785l-.09,3.748s-3.191.111-4.3-.666c0,0,.433-25.867,5.035-26.225Z" transform="translate(-2092.438 -668.341)"/></g><path class="j" d="M2008.555,446.748l-.526-57.834-.375-.28-37.888-28.027-1.36,1.842,37.51,27.747.847,56.452Z" transform="translate(-1893.57 -333.944)"/></g></g></svg>