<svg xmlns="http://www.w3.org/2000/svg" xmlns:xlink="http://www.w3.org/1999/xlink" width="18" height="18" viewBox="0 0 18 18"><defs><style>.a{fill:#808191;}.b{clip-path:url(#a);}</style><clipPath id="a"><rect class="a" width="18" height="18" transform="translate(456 455)"/></clipPath></defs><g class="b" transform="translate(-456 -455)"><g transform="translate(456 455)"><path class="a" d="M17.326,4.421,9,12.753.664,4.421a.391.391,0,0,0-.553.553l8.608,8.608a.391.391,0,0,0,.553,0l8.608-8.608a.391.391,0,1,0-.544-.563l-.01.01Z"/><path class="a" d="M9,13.7a.391.391,0,0,1-.277-.114L.11,4.975a.391.391,0,0,1,.553-.553L9,12.753l8.331-8.332a.391.391,0,1,1,.563.544l-.01.01L9.271,13.583A.391.391,0,0,1,9,13.7Z"/></g></g></svg>