<svg xmlns="http://www.w3.org/2000/svg" xmlns:xlink="http://www.w3.org/1999/xlink" width="1920" height="290" viewBox="0 0 1920 290"><defs><style>.a{fill:#fd8122;}.b{fill:none;}.c{clip-path:url(#a);}.d{fill:rgba(255,255,255,0.04);}.e{clip-path:url(#b);}.f{fill:#f49d8b;}.g{fill:#d37363;}.h{fill:#414f50;}.i{fill:#78b1de;}.j{fill:#4e88af;}.k{fill:#1b3431;}.l{fill:#fff;}.m{fill:#e2534d;}.n{fill:#ba4131;}.o{fill:#e9cec2;}.p{fill:#285b5c;}.q{fill:#18363e;}.r{fill:#5a918e;}.s{fill:#f5bf69;}.t{fill:#ed9033;}</style><clipPath id="a"><rect class="a" width="1920" height="290" transform="translate(0 202)"/></clipPath><clipPath id="b"><rect class="b" width="322.494" height="283.313"/></clipPath></defs><g class="c" transform="translate(0 -202)"><rect class="a" width="1920" height="290" transform="translate(0 202)"/><path class="d" d="M0,0S881.632,185.461,1123.1,24.74,1920,0,1920,0V189H0Z" transform="translate(0 303)"/><g transform="translate(1670 208.688)"><g class="e"><g transform="translate(28.978 12.056)"><g transform="translate(0 18.782)"><g transform="translate(0 42.387)"><path class="f" d="M496.4,143.248s-4.081,9.26-11.649,9.154c-6.111-.088-10.106-7.01-11.419-9.669-.313-.637-.472-1.028-.472-1.028a10.3,10.3,0,0,1-1.076-.24c-1.494-.407-4.08-1.4-4.648-3.515-.809-3.011,5.067-3.407,5.067-3.407s-2.136-3.2-.975-4.818c1.143-1.6,4.96-1,4.96-1s-3.336-3.638-1.408-5.561c2.9-2.892,6.077,1.933,6.353,2.225-.185-.367-3.99-7.082-.9-7.315,2.7-.2,6.058,3.641,8.026,7.1.313.548.488.864.488.864s.192-.08.524-.2c1.573-.551,6.311-1.892,8.369.977C500.131,130.28,496.4,143.248,496.4,143.248Z" transform="translate(-467.062 -118.062)"/></g><g transform="translate(17.386 57.895)"><path class="g" d="M477.756,145.909a.584.584,0,0,1-.5-1.009,5.254,5.254,0,0,0,1.954-4.01c-.005-3.863-4.2-7.619-4.244-7.657a.584.584,0,0,1,.774-.875c.188.167,4.632,4.146,4.637,8.53a6.368,6.368,0,0,1-2.346,4.884A.579.579,0,0,1,477.756,145.909Z" transform="translate(-474.765 -132.211)"/></g><g transform="translate(4.721 53.454)"><path class="g" d="M492.6,131.083a1.815,1.815,0,0,1-1.2,1.334,2.073,2.073,0,0,1-.414.092,4.281,4.281,0,0,1-1.078-.034,4.189,4.189,0,0,1,.572.778,2.018,2.018,0,0,1,.265.776,1.523,1.523,0,0,1-.618,1.362c-1.219.968-3.438.92-5.195.68a6.17,6.17,0,0,1,1.942,3.357,1.827,1.827,0,0,1-.663,1.667,3.449,3.449,0,0,1-1.458.583,19.119,19.119,0,0,1-4.914.085c-.317-.638-.474-1.029-.474-1.029a10.069,10.069,0,0,1-1.081-.239.564.564,0,0,1,.326-.043c2.156.3,5.927.487,6.874-.269a.671.671,0,0,0,.227-.652c-.108-1.18-1.771-3.133-3.416-4.021a.582.582,0,0,1,.43-1.074c1.39.386,5.3,1.14,6.674.039.2-.159.188-.277.18-.339a1.939,1.939,0,0,0-.653-1,14.379,14.379,0,0,0-3.023-2.122.559.559,0,0,1-.246-.253.566.566,0,0,1,0-.536.585.585,0,0,1,.792-.242c.183.1.561.3,1.024.59a13.109,13.109,0,0,0,2.532.753,2.336,2.336,0,0,0,1.025-.014.669.669,0,0,0,.438-.53,3.729,3.729,0,0,0-.165-1.871.572.572,0,0,1,.209-.619.065.065,0,0,0,.015-.012.572.572,0,0,1,.9.294A4.9,4.9,0,0,1,492.6,131.083Z" transform="translate(-478.291 -128.16)"/></g><g transform="translate(17.62)"><path class="h" d="M475.459,124.114a15.889,15.889,0,0,1,2.145,2.629c.608.973,1.015,1.491,1.435,2.137.055-.054-.053.05,0,0l1.035-48.9a.577.577,0,0,0-1.152-.058l-3.462,44.193Z" transform="translate(-475.458 -79.387)"/></g><g transform="translate(15.473 56.978)"><path class="h" d="M481.742,147.162c-4.394,1.458-4.986-.614-4.986-.614l.886-11.319a2.4,2.4,0,0,0,.2-.146,1.523,1.523,0,0,0,.618-1.362,2.018,2.018,0,0,0-.265-.776,3.419,3.419,0,0,0-.34-.5l.021-.246a4.154,4.154,0,0,0,.825,0,2.074,2.074,0,0,0,.414-.092,1.721,1.721,0,0,0,.935-.733,2.9,2.9,0,0,0,1.5,1.2,3.779,3.779,0,0,0,.542.158Z" transform="translate(-476.756 -131.375)"/></g><g transform="translate(18.206 49.494)"><path class="g" d="M479.71,131.758a19.272,19.272,0,0,1-4.353,1.533,6.564,6.564,0,0,1-3.473-.062,2.915,2.915,0,0,1-1.747-1.683c-1.171-2.869,1.175-5.616,2.679-7,.313.548.488.864.488.864s.192-.08.524-.2c-1.279,1.129-3.559,3.564-2.608,5.888a1.75,1.75,0,0,0,1.072,1.031c1.94.724,5.632-.777,6.89-1.416a.584.584,0,1,1,.529,1.04Z" transform="translate(-469.82 -124.546)"/></g><g transform="translate(11.224 60.505)"><path class="i" d="M470.875,134.627l0-.021s.005-.023,0-.005l-.03.058-.064.129-.155.315-.339.7c-.116.237-.237.478-.364.724s-.248.488-.379.737c-.511.989-1.051,1.995-1.614,2.99-1.138,1.988-2.316,3.981-3.588,5.91s-2.569,3.84-3.958,5.675c-.7.912-1.4,1.828-2.121,2.713-.7.905-1.45,1.768-2.18,2.645-1.5,1.714-3.036,3.385-4.639,4.967-.388.411-.8.786-1.207,1.178s-.8.789-1.222,1.156c-.834.743-1.653,1.507-2.51,2.213-1.68,1.465-3.458,2.778-5.228,4.088-1.809,1.246-3.632,2.467-5.526,3.547-.473.272-.94.553-1.416.819l-1.446.757-.721.381-.181.1.092-.048.124-.06a4.232,4.232,0,0,1,.516-.2,7.1,7.1,0,0,1,2.359-.433c.193,0,.355-.01.534.005.088.005.174.014.261.026l.221.019a3.469,3.469,0,0,1,.427.077,2.164,2.164,0,0,1,.332.072c.05.013.116.041.152.047s.078.02.116.032a2.208,2.208,0,0,1,.215.083.7.7,0,0,1,.133.053l.06.034.026.009c.151.1-.164-.039-.6-.379a17.289,17.289,0,0,1-1.63-1.471c-.614-.617-1.263-1.336-1.916-2.115-1.318-1.552-2.653-3.354-3.97-5.238s-2.612-3.892-3.882-5.949-2.535-4.163-3.755-6.312-2.446-4.321-3.628-6.519q-.9-1.642-1.769-3.3l-1.692-3.194-21.77,8.972.37,1.076.356,1,.72,1.969q.74,1.953,1.51,3.882c1.047,2.567,2.136,5.12,3.3,7.66s2.4,5.065,3.715,7.59c.664,1.259,1.343,2.52,2.053,3.78s1.452,2.516,2.225,3.778a87.355,87.355,0,0,0,5.2,7.6c.99,1.276,2.048,2.56,3.236,3.86a41.8,41.8,0,0,0,4.1,3.943,29.962,29.962,0,0,0,5.985,3.937l.469.228c.163.076.342.151.514.225q.52.222,1.044.43c.365.138.765.271,1.15.4l.585.183c.192.06.421.115.63.169q.644.161,1.293.3c.457.085.934.154,1.4.217.237.03.468.059.71.082s.5.033.754.045c.507.021,1,.044,1.519.027a20.345,20.345,0,0,0,6.221-1.154c.481-.18.955-.375,1.424-.581l.351-.157.318-.148.258-.132,1.029-.529,2.055-1.064c.675-.369,1.34-.757,2.01-1.137,2.69-1.507,5.243-3.216,7.754-4.969,2.468-1.8,4.886-3.674,7.159-5.683,2.3-1.978,4.463-4.1,6.556-6.257l1.539-1.647c.511-.551,1-1.121,1.493-1.682s.989-1.124,1.46-1.7l1.428-1.725a109.975,109.975,0,0,0,9.972-14.7c1.446-2.574,2.821-5.186,4.057-7.892.619-1.354,1.225-2.716,1.792-4.127q.214-.524.421-1.066t.415-1.088c.136-.363.275-.746.411-1.129l.465-1.365Z" transform="translate(-392.953 -134.593)"/></g><g transform="translate(23.839 75.466)"><path class="j" d="M471.053,149.6a1.624,1.624,0,1,0,1.872-1.332A1.624,1.624,0,0,0,471.053,149.6Z" transform="translate(-471.03 -148.244)"/></g><g transform="translate(49.061 99.733)"><g transform="translate(0)"><path class="j" d="M446.555,182.938a.693.693,0,0,0,.783-.341,52.267,52.267,0,0,0,4.1-11.363.694.694,0,0,0-1.352-.309,51.926,51.926,0,0,1-3.969,11.01.693.693,0,0,0,.279.94A.624.624,0,0,0,446.555,182.938Z" transform="translate(-446.034 -170.386)"/></g><g transform="translate(3.812 0.898)"><path class="j" d="M446.912,179.1a.676.676,0,0,0,.318.007.694.694,0,0,0,.533-.823,55.93,55.93,0,0,0-1.787-6.67.694.694,0,0,0-1.268.563,57,57,0,0,1,1.7,6.4A.694.694,0,0,0,446.912,179.1Z" transform="translate(-444.647 -171.205)"/></g></g><g transform="translate(15.14 73.802)"><g transform="translate(0 3.107)"><path class="j" d="M460.7,161.277a.692.692,0,0,0,.535-.08c7.123-4.349,22.187-10.237,22.338-10.3a.694.694,0,1,0-.5-1.293c-.152.059-15.331,5.993-22.558,10.405a.694.694,0,0,0,.189,1.264Z" transform="translate(-460.184 -149.561)"/></g><g transform="translate(2.029)"><path class="j" d="M479.746,157.993a.694.694,0,0,0,.8-.969l-4.687-9.9a.694.694,0,1,0-1.254.594l4.686,9.9A.7.7,0,0,0,479.746,157.993Z" transform="translate(-474.538 -146.726)"/></g></g></g><g transform="translate(73.848)"><g transform="translate(0 196.015)"><g transform="translate(6.73)"><path class="k" d="M427.9,284.422q-.227.9-.493,1.77c-.007.021-.012.046-.019.067q-.365,1.172-.8,2.248c-2.607,6.35-22.669,7.243-42.414,5-15.314-1.743-30.439-5.378-37.073-9.828-6.231-4.177,7.129-42.578,7.129-42.578l74.893,15.869S430.776,272.948,427.9,284.422Z" transform="translate(-345.443 -241.098)"/></g><g transform="translate(0 32.492)"><path class="k" d="M425.086,348.8H387.918c1.348-20.561,3.426-43.64,5.968-67.882.068-.646.134-1.292.206-1.942q.337-3.23.693-6.492c.061-.579.125-1.157.186-1.739l7.207,3.335,1.767.818,28.3,13.1-.293,2.491Z" transform="translate(-387.918 -270.744)"/></g><g transform="translate(30.877 52.555)"><path class="h" d="M393.439,347.042h-1.855l7.6-57.193a.919.919,0,0,1,1.823.242Z" transform="translate(-391.584 -289.05)"/></g><g transform="translate(5.968 19.052)"><path class="h" d="M424.487,259.57c-.09.475-1.919,9.864-8,16.5a21.259,21.259,0,0,1-4.224,3.593,17.746,17.746,0,0,1-3.913,1.889,15.971,15.971,0,0,1-1.922.538c.068-.646.134-1.292.206-1.942.309-.079.616-.167.92-.267a16.156,16.156,0,0,0,3.72-1.765,18.847,18.847,0,0,0,3.447-2.864c6.064-6.313,7.933-15.913,7.955-16.025a.919.919,0,0,1,1.807.34Z" transform="translate(-406.433 -258.482)"/></g><g transform="translate(39.113 8.313)"><path class="h" d="M388.475,288.777a.754.754,0,0,0,.722.777h.005a.752.752,0,0,0,.8-.7c.14-2.771.309-5.607.493-8.44.032-.5.064-1,.1-1.5.62-9.26,1.4-18.35,1.991-24.767.049-.518.094-1.023.14-1.506.132-1.407.25-2.657.352-3.714-.507-.08-1.016-.163-1.517-.249-.1,1.058-.221,2.319-.354,3.742-.046.483-.091.987-.14,1.5-.583,6.362-1.36,15.372-1.98,24.575-.035.507-.068,1.018-.1,1.526C388.8,282.967,388.621,285.909,388.475,288.777Z" transform="translate(-388.474 -248.683)"/></g><g transform="translate(36.523 9.239)"><path class="h" d="M383.219,278.919a20.029,20.029,0,0,0,2.675,1.03c.477.146.987.279,1.512.385a10.845,10.845,0,0,0,1.45.191,5.277,5.277,0,0,0,2.57-.4,3.13,3.13,0,0,0,1.748-2.336c.562-2.855,1.755-14.65,2.558-22.992.05-.513.1-1.014.146-1.5.126-1.335.24-2.548.338-3.579-.506-.062-1.015-.125-1.523-.193-.1,1.037-.213,2.265-.343,3.618q-.071.725-.144,1.5c-.8,8.322-1.993,20.1-2.537,22.866a1.648,1.648,0,0,1-.926,1.291,5.409,5.409,0,0,1-3.236.036c-.515-.114-1.029-.259-1.508-.414a18.3,18.3,0,0,1-2.1-.827.777.777,0,0,0-1.026.331A.73.73,0,0,0,383.219,278.919Z" transform="translate(-382.793 -249.528)"/></g><g transform="translate(45.345 25.512)"><g transform="translate(0 1.985)"><path class="k" d="M389.355,283.764a.043.043,0,0,0,0,.021.3.3,0,0,1-.009.067q-.086.894-.171,1.82c-1.663,17.529-4.23,43.881-6.441,63.564H346l.135-70.315a222.876,222.876,0,0,1,21.224-8.578q.891-.3,1.79-.592c1.134-.365,2.271-.718,3.4-1.048q.9-.263,1.8-.507c6.769-1.84,13.054-2.748,16.576-1.276,0,0-.543,5.96-1.406,15.094C389.466,282.584,389.409,283.165,389.355,283.764Z" transform="translate(-346.001 -266.187)"/></g><g transform="translate(31.466 23.388)"><path class="h" d="M352.275,347.362c2.112-24,4.714-60.326,4.747-60.792a.919.919,0,1,1,1.834.13c-.033.466-2.623,36.631-4.735,60.662Z" transform="translate(-352.275 -285.716)"/></g><g transform="translate(19.125)"><path class="h" d="M371.663,283.938a.044.044,0,0,0,0,.021.3.3,0,0,1-.009.067q-.086.894-.171,1.82a14.791,14.791,0,0,1-7.63-.7c-4.7-1.714-8.391-5.571-11.064-9.411a45.514,45.514,0,0,1-3.118-5.218,44.518,44.518,0,0,1-2.181-4.914.92.92,0,1,1,1.734-.614,43.029,43.029,0,0,0,2.237,4.935,44.1,44.1,0,0,0,2.906,4.809c2.5,3.584,5.889,7.15,10.12,8.688A13.064,13.064,0,0,0,371.663,283.938Z" transform="translate(-347.434 -264.376)"/></g></g></g><g transform="translate(5.695)"><g transform="translate(0 63.416)"><path class="l" d="M431.161,213.747q-.2,2.933-.5,5.865c-1.012,9.8-4.773,42.611-8.154,51.8-12.477,6.046-26.452,8.242-39.776,7.665-2.538-.112-5.054-.324-7.531-.629q-3.288-.4-6.475-1.025c-13.85-2.68-25.969-8.256-33.487-15.3,3.553-13.768,7.7-38.726,9.258-49.433.292-2,.55-3.938.783-5.837q.342-2.773.608-5.413c.2-2.006.378-3.962.522-5.855q.232-3.055.373-5.906.148-3.05.207-5.885c.547-25.774-4.161-38.5-2.917-44.674,1.871-9.3,10.471-9.168,18.3-12.083.456-.169.913-.349,1.363-.543.306-.134.605-.27.9-.408a17.518,17.518,0,0,0,7.169-5.97l22.995.044a32.248,32.248,0,0,0,5.2,3.232c.311.163.635.321.978.481.823.39,1.729.783,2.721,1.162a43.494,43.494,0,0,0,8.65,2.292c10.308,1.663,16.219,12.627,17.306,30.408.546,8.978,1.131,17.44,1.516,25.6.025.543.052,1.082.074,1.622A256.366,256.366,0,0,1,431.161,213.747Z" transform="translate(-335.241 -120.112)"/><g transform="translate(32.367 23.52)"><path class="m" d="M371.5,224.739l3.936,9.553v0l1.768,4.292,4.994,12.128,2.43-4.675.863-1.657,1.95-3.746.86-1.657,1.952-3.746.86-1.657,1.95-3.746v0l.863-1.654,1.834-3.522-.04-.383-.277-2.8-.636-6.342-.28-2.8-.633-6.342-.28-2.8-.633-6.342-.28-2.8-.633-6.345-.28-2.8-.633-6.342-.28-2.8-.633-6.342-.28-2.8-.633-6.34-.28-2.8-.633-6.342-.28-2.8-.306-3.055-.348-3.5-4.847-.2-.142,1.09-.3,2.221-.09.681-.583,4.351-.3,2.219-.675,5.031-.3,2.221-.675,5.031-.3,2.219-.675,5.031-.3,2.219-.673,5.034-.3,2.219-.673,5.031-.3,2.219-.673,5.031-.3,2.224-.673,5.031-.3,2.219-.673,5.031-.3,2.221-.673,5.031-.3,2.219-.673,5.031-.3,2.221Z" transform="translate(-371.502 -141.572)"/></g><g transform="translate(42.973 23.52)"><path class="n" d="M378.736,145.564l2.87,5.1,2.855-5.4-.348-3.5-4.847-.2-.142,1.09-.3,2.221Z" transform="translate(-378.736 -141.572)"/></g><g transform="translate(0 4.919)"><path class="i" d="M431.161,213.316q-.2,2.933-.5,5.865c-1.012,9.8-4.773,42.611-8.154,51.8-12.477,6.046-26.452,8.242-39.776,7.665l-7-11.068-7.006,9.415c-13.85-2.68-25.969-8.256-33.487-15.3,1.287-4.988,2.653-11.447,3.947-18.163.308-1.611.617-3.241.916-4.867,1.9-10.289,3.539-20.507,4.395-26.4.292-2,.55-3.938.783-5.837q.342-2.773.608-5.413c.2-2.006.378-3.962.522-5.855q.232-3.055.373-5.906.148-3.05.207-5.885c.547-25.774-4.161-38.5-2.917-44.674,1.871-9.3,10.471-9.168,18.3-12.083.13.062.26.127.39.193L379.848,202.4l23.426-77.7s.151-.038.43-.1a43.493,43.493,0,0,0,8.65,2.292c10.308,1.663,16.219,12.627,17.306,30.408.546,8.978,1.131,17.44,1.516,25.6.025.543.052,1.082.074,1.622A256.366,256.366,0,0,1,431.161,213.316Z" transform="translate(-335.241 -124.6)"/></g><g transform="translate(80.574 66.069)"><path class="j" d="M338.925,269.254a.823.823,0,0,0,.769-.533c11.249-29.936,11.068-86.937,11.065-87.509a.821.821,0,0,0-.822-.818h0a.823.823,0,0,0-.818.826c0,.57.182,57.271-10.96,86.922a.823.823,0,0,0,.769,1.111Z" transform="translate(-338.104 -180.395)"/></g><g transform="translate(3.947 113.772)"><path class="j" d="M421.348,227.9a147.323,147.323,0,0,1-20.324,6.093c.308-1.611.617-3.241.916-4.867,8.5-2.085,18.352-5.2,18.352-5.2Z" transform="translate(-401.024 -223.92)"/></g><g transform="translate(56.975 116.971)"><path class="j" d="M349.1,226.839s16.734,10.051,24.394,12.923l-2.331,4.077s-14.55-6.61-24.017-13.377Z" transform="translate(-347.143 -226.839)"/></g><g transform="translate(17.176 6.31)"><path class="j" d="M392.818,126.672a8.157,8.157,0,0,0-10.348,2.881l3.833,24.774,8.663,5.147-5.873,3.507,6.57,28.8,14.237,10.5Z" transform="translate(-382.47 -125.869)"/></g><g transform="translate(44.606 3.596)"><path class="j" d="M374.479,124.708s6.316-4.015,10.684,1.984l-5.4,27.966-8.681,5.114,5.86,3.529-6.681,28.774-15.847,10.44Z" transform="translate(-354.414 -123.393)"/></g><g transform="translate(39.754 86.942)"><g transform="translate(0 51.403)"><path class="j" d="M383.738,248.22a1.734,1.734,0,1,0,1.584-1.873A1.733,1.733,0,0,0,383.738,248.22Z" transform="translate(-383.731 -246.34)"/></g><g transform="translate(0.734 38.552)"><path class="j" d="M383.067,236.495a1.735,1.735,0,1,0,1.585-1.873A1.735,1.735,0,0,0,383.067,236.495Z" transform="translate(-383.061 -234.615)"/></g><g transform="translate(1.47 25.701)"><path class="j" d="M382.4,224.769a1.734,1.734,0,1,0,1.584-1.873A1.736,1.736,0,0,0,382.4,224.769Z" transform="translate(-382.39 -222.89)"/></g><g transform="translate(2.205 12.85)"><path class="j" d="M381.726,213.044a1.734,1.734,0,1,0,1.584-1.873A1.734,1.734,0,0,0,381.726,213.044Z" transform="translate(-381.719 -211.164)"/></g><g transform="translate(2.94)"><path class="j" d="M381.055,201.317a1.734,1.734,0,1,0,1.584-1.872A1.735,1.735,0,0,0,381.055,201.317Z" transform="translate(-381.048 -199.439)"/></g></g><g transform="translate(10.495 44.429)"><path class="j" d="M413.523,180.818a.73.73,0,0,1-1.222-.539c0-5.663-.208-11.745-.627-18.148-.02-.292-.034-.525-.045-.7a.741.741,0,0,1,1.48-.089c.01.168.025.4.044.688.42,6.427.628,12.534.629,18.227a.74.74,0,0,1-.243.543Z" transform="translate(-411.628 -160.65)"/></g></g><g transform="translate(22.602)"><path class="k" d="M399.9,99.044s5.258-3.759,6.5-9.669c1.1-5.206-3.288-5.206-3.288-5.206s3.587-5.652,1.439-9.88a7.7,7.7,0,0,0-8.062-4.273s1.445-8.411-11.939-7.727-21.349,1.19-23.519,6.975a5.376,5.376,0,0,0,3.292,7.477s-5.405,3.286-2.765,6.7a5.69,5.69,0,0,0,5.945,2.409Z" transform="translate(-360.525 -62.25)"/><g transform="translate(1.844 29.249)"><path class="g" d="M401.784,94.163s-1.659-6.246-6.735-5.08-6.05,17.824,3.508,17.753Z" transform="translate(-391.274 -88.938)"/></g><g transform="translate(12.399 41.922)"><path class="f" d="M393.08,123.813s1.191,2.1-8.122,4.679a19.988,19.988,0,0,1-13.826-1.677,18.393,18.393,0,0,1-1.891-1.251c1.517-7.067.292-11.653-.06-12.747-.054-.168-.088-.253-.088-.253L393.358,100.5Z" transform="translate(-369.093 -100.5)"/></g><g transform="translate(12.487 51.442)"><path class="k" d="M392.969,109.187s-5.837,16.029-18.784,16.794a18.393,18.393,0,0,1-1.891-1.251c1.517-7.067.292-11.653-.06-12.747Z" transform="translate(-372.234 -109.187)"/></g><g transform="translate(4.718 10.881)"><path class="f" d="M386.477,121.106c-10,1.846-17.919-2.526-18.789-11.1-.213-2.067-.293-5.056-.3-8.171,0-.033,0-.062,0-.1,0-.661,0-1.332,0-2q0-.727.014-1.446c.06-5.556.271-10.587.271-10.587,1.577-13.781,15.287-18.781,26.173-13.431s6.5,22.1,6.387,30.3S395.056,119.526,386.477,121.106Z" transform="translate(-367.387 -72.178)"/></g><g transform="translate(11.463 43.448)"><path class="l" d="M392.995,101.893s-1.413,4.574-5.153,5.316c-4.257.844-5.214-4.481-5.214-4.481Z" transform="translate(-382.628 -101.893)"/></g><g transform="translate(18.687 24.519)"><path class="k" d="M383.618,89.969c2.829.6,3.631-2.425,1.08-4a7.505,7.505,0,0,0-3.755-1.345c-3.73-.026-3.844,2.6-1.977,3.669A20.141,20.141,0,0,0,383.618,89.969Z" transform="translate(-377.781 -84.622)"/></g><g transform="translate(6.042 23.348)"><path class="k" d="M391.564,88.565c-2.88.252-3.309-2.85-.583-4.1a7.494,7.494,0,0,1,3.89-.878c3.7.427,3.5,3.051,1.516,3.883A20.143,20.143,0,0,1,391.564,88.565Z" transform="translate(-389.153 -83.553)"/></g><g transform="translate(4.718 36.989)"><path class="g" d="M394.063,99.7a10.9,10.9,0,0,1-1.131-.145c0-.033,0-.062,0-.1,0-.661,0-1.332,0-2q0-.727.014-1.446a11.076,11.076,0,0,1,1.394.021c2.512.191,4.483,1.164,4.407,2.176S396.575,99.886,394.063,99.7Z" transform="translate(-392.931 -95.999)"/></g><g transform="translate(1.767 27.594)"><path class="l" d="M394.607,99.746a6.217,6.217,0,1,0-4.9-7.3A6.224,6.224,0,0,0,394.607,99.746Zm2.22-11.307a5.306,5.306,0,1,1-6.228,4.184A5.312,5.312,0,0,1,396.827,88.439Z" transform="translate(-389.587 -87.427)"/></g><g transform="translate(11.269 28.629)"><path class="k" d="M390.533,101.287a.439.439,0,0,1-.219-.078c-2.256-1.553-2.685-2.372-2.749-2.52a.449.449,0,0,1,.038-.424l3.267-4.914a.279.279,0,0,1,.032-.042c.7-.824.831-2.53.921-4.51a.448.448,0,1,1,.894.041c-.1,2.133-.247,3.985-1.116,5.028l-3.088,4.646a10.784,10.784,0,0,0,2.308,1.957.448.448,0,0,1-.288.815Z" transform="translate(-387.529 -88.372)"/></g><g transform="translate(22.981 36.607)"><path class="g" d="M382.373,97.86c-.077,1.012-2.174,1.677-4.686,1.486s-4.485-1.165-4.408-2.177,2.176-1.677,4.686-1.486S382.449,96.849,382.373,97.86Z" transform="translate(-373.276 -95.651)"/></g><g transform="translate(13.318 28)"><g transform="translate(3.255)"><path class="l" d="M381.1,100.117a6.217,6.217,0,1,0-4.9-7.3A6.224,6.224,0,0,0,381.1,100.117Zm2.22-11.307a5.306,5.306,0,1,1-6.229,4.184A5.313,5.313,0,0,1,383.318,88.81Z" transform="translate(-376.077 -87.798)"/></g><g transform="translate(0 3.864)"><path class="l" d="M386.942,93.738l.01,0a.455.455,0,0,0,.527-.372c.009-.046.224-1.174,1.08-1.132.951.047,1.31,1.1,1.314,1.115a.456.456,0,1,0,.867-.283,2.541,2.541,0,0,0-2.136-1.743,2.1,2.1,0,0,0-2.023,1.887A.457.457,0,0,0,386.942,93.738Z" transform="translate(-386.574 -91.324)"/></g><g transform="translate(14.655 1.573)"><path class="l" d="M369.4,93.127a.456.456,0,0,0,.487-.226c2.464-4.431,7.053-2.252,7.247-2.157a.456.456,0,0,0,.4-.819c-.056-.026-5.559-2.663-8.447,2.533a.456.456,0,0,0,.176.62A.467.467,0,0,0,369.4,93.127Z" transform="translate(-369.032 -89.233)"/></g></g><g transform="translate(4.859 8.139)"><path class="k" d="M366.918,88.892h0A16.642,16.642,0,0,1,370.978,75.4c6.9-7.939,20.99-7.5,26.608.578s2.857,15.1,2.857,15.1-2.265.821-3.368,5.252l-3-.124s-1.13-3.708.056-9.749-9.478-12.084-16.717-10.718a13.075,13.075,0,0,0-9.542,7.949A22.373,22.373,0,0,0,366.918,88.892Z" transform="translate(-366.773 -69.676)"/></g><g transform="translate(6.552 12.438)"><path class="k" d="M398.477,78.844S393.438,76.871,391,77.83s-5.964,2.214-8.621.3-5.708,3.759-5.708,3.759,3.379-10.1,11.718-8S396.7,75.2,398.477,78.844Z" transform="translate(-376.674 -73.598)"/></g><g transform="translate(14.809 49.175)"><path class="g" d="M385.832,108.611a2.579,2.579,0,0,1-.326-.107.447.447,0,0,1,.341-.827,2.87,2.87,0,0,0,2.814-.45.448.448,0,1,1,.582.681A3.7,3.7,0,0,1,385.832,108.611Z" transform="translate(-385.229 -107.118)"/></g><g transform="translate(35.67 29.059)"><path class="f" d="M361.055,91.7s2.9-4.585,7.579-2.3,1.869,18.73-7.426,16.5Z" transform="translate(-361.055 -88.764)"/></g><g transform="translate(37.315 34.189)"><path class="k" d="M363.058,99.636a.417.417,0,0,1-.1-.018.448.448,0,0,1-.3-.558c.06-.2,1.533-4.949,5.882-5.611a.447.447,0,1,1,.135.884c-3.794.579-5.147,4.941-5.16,4.985A.447.447,0,0,1,363.058,99.636Z" transform="translate(-362.644 -93.444)"/><g transform="translate(2.152 1.907)"><path class="k" d="M366.3,98.013a.447.447,0,0,1-.3-.15c-.008-.01-.849-.957-1.852-1.9a.448.448,0,1,1,.615-.651c1.034.977,1.873,1.922,1.908,1.963a.448.448,0,0,1-.369.743Z" transform="translate(-364.003 -95.184)"/></g></g><g transform="translate(21.296 32.306)"><path class="k" d="M383.3,93.541c-.011,1-.481,1.8-1.05,1.791s-1.02-.819-1.009-1.814.481-1.8,1.05-1.791S383.306,92.546,383.3,93.541Z" transform="translate(-381.236 -91.727)"/></g><g transform="translate(9.695 32.339)"><path class="k" d="M393.88,93.571c-.011,1-.48,1.8-1.049,1.791s-1.021-.819-1.01-1.814.481-1.8,1.05-1.791S393.892,92.576,393.88,93.571Z" transform="translate(-391.821 -91.757)"/></g><g transform="translate(4.922 59.456)"><g transform="translate(18.421)"><path class="l" d="M377.561,116.5s3.464,1.05,5.325,8.871c-2.411,7.109-9.2,13.078-18.725,14.823l.027-13.983A24.639,24.639,0,0,0,377.561,116.5Z" transform="translate(-364.162 -116.499)"/></g><g transform="translate(0 1.975)"><path class="l" d="M389.334,118.3s-5.727,1.3-8.112,9.1c6.135,7.5,9.415,10.317,18.421,12.621l.027-13.983S394.27,125.947,389.334,118.3Z" transform="translate(-381.222 -118.301)"/></g><g transform="translate(12.231 13.627)"><path class="m" d="M388,136.97l-6.482,9.6-6.176-9.621,6.21-8.013Z" transform="translate(-375.345 -128.933)"/></g><g transform="translate(4.639 9.626)"><g transform="translate(0 3.26)"><path class="o" d="M369.517,146.843a.732.732,0,0,1-.448-.152.741.741,0,0,1-.139-1.038l13.062-17.1a.739.739,0,0,1,.564-.292.751.751,0,0,1,.583.254l12.905,14.823a.741.741,0,1,1-1.118.972l-12.309-14.137-12.51,16.382A.739.739,0,0,1,369.517,146.843Z" transform="translate(-368.778 -128.257)"/></g><g transform="translate(13.061)"><path class="o" d="M381.266,130.024h-.005a.741.741,0,0,1-.734-.747l.029-3.261a.743.743,0,0,1,.743-.734h.005a.742.742,0,0,1,.734.749l-.03,3.259A.74.74,0,0,1,381.266,130.024Z" transform="translate(-380.526 -125.282)"/></g></g></g></g></g><g transform="translate(64.314 76.491)"><g transform="translate(0 134.415)"><path class="f" d="M363.371,254.758c-1.624-.446-4,1.254-6.151,1.82a26.156,26.156,0,0,0-8.824,4.469c-1.2,1.046-7.153,7.844-9.839,10.805a1.69,1.69,0,0,0,.065,2.377c.882.795,2.731.779,6.3-2.513.169-.136,1.261-1.087,1.374-1.178a7.8,7.8,0,0,1,3.168-1.564s-1.987,1.788-5.385,5.02c3.708,6.45,9.74,12.591,17.776,10.985a51.7,51.7,0,0,0,3.164-5.954c1.521-2.759,6.233-9.857,7.584-13.748C373.523,262.634,368.512,256.172,363.371,254.758Z" transform="translate(-338.101 -254.685)"/></g><g transform="translate(9.334)"><path class="i" d="M320.822,132.042l.734.591.58.479,1.085.922c.7.607,1.385,1.209,2.054,1.813,1.332,1.215,2.614,2.44,3.871,3.68,2.513,2.479,4.913,5.026,7.235,7.648a150.452,150.452,0,0,1,12.752,16.712A135.978,135.978,0,0,1,359.407,182.5c1.459,3.265,2.8,6.6,3.978,10.006.6,1.7,1.143,3.423,1.664,5.154.251.87.51,1.736.74,2.614l.178.657.089.328.174.678a22.381,22.381,0,0,1,.54,3.2,25.216,25.216,0,0,1,.115,2.683c-.005.832-.052,1.586-.114,2.31a35.77,35.77,0,0,1-.571,3.89,51.8,51.8,0,0,1-1.717,6.273c-.639,1.9-1.326,3.658-2.036,5.359s-1.452,3.326-2.213,4.916c-1.522,3.174-3.115,6.192-4.749,9.139s-3.324,5.81-5.045,8.629c-3.436,5.639-7.021,11.085-10.7,16.439q-2.775,4-5.619,7.945-1.424,1.971-2.869,3.932l-1.468,1.955-1.519,2-19.8-13.955,1.184-1.895,1.207-1.959,2.417-3.936q2.4-3.952,4.725-7.944c3.111-5.307,6.119-10.65,8.951-15.988,1.412-2.67,2.767-5.345,4.063-8s2.5-5.3,3.571-7.893a70.314,70.314,0,0,0,2.647-7.375,22.376,22.376,0,0,0,.646-2.9,5.005,5.005,0,0,0,.058-.806c-.005-.064-.012-.1-.024-.058a1.4,1.4,0,0,0-.007.318,5.419,5.419,0,0,0,.132.867l.037.15.011.036c0,.009-.005-.014-.008-.021l-.019-.06-.078-.24-.154-.481c-.2-.643-.426-1.281-.642-1.92-.45-1.276-.916-2.546-1.428-3.806-1-2.523-2.147-5.008-3.373-7.463a112.75,112.75,0,0,0-8.568-14.246c-1.606-2.292-3.308-4.53-5.073-6.723s-3.607-4.336-5.512-6.415-3.858-4.118-5.869-6.051c-1-.968-2.021-1.91-3.034-2.814-.5-.456-1.006-.9-1.5-1.325l-.721-.613-.522-.43Z" transform="translate(-301.582 -132.042)"/></g><g transform="translate(45.602 71.55)"><g transform="translate(0 2.528)"><path class="j" d="M317.075,202.741a.741.741,0,0,1-.161-1.463,76.192,76.192,0,0,1,11.517-1.645.741.741,0,1,1,.061,1.481,76.258,76.258,0,0,0-11.251,1.61A.78.78,0,0,1,317.075,202.741Z" transform="translate(-316.336 -199.633)"/></g><g transform="translate(0.431)"><path class="j" d="M321.534,202.871a.74.74,0,0,1-.448-1.329c2.49-1.9,5.985-4.019,6.133-4.109a.741.741,0,0,1,.767,1.268c-.035.022-3.576,2.17-6,4.019A.726.726,0,0,1,321.534,202.871Z" transform="translate(-320.794 -197.326)"/></g></g><g transform="translate(12.74 30.333)"><g transform="translate(1.823)"><path class="j" d="M357.711,189.4a.743.743,0,0,1-.623-.341c-.132-.206-13.325-20.668-21.859-28.036a.741.741,0,1,1,.968-1.121c8.7,7.508,21.594,27.509,22.139,28.356a.742.742,0,0,1-.625,1.142Z" transform="translate(-334.971 -159.719)"/></g><g transform="translate(0 3.553)"><path class="j" d="M358,165.414a.766.766,0,0,1-.111-.009l-6.352-.972a.741.741,0,1,1,.224-1.464l6.352.971a.741.741,0,0,1-.113,1.474Z" transform="translate(-350.912 -162.96)"/></g></g><g transform="translate(22.283 124.209)"><path class="j" d="M350.458,260.376a.741.741,0,0,1-.419-.132l-19.62-13.521a.741.741,0,0,1,.841-1.22l19.62,13.521a.741.741,0,0,1-.422,1.351Z" transform="translate(-330.098 -245.373)"/><g transform="translate(7.793 9.973)"><path class="j" d="M336.1,265.075a.741.741,0,0,1-.615-1.151l6.057-9.121a.742.742,0,0,1,1.235.821l-6.059,9.12A.738.738,0,0,1,336.1,265.075Z" transform="translate(-335.362 -254.473)"/></g><g transform="translate(5.078 10.438)"><path class="j" d="M341.745,257.426a1.735,1.735,0,1,0,.749-2.337A1.735,1.735,0,0,0,341.745,257.426Z" transform="translate(-341.552 -254.896)"/></g></g></g></g></g></g></g><g transform="translate(0 237.301)"><g transform="translate(0 19.79)"><path class="p" d="M657.511,322.212s-12.594,2.79-10.722-6,1.734-12.026-3.386-16.019-10.268-5.967-6.349-12.29-3.517-11.239-7.361-14.642.5-5.971,1.514-12.4-5.9-5.468-6.448-13.572,7.689-17.576.61-28.731c0,0,9.508,4.931,12.631,13.591s.6,15.351,6.219,18.643,9.132,8.986,7.224,14.83.8,8.942,5.408,13.206,3.379,5.954,2.806,11.166.578,3.98,5.848,11.1S670.91,319.877,657.511,322.212Z" transform="translate(-624.733 -218.557)"/><g transform="translate(9.277 25.825)"><path class="q" d="M658.491,319.561a.575.575,0,0,1-.064-.136l-25.2-76.482a.629.629,0,0,1,.4-.791l.012,0a.627.627,0,0,1,.781.4l25.2,76.481a.653.653,0,0,1,.032.187Z" transform="translate(-633.198 -242.12)"/></g></g><g transform="translate(44.241 20.181)"><path class="p" d="M676.359,322.019s12.527,2.775,10.665-5.964-1.724-11.963,3.367-15.935,10.214-5.935,6.316-12.225,3.5-11.179,7.321-14.565-.492-5.939-1.5-12.339,5.872-5.438,6.413-13.5-7.648-17.483-.607-28.578c0,0-9.457,4.9-12.563,13.519s-.6,15.269-6.186,18.544-9.085,8.938-7.186,14.751-.8,8.9-5.378,13.135-3.36,5.923-2.791,11.107-.574,3.958-5.818,11.039S663.031,319.7,676.359,322.019Z" transform="translate(-665.099 -218.914)"/><g transform="translate(8.324 25.687)"><path class="q" d="M672.694,319.043a.6.6,0,0,1,.031-.186l25.064-76.076a.626.626,0,0,1,.778-.4l.012,0a.625.625,0,0,1,.4.787l-25.065,76.078a.588.588,0,0,1-.064.135Z" transform="translate(-672.694 -242.351)"/></g></g><g transform="translate(27.193)"><path class="r" d="M663.943,322.2s-14.415-1.194-9.493-9.982,5.851-12.306,1.7-18.282-9.018-9.8-2.719-15.271-.035-13.207-3.022-18.129,2.514-6.23,5.741-12.784-4.508-7.817-2.4-16.678,14.073-16.271,10.2-30.569c0,0,8.545,8.438,9.015,18.751s-4.454,16.643.469,22.034,6.8,12.658,2.812,18.283-2.11,9.844,1.406,15.939,1.641,7.5-.7,12.891-.7,4.454,2.579,13.83S679.071,324.145,663.943,322.2Z" transform="translate(-649.545 -200.5)"/><g transform="translate(14.835 30.706)"><path class="p" d="M664.694,319.684a.632.632,0,0,1-.024-.166l-1.589-90.287a.7.7,0,0,1,.689-.715h.014a.705.705,0,0,1,.7.692l1.589,90.284a.718.718,0,0,1-.029.212Z" transform="translate(-663.081 -228.517)"/></g></g><g transform="translate(7.437 114.721)"><path class="s" d="M707.637,309.1l-1.044,2.768-.659,1.754-1.892,5.023-.662,1.755-1.943,5.159-.659,1.751-8.336,22.133H646.9l-8.336-22.133-.659-1.751-1.944-5.159-.661-1.755-1.893-5.023-.659-1.754-1.043-2.768a2.9,2.9,0,0,1,2.714-3.923h70.5A2.9,2.9,0,0,1,707.637,309.1Z" transform="translate(-631.519 -305.174)"/></g><g transform="translate(8.67 121.412)"><path class="t" d="M706.485,311.279l-.659,1.754H633.3l-.659-1.754Z" transform="translate(-632.644 -311.279)"/><g transform="translate(2.551 6.777)"><path class="t" d="M703.711,317.462l-.662,1.754H635.633l-.662-1.754Z" transform="translate(-634.971 -317.462)"/></g><g transform="translate(5.156 13.69)"><path class="t" d="M700.877,323.77l-.659,1.751H638.007l-.659-1.751Z" transform="translate(-637.348 -323.77)"/></g></g><g transform="translate(1.553 141.002)"><g transform="translate(12.796)"><path class="k" d="M698.857,334.071H638.482l-.657-4.917h61.689Z" transform="translate(-637.825 -329.153)"/></g><g transform="translate(5.991 83.688)"><path class="k" d="M706.574,410.429H632.423l-.807-4.917h75.765Z" transform="translate(-631.616 -405.511)"/></g><g transform="translate(65.255 4.917)"><path class="k" d="M707.888,442.42l-17.6-108.78h-4.6l18.087,108.78Z" transform="translate(-685.691 -333.64)"/></g><g transform="translate(0 4.917)"><path class="k" d="M630.26,442.42l18.087-108.78h-4.6l-17.6,108.78Z" transform="translate(-626.15 -333.64)"/></g></g></g></g></svg>