<svg xmlns="http://www.w3.org/2000/svg" xmlns:xlink="http://www.w3.org/1999/xlink" width="112" height="112" viewBox="0 0 112 112"><defs><style>.a,.k{fill:#fff;}.a{stroke:#707070;}.b{fill:#bae1f5;}.c{clip-path:url(#a);}.d{fill:url(#b);}.e{fill:url(#c);}.f{fill:url(#d);}.g{fill:url(#e);}.h{fill:url(#f);}.i{fill:url(#g);}.j{fill:url(#h);}.l{fill:url(#i);}.m{fill:url(#j);}.n{fill:url(#k);}.o{fill:url(#l);}.p{fill:url(#m);}.q{fill:url(#n);}.r{fill:url(#o);}.s{fill:url(#p);}.t{fill:url(#q);}</style><clipPath id="a"><rect class="a" width="65" height="65" rx="9"/></clipPath><linearGradient id="b" x1="0.293" y1="0.844" x2="0.543" y2="0.313" gradientUnits="objectBoundingBox"><stop offset="0" stop-color="#00a6f9"/><stop offset="1" stop-color="#0071e2"/></linearGradient><linearGradient id="c" x1="0.136" y1="0.269" x2="0.779" y2="-1.005" gradientUnits="objectBoundingBox"><stop offset="0" stop-color="#c2cece"/><stop offset="1" stop-color="#97aaaa"/></linearGradient><linearGradient id="d" x1="0.456" y1="-6.007" x2="0.456" y2="-5.336" gradientUnits="objectBoundingBox"><stop offset="0" stop-color="#c2cece" stop-opacity="0"/><stop offset="0.179" stop-color="#afbcbc" stop-opacity="0.18"/><stop offset="1" stop-color="#5b6a6a"/></linearGradient><linearGradient id="e" x1="0.121" y1="0.034" x2="0.998" y2="-1.03" xlink:href="#b"/><linearGradient id="f" x1="0.463" y1="-0.734" x2="0.463" y2="-0.866" gradientUnits="objectBoundingBox"><stop offset="0" stop-color="#008bf2" stop-opacity="0"/><stop offset="1" stop-color="#0046e2"/></linearGradient><linearGradient id="g" x1="0.599" y1="-0.335" x2="-0.002" y2="1.162" xlink:href="#f"/><linearGradient id="h" x1="0.387" y1="-6.346" x2="0.28" y2="-5.165" xlink:href="#d"/><linearGradient id="i" x1="0.373" y1="-0.101" x2="0.373" y2="1.267" xlink:href="#d"/><linearGradient id="j" x1="-0.296" y1="-0.102" x2="-0.296" y2="1.288" xlink:href="#d"/><linearGradient id="k" x1="-0.039" y1="0.617" x2="-1.451" y2="0.555" xlink:href="#f"/><linearGradient id="l" x1="0.481" y1="4.49" x2="0.035" y2="4.919" xlink:href="#f"/><linearGradient id="m" x1="0.112" y1="7.096" x2="0.112" y2="4.202" gradientUnits="objectBoundingBox"><stop offset="0" stop-color="#ffc200"/><stop offset="0.268" stop-color="#fb0"/><stop offset="0.659" stop-color="#ffa801"/><stop offset="1" stop-color="#ff9102"/></linearGradient><linearGradient id="n" x1="-0.625" y1="6.64" x2="0.221" y2="6.64" gradientUnits="objectBoundingBox"><stop offset="0" stop-color="#ffc200" stop-opacity="0"/><stop offset="0.203" stop-color="#fb0" stop-opacity="0.204"/><stop offset="0.499" stop-color="#ffa700" stop-opacity="0.498"/><stop offset="0.852" stop-color="#f80" stop-opacity="0.851"/><stop offset="1" stop-color="#ff7800"/></linearGradient><linearGradient id="o" x1="0.379" y1="4.49" x2="-0.068" y2="4.919" xlink:href="#f"/><linearGradient id="p" x1="-0.115" y1="7.096" x2="-0.115" y2="4.202" xlink:href="#m"/><linearGradient id="q" x1="-1.079" y1="6.64" x2="-0.234" y2="6.64" xlink:href="#n"/></defs><rect class="b" width="112" height="112" rx="22"/><g class="c" transform="translate(24 24)"><g transform="translate(-0.297 1.802)"><path class="d" d="M57.57,5.458H7.429A2.552,2.552,0,0,0,4.878,8.009V60.647A2.552,2.552,0,0,0,7.429,63.2H57.57a2.552,2.552,0,0,0,2.551-2.551V8.009A2.552,2.552,0,0,0,57.57,5.458Z" transform="translate(0 -1.802)"/><path class="e" d="M57.57,63.2H7.43a2.551,2.551,0,0,1-2.551-2.551V33.01H60.121V60.647A2.551,2.551,0,0,1,57.57,63.2Z" transform="translate(0 -1.802)"/><path class="f" d="M57.57,63.2H7.43a2.551,2.551,0,0,1-2.551-2.551V55.29H60.121v5.357A2.551,2.551,0,0,1,57.57,63.2Z" transform="translate(0 -1.802)"/><path class="g" d="M62.447,56.991H2.552A2.551,2.551,0,0,1,.065,53.87L4.879,32.84H60.121l4.813,21.03A2.551,2.551,0,0,1,62.447,56.991Z" transform="translate(0 -1.802)"/><path class="h" d="M62.447,56.991H2.552A2.551,2.551,0,0,1,.065,53.87L4.879,32.84H60.121l4.813,21.03A2.551,2.551,0,0,1,62.447,56.991Z" transform="translate(0 -1.802)"/><path class="i" d="M62.447,56.991a2.551,2.551,0,0,0,2.487-3.12L60.121,32.84H4.879l24.15,24.15Z" transform="translate(0 -1.802)"/><path class="j" d="M60.121,56.991H4.879v.085L11,63.2H57.57a2.551,2.551,0,0,0,2.551-2.551Z" transform="translate(0 -1.802)"/><g transform="translate(19.314 17.05)"><path class="k" d="M19.314,37.9V27.137q0-4.253,2.256-6.251a8.763,8.763,0,0,1,6.029-2,8.835,8.835,0,0,1,6.047,2q2.275,2,2.275,6.251V37.9q0,4.254-2.275,6.251a8.835,8.835,0,0,1-6.047,2,8.763,8.763,0,0,1-6.029-2Q19.314,42.153,19.314,37.9Zm3.921,0q0,4.771,4.365,4.771a4.321,4.321,0,0,0,3.255-1.184A4.977,4.977,0,0,0,32,37.9V27.137a4.979,4.979,0,0,0-1.147-3.588A4.324,4.324,0,0,0,27.6,22.365q-4.365,0-4.365,4.771Z" transform="translate(-19.314 -18.852)"/><path class="k" d="M38.325,24.474a1.765,1.765,0,0,1,.777-1.517l3.847-3.7a1.358,1.358,0,0,1,1-.407,2.148,2.148,0,0,1,1.2.351,1.08,1.08,0,0,1,.536.943V44.632a1.062,1.062,0,0,1-.592.943,2.628,2.628,0,0,1-1.369.351,2.6,2.6,0,0,1-1.387-.351,1.065,1.065,0,0,1-.573-.943V24.067L40.47,25.694a1.131,1.131,0,0,1-.814.37,1.16,1.16,0,0,1-.943-.5A1.737,1.737,0,0,1,38.325,24.474Z" transform="translate(-19.314 -18.852)"/></g><g transform="translate(19.314 31.038)"><path class="l" d="M32,32.84V37.9a4.973,4.973,0,0,1-1.146,3.589A4.318,4.318,0,0,1,27.6,42.672q-4.365,0-4.366-4.772V32.84h-3.92V37.9q0,4.255,2.257,6.25a8.762,8.762,0,0,0,6.029,2,8.831,8.831,0,0,0,6.046-2q2.276-1.995,2.276-6.25V32.84Z" transform="translate(-19.314 -32.84)"/><path class="m" d="M41.765,32.84V44.631a1.067,1.067,0,0,0,.573.944,2.593,2.593,0,0,0,1.386.35,2.625,2.625,0,0,0,1.369-.35,1.063,1.063,0,0,0,.592-.944V32.84Z" transform="translate(-19.314 -32.84)"/></g><path class="n" d="M64.935,53.87,60.121,32.84V8.009A2.552,2.552,0,0,0,57.57,5.458H56.364a2.552,2.552,0,0,1,2.551,2.551V32.84l4.813,21.03a2.551,2.551,0,0,1-2.487,3.121h1.207A2.551,2.551,0,0,0,64.935,53.87Z" transform="translate(0 -1.802)"/><path class="o" d="M21.692,10a2.374,2.374,0,0,1-.757-1.738V5.458H25.7l3.889,3.889a6.61,6.61,0,0,1,1.936,4.674h0a2.426,2.426,0,0,1-2.271,2.447,2.375,2.375,0,0,1-1.848-.754Z" transform="translate(0 -1.802)"/><path class="p" d="M23.316,10.646h0a2.381,2.381,0,0,1-2.381-2.381V4.183A2.381,2.381,0,0,1,23.316,1.8h0A2.381,2.381,0,0,1,25.7,4.183V8.264A2.381,2.381,0,0,1,23.316,10.646Z" transform="translate(0 -1.802)"/><path class="q" d="M23.316,1.8v8.844A2.381,2.381,0,0,0,25.7,8.265V4.183A2.381,2.381,0,0,0,23.316,1.8Z" transform="translate(0 -1.802)"/><path class="r" d="M39,10a2.374,2.374,0,0,1-.757-1.738V5.458H43l3.889,3.889a6.61,6.61,0,0,1,1.936,4.674h0a2.426,2.426,0,0,1-2.271,2.447,2.375,2.375,0,0,1-1.848-.754Z" transform="translate(0 -1.802)"/><path class="s" d="M40.621,10.646h0A2.381,2.381,0,0,1,38.24,8.265V4.183A2.381,2.381,0,0,1,40.621,1.8h0A2.381,2.381,0,0,1,43,4.183V8.264A2.381,2.381,0,0,1,40.621,10.646Z" transform="translate(0 -1.802)"/><path class="t" d="M40.621,1.8v8.844A2.381,2.381,0,0,0,43,8.265V4.183A2.381,2.381,0,0,0,40.621,1.8Z" transform="translate(0 -1.802)"/></g></g></svg>