<svg xmlns="http://www.w3.org/2000/svg" xmlns:xlink="http://www.w3.org/1999/xlink" width="22" height="22" viewBox="0 0 22 22"><defs><style>.a,.c{fill:#00be52;}.a{stroke:#707070;}.b{clip-path:url(#a);}</style><clipPath id="a"><rect class="a" width="22" height="22"/></clipPath></defs><g class="b"><path class="c" d="M11,22A11,11,0,1,1,22,11,11.024,11.024,0,0,1,11,22ZM11,1.289A9.711,9.711,0,1,0,20.711,11,9.722,9.722,0,0,0,11,1.289Z"/><g transform="translate(2.621 2.621)"><path class="c" d="M11,19.379A8.379,8.379,0,1,1,19.379,11,8.388,8.388,0,0,1,11,19.379ZM11,3.91A7.09,7.09,0,1,0,18.09,11,7.1,7.1,0,0,0,11,3.91Z" transform="translate(-2.621 -2.621)"/></g><g transform="translate(10.355 5.199)"><path class="c" d="M10.355,5.2h1.289V6.488H10.355Z" transform="translate(-10.355 -5.199)"/></g><g transform="translate(10.355 15.512)"><path class="c" d="M10.355,15.512h1.289V16.8H10.355Z" transform="translate(-10.355 -15.512)"/></g><g transform="translate(5.199 10.355)"><path class="c" d="M5.2,10.355H6.488v1.289H5.2Z" transform="translate(-5.199 -10.355)"/></g><g transform="translate(15.512 10.355)"><path class="c" d="M15.512,10.355H16.8v1.289H15.512Z" transform="translate(-15.512 -10.355)"/></g><g transform="translate(6.44 13.734)"><path class="c" d="M0,0H1.289V1.289H0Z" transform="translate(0 0.911) rotate(-45)"/></g><g transform="translate(13.732 6.443)"><path class="c" d="M0,0H1.289V1.289H0Z" transform="translate(0 0.911) rotate(-45)"/></g><g transform="translate(13.732 13.735)"><path class="c" d="M0,0H1.289V1.289H0Z" transform="translate(0 0.911) rotate(-45)"/></g><g transform="translate(6.441 6.443)"><path class="c" d="M0,0H1.289V1.289H0Z" transform="translate(0 0.911) rotate(-45)"/></g><g transform="translate(10.355 7.777)"><path class="c" d="M14.223,11.645H10.355V7.777h1.289v2.578h2.578Z" transform="translate(-10.355 -7.777)"/></g></g></svg>