<svg xmlns="http://www.w3.org/2000/svg" xmlns:xlink="http://www.w3.org/1999/xlink" width="22" height="22" viewBox="0 0 22 22"><defs><style>.a,.c{fill:#808191;}.a{stroke:#808191;}.b{clip-path:url(#a);}</style><clipPath id="a"><rect class="a" width="22" height="22"/></clipPath></defs><g class="b"><path class="c" d="M20.969,15.268V3.029a1.312,1.312,0,0,0-1.311-1.311H16.543v-.43a1.289,1.289,0,0,0-2.578,0v.43H7v-.43a1.289,1.289,0,0,0-2.578,0v.43H1.311A1.312,1.312,0,0,0,0,3.029V18.971a1.312,1.312,0,0,0,1.311,1.311H7.167a.43.43,0,0,0,0-.859H1.311a.452.452,0,0,1-.451-.451V3.029a.452.452,0,0,1,.451-.451H4.426v.43A1.289,1.289,0,0,0,7,3.008v-.43h6.961v.43a1.289,1.289,0,0,0,2.578,0v-.43h3.115a.452.452,0,0,1,.451.451V5.156H3.867a.43.43,0,0,0,0,.859H20.109v8.527a4.017,4.017,0,0,0-1.2-.508V7.648a.43.43,0,0,0-.43-.43H2.492a.43.43,0,0,0-.43.43V17.789a.43.43,0,0,0,.43.43H13.93a4.009,4.009,0,0,0,.265,1.2H10.6a.43.43,0,0,0,0,.859h4.052a4.037,4.037,0,1,0,6.312-5.013ZM6.145,3.008a.43.43,0,0,1-.859,0V1.289a.43.43,0,0,1,.859,0Zm9.539,0a.43.43,0,0,1-.859,0V1.289a.43.43,0,0,1,.859,0Zm2.277,10.914a4.056,4.056,0,0,0-.588.043H15.709V11.473h2.337v2.45Zm-3.994,3.438H12.513V14.824H14.85v.563A4.024,4.024,0,0,0,13.967,17.359ZM2.922,11.473H5.259v2.492H2.922Zm3.2,0H8.456v2.492H6.119Zm6.394,0H14.85v2.492H12.513Zm-.859,2.492H9.316V11.473h2.337Zm.859-3.352V8.078H14.85v2.535Zm-.859,0H9.316V8.078h2.337Zm-3.2,0H6.119V8.078H8.456Zm0,4.211v2.535H6.119V14.824Zm.859,0h2.338v2.535H9.316V14.824Zm8.731-4.211H15.709V8.078h2.337ZM5.259,8.078v2.535H2.922V8.078ZM2.922,14.824H5.259v2.535H2.922Zm15.039,6.316a3.18,3.18,0,1,1,3.18-3.18A3.183,3.183,0,0,1,17.961,21.141Z"/><path class="c" d="M19.2,16.919l-1.329,1.329-.591-.591a.43.43,0,0,0-.608.608l.9.9a.43.43,0,0,0,.608,0l1.633-1.633a.43.43,0,1,0-.608-.608Z"/><path class="c" d="M8.886,19.422a.43.43,0,1,0,.3.126A.433.433,0,0,0,8.886,19.422Z"/><path class="c" d="M2.452,5.89a.429.429,0,1,0-.3.126A.433.433,0,0,0,2.452,5.89Z"/></g></svg>