<svg xmlns="http://www.w3.org/2000/svg" xmlns:xlink="http://www.w3.org/1999/xlink" width="90" height="90" viewBox="0 0 90 90"><defs><style>.a,.c{fill:#fd8122;}.a{stroke:#707070;}.b{clip-path:url(#a);}</style><clipPath id="a"><rect class="a" width="90" height="90" transform="translate(0.147 0.147)"/></clipPath></defs><g transform="translate(-444.147 -659.147)"><g class="b" transform="translate(444 659)"><g transform="translate(0 22.261)"><path class="c" d="M85.044,61.513c.034-.007.067-.016.1-.025s.057-.013.085-.022.064-.022.1-.034.057-.019.085-.031.059-.027.088-.041.057-.026.085-.041.054-.032.081-.048.056-.032.083-.051.056-.041.084-.062.048-.034.07-.053c.042-.035.083-.072.122-.11l.022-.02.021-.023c.038-.039.074-.078.109-.12.02-.025.038-.05.056-.075s.04-.051.058-.079.036-.059.054-.089.031-.05.045-.075.03-.061.044-.092.026-.054.038-.082.022-.061.033-.091.022-.059.031-.09.016-.062.024-.093.016-.061.022-.092.012-.074.017-.111.009-.052.011-.078a1.954,1.954,0,0,0,.01-.2V17.736a1.958,1.958,0,0,0-1.958-1.958H22.979l-.051,0c-.037,0-.074,0-.111.006l-.088.01-.1.015-.092.019-.093.024-.09.028-.091.033-.084.035L22.086,16l-.076.041c-.03.017-.06.036-.09.054l-.072.048c-.028.02-.055.04-.082.061l-.072.06c-.023.021-.047.041-.069.063s-.051.051-.075.077-.025.025-.037.038-.013.016-.019.024c-.025.028-.048.058-.07.088s-.034.044-.05.066-.039.059-.058.09-.031.049-.045.075-.031.059-.046.089-.028.055-.04.083-.024.06-.035.09-.023.059-.032.089-.017.061-.026.091-.017.062-.024.094-.011.06-.016.089-.011.068-.016.1,0,.057-.007.086,0,.073-.005.11c0,.011,0,.021,0,.032V29.812a1.958,1.958,0,0,0,3.916,0V22.085L42.347,37.5a1.978,1.978,0,0,0-.26.216l-17.15,17.15V42a1.958,1.958,0,1,0-3.916,0v2.393H10.9a1.958,1.958,0,0,0,0,3.916H21.02V59.593a1.958,1.958,0,0,0,1.958,1.958H84.661c.064,0,.129,0,.193-.01.03,0,.059-.009.089-.013S85.01,61.52,85.044,61.513ZM82.7,54.866,65.553,37.715c-.011-.011-.023-.02-.034-.031L78.412,26.746a1.958,1.958,0,1,0-2.534-2.986L53.847,42.451l-25.7-22.756H82.7V54.866ZM44.856,40.485a1.951,1.951,0,0,0,.342-.461l7.324,6.484a1.958,1.958,0,0,0,2.565.027L62.551,40.2a1.969,1.969,0,0,0,.232.282l17.15,17.15H27.706Z" transform="translate(3.675 -15.778)"/><path class="c" d="M1.958,32.726H35.03a1.958,1.958,0,0,0,0-3.916H1.958a1.958,1.958,0,0,0,0,3.916Z" transform="translate(0 -10.424)"/><path class="c" d="M4.387,25.077h14.85a1.958,1.958,0,0,0,0-3.916H4.387a1.958,1.958,0,0,0,0,3.916Z" transform="translate(0.998 -13.567)"/><path class="c" d="M16.318,41.918H1.958a1.958,1.958,0,1,0,0,3.916h14.36a1.958,1.958,0,1,0,0-3.916Z" transform="translate(0 -5.038)"/></g></g></g></svg>