<svg xmlns="http://www.w3.org/2000/svg" xmlns:xlink="http://www.w3.org/1999/xlink" width="78" height="78" viewBox="0 0 78 78"><defs><style>.a,.c{fill:#fd8122;}.a{stroke:#707070;}.b{clip-path:url(#a);}</style><clipPath id="a"><rect class="a" width="78" height="78" transform="translate(1408.163 825.163)"/></clipPath></defs><g class="b" transform="translate(-1408.163 -825.163)"><g transform="translate(1419.627 825)"><path class="c" d="M37.037,0A27.542,27.542,0,0,0,13.61,42.016L35.469,77.241a2.3,2.3,0,0,0,1.95,1.085h.018a2.294,2.294,0,0,0,1.951-1.116l21.3-35.566A27.542,27.542,0,0,0,37.037,0ZM56.751,39.288,37.384,71.623,17.511,39.6a22.962,22.962,0,1,1,39.239-.31Z" transform="translate(-9.5)"/><g transform="translate(13.768 13.768)"><path class="c" d="M34.518,11.25A13.768,13.768,0,1,0,48.287,25.018,13.784,13.784,0,0,0,34.518,11.25Zm0,22.978a9.209,9.209,0,1,1,9.194-9.209A9.216,9.216,0,0,1,34.518,34.228Z" transform="translate(-20.75 -11.25)"/></g></g></g></svg>