<svg xmlns="http://www.w3.org/2000/svg" xmlns:xlink="http://www.w3.org/1999/xlink" width="20" height="20" viewBox="0 0 20 20"><defs><style>.a,.c{fill:#808191;stroke:#808191;}.b{clip-path:url(#a);}.c{stroke-width:0.667px;}</style><clipPath id="a"><rect class="a" width="20" height="20" transform="translate(511 982)"/></clipPath></defs><g class="b" transform="translate(-511 -982)"><g transform="translate(513 984)"><path class="c" d="M8,12a4,4,0,1,1,4-4A4,4,0,0,1,8,12ZM8,4.667A3.333,3.333,0,1,0,11.333,8,3.337,3.337,0,0,0,8,4.667Z"/><path class="c" d="M9.333,9.667a.335.335,0,0,1-.2-.067L7.8,8.6a.333.333,0,0,1-.133-.267v-2a.333.333,0,0,1,.667,0V8.167l1.2.9a.333.333,0,0,1-.2.6Z"/><path class="c" d="M.513,10a.334.334,0,0,1-.325-.261A8.014,8.014,0,0,1,8,0a7.928,7.928,0,0,1,6.338,3.131.333.333,0,1,1-.529.405A7.327,7.327,0,0,0,.667,8,7.282,7.282,0,0,0,.839,9.594a.333.333,0,0,1-.253.4A.342.342,0,0,1,.513,10Z"/><path class="c" d="M8,16a7.928,7.928,0,0,1-6.338-3.131.333.333,0,1,1,.529-.405A7.327,7.327,0,0,0,15.333,8a6.873,6.873,0,0,0-.178-1.589.333.333,0,1,1,.649-.154A7.534,7.534,0,0,1,16,8a8.009,8.009,0,0,1-8,8Z"/><path class="c" d="M1.7,16a.334.334,0,0,1-.333-.33l-.033-3.333a.333.333,0,0,1,.1-.237.329.329,0,0,1,.237-.1H5a.333.333,0,1,1,0,.667H2l.03,3A.333.333,0,0,1,1.7,16h0Z"/><path class="c" d="M14.333,4H11a.333.333,0,0,1,0-.667h3v-3a.333.333,0,0,1,.667,0V3.667A.333.333,0,0,1,14.333,4Z"/></g></g></svg>