<svg xmlns="http://www.w3.org/2000/svg" xmlns:xlink="http://www.w3.org/1999/xlink" width="112" height="112" viewBox="0 0 112 112"><defs><style>.a{fill:#fff;stroke:#707070;}.b{fill:#ceefe8;}.c{clip-path:url(#a);}.d{fill:url(#b);}.e{fill:url(#c);}.f{fill:url(#d);}.g{fill:url(#e);}.h{fill:url(#f);}.i{fill:url(#g);}.j{fill:url(#h);}.k{fill:url(#k);}.l{fill:url(#l);}.m{fill:url(#m);}.n{fill:url(#n);}.o{fill:url(#o);}.p{fill:url(#p);}.q{fill:url(#q);}.r{fill:url(#r);}.s{fill:url(#s);}.t{fill:url(#t);}.u{fill:url(#u);}.v{fill:url(#v);}.w{fill:url(#w);}.x{fill:url(#y);}</style><clipPath id="a"><rect class="a" width="88" height="88" rx="9"/></clipPath><linearGradient id="b" x1="0.5" y1="0.489" x2="0.5" y2="1.018" gradientUnits="objectBoundingBox"><stop offset="0" stop-color="#ff637b"/><stop offset="1" stop-color="#e63950"/></linearGradient><linearGradient id="c" x1="0.581" y1="0.88" x2="0.387" y2="-0.099" gradientUnits="objectBoundingBox"><stop offset="0" stop-color="#e63950" stop-opacity="0"/><stop offset="0.047" stop-color="#e4354b" stop-opacity="0.047"/><stop offset="0.467" stop-color="#d31822" stop-opacity="0.467"/><stop offset="0.799" stop-color="#c90709" stop-opacity="0.8"/><stop offset="1" stop-color="#c50000"/></linearGradient><linearGradient id="d" x1="0.381" y1="0.408" x2="0.857" y2="0.775" gradientUnits="objectBoundingBox"><stop offset="0" stop-color="#fce9cb"/><stop offset="1" stop-color="#ffbd95"/></linearGradient><linearGradient id="e" x1="0.381" y1="0.408" x2="0.857" y2="0.775" xlink:href="#d"/><linearGradient id="f" x1="0.259" y1="0.208" x2="0.691" y2="0.732" xlink:href="#d"/><linearGradient id="g" x1="0.313" y1="0.313" x2="0.961" y2="0.96" gradientUnits="objectBoundingBox"><stop offset="0" stop-color="#8a7889"/><stop offset="1" stop-color="#6e566e"/></linearGradient><linearGradient id="h" x1="0.49" y1="0.674" x2="1.216" y2="-0.675" gradientUnits="objectBoundingBox"><stop offset="0" stop-color="#6e566e" stop-opacity="0"/><stop offset="0.047" stop-color="#6e566e" stop-opacity="0.047"/><stop offset="1" stop-color="#6e566e"/></linearGradient><linearGradient id="k" x1="0.382" y1="0.492" x2="0.711" y2="0.869" xlink:href="#g"/><linearGradient id="l" x1="0.372" y1="0.316" x2="0.611" y2="0.754" gradientUnits="objectBoundingBox"><stop offset="0" stop-color="#6e566e" stop-opacity="0"/><stop offset="0.294" stop-color="#674d66" stop-opacity="0.294"/><stop offset="1" stop-color="#593b56"/></linearGradient><linearGradient id="m" x1="0.635" y1="0.502" x2="-0.247" y2="0.416" gradientUnits="objectBoundingBox"><stop offset="0" stop-color="#faa68e" stop-opacity="0"/><stop offset="1" stop-color="#c9766e"/></linearGradient><linearGradient id="n" x1="0.589" y1="0.328" x2="0.356" y2="0.778" gradientUnits="objectBoundingBox"><stop offset="0" stop-color="#edf5ff"/><stop offset="1" stop-color="#d5e8fe"/></linearGradient><linearGradient id="o" x1="0.447" y1="0.586" x2="0.315" y2="0.799" xlink:href="#n"/><linearGradient id="p" x1="-0.963" y1="0.328" x2="-1.196" y2="0.778" xlink:href="#n"/><linearGradient id="q" x1="-0.694" y1="0.586" x2="-0.825" y2="0.799" xlink:href="#n"/><linearGradient id="r" x1="0.5" y1="0.172" x2="0.5" y2="2.092" xlink:href="#m"/><linearGradient id="s" x1="0.404" y1="0.278" x2="0.564" y2="0.648" gradientUnits="objectBoundingBox"><stop offset="0" stop-color="#9ae1d3"/><stop offset="1" stop-color="#80d1c1"/></linearGradient><linearGradient id="t" x1="0.5" y1="0.197" x2="0.5" y2="0.045" gradientUnits="objectBoundingBox"><stop offset="0" stop-color="#0b799d" stop-opacity="0"/><stop offset="0.174" stop-color="#117d9e" stop-opacity="0.173"/><stop offset="0.414" stop-color="#2389a0" stop-opacity="0.416"/><stop offset="0.693" stop-color="#409ca3" stop-opacity="0.694"/><stop offset="0.999" stop-color="#69b7a8"/><stop offset="1" stop-color="#69b7a8"/></linearGradient><linearGradient id="u" x1="0.5" y1="0.047" x2="0.5" y2="0.637" xlink:href="#n"/><linearGradient id="v" x1="0.5" y1="0.437" x2="0.5" y2="1.154" xlink:href="#t"/><linearGradient id="w" x1="0.5" y1="0.247" x2="0.5" y2="-0.304" xlink:href="#t"/><linearGradient id="y" x1="0.5" y1="0.247" x2="0.5" y2="-0.304" xlink:href="#t"/></defs><rect class="b" width="112" height="112" rx="22"/><g class="c" transform="translate(12 12)"><g transform="translate(3.416 0.461)"><path class="d" d="M81.375,43.19a4,4,0,0,1-2.653,6.641c-9.4.805-21.836,1.293-35.484,1.293-15.108,0-28.734-.6-38.389-1.56a3.991,3.991,0,0,1-2.615-6.613l.049-.055a53.024,53.024,0,0,1,78.5-.359q.3.324.589.653Z" transform="translate(-1.221 35.954)"/><path class="e" d="M68.946,43.189q-.292-.329-.589-.652A53.087,53.087,0,0,0,9.982,28.957c.264,1.143.758,2.284,1.142,3.424a4.564,4.564,0,0,0,1.537,2.335L29.067,51.121l1.742,0c13.648,0,26.089-.488,35.484-1.293a4,4,0,0,0,2.653-6.641Z" transform="translate(11.208 35.954)"/><g transform="translate(10.672 0)"><g transform="translate(0.903 34.438)"><path class="f" d="M11.22,27.764a5.213,5.213,0,0,1-5.213-5.213v-3.1a5.213,5.213,0,1,1,10.427,0v3.1A5.213,5.213,0,0,1,11.22,27.764Z" transform="translate(-6.007 -14.237)"/><path class="g" d="M30.9,27.764a5.213,5.213,0,0,1-5.213-5.213v-3.1a5.213,5.213,0,1,1,10.427,0v3.1A5.213,5.213,0,0,1,30.9,27.764Z" transform="translate(21.909 -14.237)"/></g><path class="h" d="M32.291,67.43A24.216,24.216,0,0,0,56.5,44.114q.3-8.372,0-16.748a24.23,24.23,0,0,0-48.425,0q-.3,8.372,0,16.748A24.216,24.216,0,0,0,32.291,67.43Z" transform="translate(-2.379 5.746)"/><g transform="translate(15.611 34.216)"><path class="i" d="M19.072,17.638a3.492,3.492,0,1,1-3.492-3.492A3.492,3.492,0,0,1,19.072,17.638Z" transform="translate(-12.087 -14.146)"/><path class="j" d="M16.926,14.3a3.493,3.493,0,0,1-4.686,4.686A3.493,3.493,0,1,0,16.926,14.3Z" transform="translate(-11.871 -13.93)"/><g transform="translate(21.618)"><path class="i" d="M28.01,17.638a3.492,3.492,0,1,1-3.492-3.492A3.492,3.492,0,0,1,28.01,17.638Z" transform="translate(-21.025 -14.146)"/><path class="j" d="M25.863,14.3a3.493,3.493,0,0,1-4.686,4.686A3.493,3.493,0,1,0,25.863,14.3Z" transform="translate(-20.809 -13.93)"/></g></g><g transform="translate(1.719)"><path class="k" d="M10.393,41.216l.449-6.692a10.741,10.741,0,0,1,5.38-8.58,10.048,10.048,0,0,1,4.952-1.323h13.09a17.548,17.548,0,0,0,12.507-5.157l3.153,5.041A8.51,8.51,0,0,0,53,27.419a8.8,8.8,0,0,1,4.469,7.106l.3,4.771a1.717,1.717,0,0,0,1.661,1.62,1.442,1.442,0,0,0,1.429-1.232l2.138-12.743a44.107,44.107,0,0,0,.467-10.932A9.56,9.56,0,0,0,52.383,7.6,29.541,29.541,0,0,0,27.189.5L19.362,1.962A15.508,15.508,0,0,0,6.607,16.442l-.233,7.57A66.067,66.067,0,0,0,6.881,34.4l.905,7.1a1.21,1.21,0,0,0,1.2,1.087,1.456,1.456,0,0,0,1.4-1.368Z" transform="translate(-6.344 0)"/><path class="l" d="M52.383,7.6A29.541,29.541,0,0,0,27.189.5L19.362,1.962A15.508,15.508,0,0,0,6.607,16.442l-.233,7.57A66.067,66.067,0,0,0,6.881,34.4l.905,7.1a1.21,1.21,0,0,0,1.2,1.087,1.457,1.457,0,0,0,1.4-1.368l.449-6.692a10.741,10.741,0,0,1,5.38-8.58,10.048,10.048,0,0,1,4.952-1.323h13.09a17.548,17.548,0,0,0,12.507-5.157S44.763,11.15,52.383,7.6Z" transform="translate(-6.344 0)"/></g><path class="m" d="M32.169,24.986q.135-3.727.147-7.455a12.408,12.408,0,0,1-7.238,3.289,56.765,56.765,0,0,1,1.6,18.651,24.062,24.062,0,0,0,5.5-14.485Z" transform="translate(21.955 24.874)"/><g transform="translate(0 35.029)"><path class="n" d="M14.735,31.583h-.011c-1.93-.014-4.677-1.043-6.8-5.865a1.451,1.451,0,0,1,2.656-1.168c.826,1.877,2.218,4.117,4.162,4.132a1.451,1.451,0,0,1-.011,2.9Z" transform="translate(-2.554 -1.427)"/><path class="o" d="M19.08,26.051h-.006A13.586,13.586,0,0,1,8.655,21.208a16.584,16.584,0,0,1-2.936-4.784,1.451,1.451,0,0,1,2.729-.986A13.907,13.907,0,0,0,10.9,19.372a10.611,10.611,0,0,0,8.18,3.777,1.451,1.451,0,0,1-.005,2.9Z" transform="translate(-5.633 -14.482)"/><g transform="translate(44.928)"><path class="p" d="M26.182,31.583h.011c1.93-.014,4.677-1.043,6.8-5.865a1.451,1.451,0,0,0-2.656-1.168c-.826,1.877-2.218,4.117-4.162,4.132a1.451,1.451,0,0,0,.01,2.9Z" transform="translate(-23.465 -1.427)"/><path class="q" d="M25.659,26.051h.006a13.586,13.586,0,0,0,10.419-4.843,16.584,16.584,0,0,0,2.936-4.784,1.451,1.451,0,0,0-2.729-.986,13.907,13.907,0,0,1-2.456,3.934,10.611,10.611,0,0,1-8.18,3.777,1.451,1.451,0,0,0,.005,2.9Z" transform="translate(-24.208 -14.482)"/></g></g><path class="r" d="M22.732,34.568H19.745a4.027,4.027,0,0,1-4-4.457L17.3,15.59h7.871l1.562,14.521A4.026,4.026,0,0,1,22.732,34.568Z" transform="translate(8.674 22.119)"/><g transform="translate(9.65 41.516)"><path class="s" d="M48.308,22.032a5.085,5.085,0,0,0-3.8-3.285,69.367,69.367,0,0,0-29.238,0,5.085,5.085,0,0,0-3.8,3.285,33.551,33.551,0,0,0,0,21.913,5.085,5.085,0,0,0,3.8,3.285,69.368,69.368,0,0,0,29.238,0,5.086,5.086,0,0,0,3.8-3.285A33.551,33.551,0,0,0,48.308,22.032Z" transform="translate(-9.623 -17.127)"/><path class="t" d="M48.308,22.032a5.085,5.085,0,0,0-3.8-3.285,69.367,69.367,0,0,0-29.238,0,5.085,5.085,0,0,0-3.8,3.285,33.551,33.551,0,0,0,0,21.913,5.085,5.085,0,0,0,3.8,3.285,69.368,69.368,0,0,0,29.238,0,5.086,5.086,0,0,0,3.8-3.285A33.551,33.551,0,0,0,48.308,22.032Z" transform="translate(-9.623 -17.127)"/><path class="u" d="M11.485,22.268a83.406,83.406,0,0,1,35.155,0,6.577,6.577,0,0,1,.861.247.313.313,0,0,0,.4-.393l0-.007a5.2,5.2,0,0,0-3.89-3.359,70.94,70.94,0,0,0-29.9,0,5.2,5.2,0,0,0-3.89,3.359l0,.007a.313.313,0,0,0,.4.393A6.57,6.57,0,0,1,11.485,22.268Z" transform="translate(-8.8 -17.164)"/><path class="v" d="M10.021,27q.369,1.52.878,3.037a5.085,5.085,0,0,0,3.8,3.285,69.368,69.368,0,0,0,29.238,0,5.086,5.086,0,0,0,3.8-3.285q.511-1.517.878-3.037h-38.6Z" transform="translate(-9.059 -3.215)"/><path class="w" d="M44.5,42.784a5.086,5.086,0,0,0,3.8-3.285,33.463,33.463,0,0,0,1.253-17.15,96.522,96.522,0,0,0-39.351,0A33.465,33.465,0,0,0,11.462,39.5a5.085,5.085,0,0,0,3.8,3.285,69.37,69.37,0,0,0,29.238,0Z" transform="translate(-9.623 -12.682)"/><path class="w" d="M44.5,38.8a5.086,5.086,0,0,0,3.8-3.285,34.287,34.287,0,0,0,1.831-10.238,96.562,96.562,0,0,0-40.507,0,34.292,34.292,0,0,0,1.831,10.238,5.085,5.085,0,0,0,3.8,3.285A69.37,69.37,0,0,0,44.5,38.8Z" transform="translate(-9.618 -8.699)"/><path class="x" d="M43.95,34.5a5.086,5.086,0,0,0,3.8-3.285q.522-1.551.9-3.106a96.5,96.5,0,0,0-38.636,0q.374,1.555.9,3.106a5.085,5.085,0,0,0,3.8,3.285,69.37,69.37,0,0,0,29.238,0Z" transform="translate(-9.07 -4.401)"/></g></g></g></g></svg>