<svg xmlns="http://www.w3.org/2000/svg" xmlns:xlink="http://www.w3.org/1999/xlink" width="112" height="112" viewBox="0 0 112 112"><defs><style>.a{fill:#fff;stroke:#707070;}.b{fill:#c3f3d8;}.c{clip-path:url(#a);}.d{fill:url(#b);}.e{fill:url(#c);}.f{fill:url(#d);}.g{fill:url(#e);}.h{fill:url(#f);}</style><clipPath id="a"><rect class="a" width="65" height="65" rx="9"/></clipPath><linearGradient id="b" x1="0.25" y1="0.225" x2="0.828" y2="0.747" gradientUnits="objectBoundingBox"><stop offset="0" stop-color="#28a265"/><stop offset="1" stop-color="#28895e"/></linearGradient><linearGradient id="c" x1="0.723" y1="0.769" x2="0.456" y2="0.25" gradientUnits="objectBoundingBox"><stop offset="0" stop-color="#108372" stop-opacity="0"/><stop offset="1" stop-color="#006837"/></linearGradient><linearGradient id="d" x1="0.366" y1="0.196" x2="0.833" y2="0.591" gradientUnits="objectBoundingBox"><stop offset="0" stop-color="#ebeff0"/><stop offset="1" stop-color="#e3e5e4"/></linearGradient><linearGradient id="e" x1="0.787" y1="0.557" x2="-0.385" y2="0.213" gradientUnits="objectBoundingBox"><stop offset="0" stop-color="#cbd0e4" stop-opacity="0"/><stop offset="1" stop-color="#6a7d83"/></linearGradient><linearGradient id="f" x1="0.246" y1="0.198" x2="0.769" y2="0.821" xlink:href="#d"/></defs><rect class="b" width="112" height="112" rx="22"/><g class="c" transform="translate(24 24)"><g transform="translate(3)"><g transform="translate(0)"><path class="d" d="M62.934,29.3a29.3,29.3,0,1,0-30.145,29.29.865.865,0,0,1,.843.864v3.985a1.555,1.555,0,0,0,2.655,1.1l5.791-5.791a15.691,15.691,0,0,1,4.271-3.044A29.3,29.3,0,0,0,62.934,29.3Z" transform="translate(-4.329)"/></g><path class="e" d="M44.9,64.247A15.689,15.689,0,0,1,49.174,61.2,29.3,29.3,0,0,0,65.759,34.8c0-.713-.027-1.42-.077-2.121L57.624,24.62a2.484,2.484,0,0,0-3.506-.488L48.753,27.7l-4.178-4.143a3.674,3.674,0,0,0-2.341-1.2,50.763,50.763,0,0,0-22.978,0,3.307,3.307,0,0,0-2.673,2.46,30.4,30.4,0,0,0,0,18.527,3.636,3.636,0,0,0,1.129,2.054L40.736,68.413Z" transform="translate(-7.154 -5.497)"/><g transform="translate(7.709 15.247)"><path class="f" d="M50.052,32.808,62.975,24.7a2.539,2.539,0,0,1,3.889,2.151v16.21a2.539,2.539,0,0,1-3.889,2.151L50.052,37.111a2.54,2.54,0,0,1,0-4.3Z" transform="translate(-23.678 -21.601)"/><path class="g" d="M66.863,44.961V43.375L55.055,31.566l-5,3.138a2.54,2.54,0,0,0,0,4.3l12.923,8.105a2.54,2.54,0,0,0,3.889-2.152Z" transform="translate(-23.678 -23.498)"/><path class="h" d="M45.169,24.737A4.1,4.1,0,0,0,42.18,21.96a50.763,50.763,0,0,0-22.978,0,4.1,4.1,0,0,0-2.989,2.777,30.4,30.4,0,0,0,0,18.527A4.1,4.1,0,0,0,19.2,46.041a50.763,50.763,0,0,0,22.978,0,4.1,4.1,0,0,0,2.989-2.777A30.4,30.4,0,0,0,45.169,24.737Z" transform="translate(-14.767 -20.643)"/></g></g></g></svg>