<svg xmlns="http://www.w3.org/2000/svg" xmlns:xlink="http://www.w3.org/1999/xlink" width="112" height="112" viewBox="0 0 112 112"><defs><style>.a{fill:#fff;stroke:#707070;}.b{fill:#fcc9d3;}.c{clip-path:url(#a);}.d{fill:url(#b);}.e{fill:url(#c);}.f{fill:url(#d);}.g{fill:url(#e);}</style><clipPath id="a"><rect class="a" width="65" height="65" rx="9" transform="translate(0 0)"/></clipPath><linearGradient id="b" x1="0.246" y1="0.198" x2="0.769" y2="0.821" gradientUnits="objectBoundingBox"><stop offset="0" stop-color="#ff637b"/><stop offset="1" stop-color="#f90217"/></linearGradient><linearGradient id="c" x1="0.5" y1="0.353" x2="0.5" y2="0.977" gradientUnits="objectBoundingBox"><stop offset="0" stop-color="#f90217" stop-opacity="0"/><stop offset="0.267" stop-color="#e7010f" stop-opacity="0.267"/><stop offset="0.723" stop-color="#ce0004" stop-opacity="0.722"/><stop offset="1" stop-color="#c50000"/></linearGradient><linearGradient id="d" x1="0.654" y1="0.871" x2="0.339" y2="0.448" xlink:href="#c"/><linearGradient id="e" x1="0.219" y1="0.452" x2="0.53" y2="0.716" gradientUnits="objectBoundingBox"><stop offset="0" stop-color="#ebeff0"/><stop offset="1" stop-color="#e3e5e4"/></linearGradient></defs><rect class="b" width="112" height="112" rx="22"/><g class="c" transform="translate(24 24)"><g transform="translate(-0.16 5.186)"><g transform="translate(0 0)"><path class="d" d="M62.166,15.462a8.386,8.386,0,0,0-6.113-5.679,103.8,103.8,0,0,0-46.985,0,8.386,8.386,0,0,0-6.112,5.679,62.168,62.168,0,0,0,0,37.884,8.386,8.386,0,0,0,6.112,5.679,103.8,103.8,0,0,0,46.985,0,8.386,8.386,0,0,0,6.112-5.679,62.168,62.168,0,0,0,0-37.884Z" transform="translate(0 -7.09)"/><path class="e" d="M.433,52.409A64.41,64.41,0,0,0,3.068,65.128a8.386,8.386,0,0,0,6.112,5.679,103.8,103.8,0,0,0,46.985,0,8.386,8.386,0,0,0,6.112-5.679,64.411,64.411,0,0,0,2.636-12.719Z" transform="translate(-0.112 -18.872)"/></g><path class="f" d="M64.416,63.668a8.386,8.386,0,0,0,6.112-5.679q.717-2.29,1.259-4.585L55.512,37.129a3.4,3.4,0,0,0-1.012-.972L37.136,25.522a3.127,3.127,0,0,0-4.97,2.635V49.938a3.181,3.181,0,0,0,1.22,2.808L46.832,66.191a105.2,105.2,0,0,0,17.584-2.523Z" transform="translate(-8.363 -11.734)"/><path class="g" d="M54.411,36.082,37.047,25.192a3.412,3.412,0,0,0-5.225,2.891V49.864a3.412,3.412,0,0,0,5.225,2.891l17.364-10.89A3.412,3.412,0,0,0,54.411,36.082Z" transform="translate(-8.273 -11.659)"/></g></g></svg>